<?xml version="1.0" encoding="utf-8"?>
<!-- Generator: Adobe Illustrator 16.0.2, SVG Export Plug-In . SVG Version: 6.00 Build 0)  -->
<!DOCTYPE svg PUBLIC "-//W3C//DTD SVG 1.1//EN" "http://www.w3.org/Graphics/SVG/1.1/DTD/svg11.dtd">
<svg version="1.1" id="Layer_1" xmlns="http://www.w3.org/2000/svg" xmlns:xlink="http://www.w3.org/1999/xlink" x="0px" y="0px"
	 width="300px" height="148px" viewBox="156 322 300 148" enable-background="new 156 322 300 148" xml:space="preserve">
<path fill="#FFFFFF" d="M456,458c0,6.627-5.373,12-12,12H168c-6.627,0-12-5.373-12-12V334c0-6.627,5.373-12,12-12h276
	c6.627,0,12,5.373,12,12V458z"/>
<g>
	<path fill="#09124F" d="M273.22,376l14.799,33.42h-8.951l-2.753-6.615h-14.913l-2.49,6.615h-8.821L263.517,376H273.22L273.22,376z
		 M392.046,409.569c-2.37,0-4.737,0-7.105,0v-1.976c-2.363,1.541-4.735,2.316-7.105,2.316c-1.755,0-3.248-0.556-4.476-1.667
		c-1.232-1.118-1.844-2.409-1.844-3.888c0-1.969,0.634-3.561,1.9-4.77c1.268-1.209,5.113-2.77,11.524-4.673
		c0.164-2.547-1.151-3.821-3.921-3.821c-3.021,0-5.79,1.258-8.331,3.773v-5.782c2.966-1.83,6.231-2.745,9.785-2.745
		c6.38,0,9.572,2.295,9.572,6.893v6.609v3.73V409.569L392.046,409.569z M273.89,396.975l-5.398-12.987l-4.892,12.987H273.89
		L273.89,396.975z M314.18,386.83v4.752h-3.235c0.753,1.275,1.127,2.524,1.127,3.749c0,1.756-0.652,3.374-1.96,4.851
		c-1.313,1.486-3.249,2.37-5.806,2.647c-2.564,0.276-4.018,0.538-4.362,0.791c-0.344,0.244-0.514,0.571-0.514,0.972
		s0.22,0.728,0.669,0.973c0.45,0.254,2.205,0.507,5.275,0.768c3.07,0.27,5.204,1.072,6.413,2.418c1.2,1.355,1.806,2.801,1.806,4.353
		c0,2.475-1.022,4.354-3.071,5.651c-2.05,1.29-5.016,1.935-8.886,1.935c-3.954,0-6.952-0.596-8.993-1.796
		c-2.042-1.192-3.063-2.786-3.063-4.761c0-2.753,2.008-4.664,6.02-5.75c-1.822-0.547-2.736-1.528-2.736-2.956
		c0-1.666,1.372-2.81,4.124-3.43c-1.83-0.32-3.349-1.12-4.541-2.394c-1.193-1.274-1.789-2.793-1.789-4.558
		c0-2.164,0.857-4.075,2.58-5.733c1.724-1.658,4.23-2.483,7.514-2.483L314.18,386.83L314.18,386.83z M301.39,391.043
		c-1.168,0-2.141,0.401-2.934,1.193c-0.792,0.792-1.183,1.756-1.183,2.899c0,1.094,0.408,2.042,1.217,2.841
		c0.816,0.8,1.78,1.2,2.899,1.2c1.119,0,2.074-0.416,2.875-1.257c0.792-0.841,1.193-1.854,1.193-3.022
		c0-1.063-0.385-1.969-1.16-2.729C303.521,391.42,302.557,391.043,301.39,391.043L301.39,391.043z M301.993,416.478
		c1.511,0,2.736-0.276,3.675-0.842c0.941-0.556,1.404-1.225,1.404-2.01c0-1.656-1.836-2.488-5.512-2.488
		c-1.666,0-2.98,0.243-3.936,0.726c-0.955,0.491-1.431,1.144-1.431,1.961C296.195,415.587,298.131,416.478,301.993,416.478
		L301.993,416.478z M317.463,379.431c0-1.086,0.382-2.009,1.15-2.778c0.768-0.759,1.682-1.144,2.761-1.144
		c1.086,0,2.01,0.385,2.776,1.144c0.768,0.769,1.151,1.69,1.151,2.778c0,1.069-0.384,1.984-1.151,2.76
		c-0.767,0.777-1.689,1.161-2.776,1.161c-1.079,0-1.993-0.383-2.761-1.161C317.846,381.416,317.463,380.5,317.463,379.431
		L317.463,379.431z M324.96,386.83v22.591h-7.105V386.83H324.96L324.96,386.83z M337.945,386.83v1.961
		c1.904-1.633,4.06-2.451,6.47-2.451c2.93,0,5.412,1.11,7.448,3.34c2.023,2.23,3.038,4.957,3.038,8.191
		c0,3.636-1.022,6.552-3.055,8.748c-2.033,2.197-4.73,3.291-8.079,3.291c-2.084,0-4.017-0.516-5.822-1.553v9.396l-7.106,2.937
		V386.83H337.945L337.945,386.83z M337.945,393.217v10.446c1.34,0.996,2.721,1.495,4.123,1.495c1.726,0,3.098-0.623,4.109-1.863
		c1.012-1.249,1.521-2.934,1.521-5.047c0-2.165-0.467-3.855-1.405-5.055c-0.931-1.2-2.247-1.805-3.938-1.805
		C340.935,391.388,339.464,392,337.945,393.217L337.945,393.217z M366.809,376v33.42h-7.106v-30.089L366.809,376L366.809,376z
		 M384.938,403.989v-4.146v-1.349c-2.377,0.833-4.01,1.584-4.894,2.254c-0.889,0.662-1.329,1.512-1.329,2.54
		c0,0.661,0.219,1.225,0.668,1.699c0.449,0.473,0.988,0.711,1.627,0.711C382.351,405.698,383.666,405.125,384.938,403.989
		L384.938,403.989z M405.954,386.83v3.186c2.09-2.451,4.54-3.676,7.351-3.676c2.344,0,4.304,0.751,5.873,2.254
		c1.575,1.502,2.358,3.65,2.358,6.443v14.383h-7.104v-13.794c0-3.022-1.177-4.533-3.521-4.533c-1.673,0-3.332,1.242-4.955,3.733
		v14.594h-7.106v-22.59h7.104V386.83z"/>
	<path fill="#09124F" d="M211.649,383.036l-22.399,22.399v-13.419l15.69-15.688c4.515-4.515,14.641-4.515,19.155,0l10.303,10.303
		l-6.709,6.709l-10.303-10.303C216.034,381.684,213,381.684,211.649,383.036L211.649,383.036z"/>
	<path fill="#CB0000" d="M217.426,407.238l22.399-22.4v13.418l-15.688,15.69c-4.515,4.515-14.641,4.515-19.155,0l-10.304-10.304
		l6.71-6.708l10.303,10.303C213.042,408.59,216.075,408.589,217.426,407.238L217.426,407.238z"/>
</g>
</svg>
