<?xml version="1.0" encoding="utf-8"?>
<!-- Generator: Adobe Illustrator 16.0.2, SVG Export Plug-In . SVG Version: 6.00 Build 0)  -->
<!DOCTYPE svg PUBLIC "-//W3C//DTD SVG 1.1//EN" "http://www.w3.org/Graphics/SVG/1.1/DTD/svg11.dtd">
<svg version="1.1"
	 id="svg852" xmlns:dc="http://purl.org/dc/elements/1.1/" xmlns:rdf="http://www.w3.org/1999/02/22-rdf-syntax-ns#" xmlns:svg="http://www.w3.org/2000/svg" xmlns:inkscape="http://www.inkscape.org/namespaces/inkscape" xmlns:sodipodi="http://sodipodi.sourceforge.net/DTD/sodipodi-0.dtd" xmlns:cc="http://creativecommons.org/ns#" inkscape:version="1.0.2-2 (e86c870879, 2021-01-15)" sodipodi:docname="alelo-refeicao-seeklogo.com.svg"
	 xmlns="http://www.w3.org/2000/svg" xmlns:xlink="http://www.w3.org/1999/xlink" x="0px" y="0px" width="300px" height="148px"
	 viewBox="270.945 223.638 300 148" enable-background="new 270.945 223.638 300 148" xml:space="preserve">
<sodipodi:namedview  pagecolor="#ffffff" bordercolor="#666666" inkscape:cx="420.94489" showgrid="false" inkscape:zoom="1.4060715" inkscape:cy="297.63779" id="namedview854" guidetolerance="10" borderopacity="1" objecttolerance="10" gridtolerance="10" inkscape:pageopacity="0" inkscape:pageshadow="2" inkscape:window-x="-8" inkscape:window-width="1920" inkscape:window-height="1027" inkscape:window-maximized="1" inkscape:window-y="-8" inkscape:current-layer="svg852">
	</sodipodi:namedview>
<path fill="#FFFFFF" d="M570.945,359.638c0,6.627-5.373,12-12,12h-276c-6.627,0-12-5.373-12-12v-124c0-6.627,5.373-12,12-12h276
	c6.627,0,12,5.373,12,12V359.638z"/>
<g>
	<path id="path835" fill="#00A482" d="M450.149,240.982c-14.63,0-27.964,5.546-38.016,14.65l-0.002-0.001
		c-5.328,4.412-11.647,5.312-18.887,2.95c-0.887-0.369-1.789-0.708-2.705-1.017l-0.008-0.003v0
		c-4.213-1.418-8.725-2.188-13.416-2.188c-23.213,0-42.03,18.818-42.03,42.03c0,23.214,18.817,42.031,42.03,42.031
		c4.147,0,8.153-0.602,11.938-1.722v0.001c8.948-2.132,16.998-2.642,22.525,1.416c0.626,0.581,1.265,1.149,1.917,1.704l0.03,0.031
		l0.003-0.003c9.875,8.376,22.656,13.43,36.62,13.43c31.29,0,56.655-25.365,56.655-56.655S481.439,240.982,450.149,240.982
		L450.149,240.982z"/>
	<path fill="#FFFFFF" d="M423.897,281.57c-9.646,0-17.468,7.821-17.468,17.469c0,3.58,1.079,6.909,2.927,9.68l17.279-7.555
		l7.203-3.165l0.001,0.015l7.041-3.079C439.034,287.267,432.131,281.57,423.897,281.57z M413.946,299.95
		c-0.027-0.3-0.042-0.604-0.042-0.911c0-5.521,4.475-9.995,9.993-9.995c2.987,0,5.667,1.311,7.498,3.388L413.946,299.95z"/>
	<path id="path839" fill="#FFFFFF" d="M436.104,311.534c-6.255,5.936-14.529,6.52-21.799,2.105l4.108-6.246
		c4.137,2.474,8.292,2.073,12.468-1.206L436.104,311.534z"/>
	<path id="path841" fill="#FFFFFF" d="M443.216,307.211l-0.044-33.035h6.259v32.142c0,0.309,0.039,0.58,0.442,0.737l5.444,2.117
		l-2.452,6.378l-6.378-2.698C444.069,311.829,443.221,310.347,443.216,307.211L443.216,307.211z"/>
	<path id="path843" fill="#FFFFFF" d="M370.312,281.791c8.701,0,15.897,6.442,17.081,14.817v11.663
		c0.229,1.119,1.229,1.43,2.521,1.431l-2.658,6.297c-4.283-1.315-6.687-3.39-6.937-6.338v-13.053
		c-1.095-4.512-5.159-7.863-10.008-7.863c-5.689,0-10.301,4.612-10.301,10.301c0,5.688,4.611,10.299,10.301,10.299
		c1.688,0,3.28-0.405,4.687-1.126l2.972,6.29c-2.308,1.145-4.908,1.79-7.658,1.79c-9.529,0-17.254-7.725-17.254-17.253
		C353.058,289.515,360.783,281.791,370.312,281.791z"/>
	<path id="path845" fill="#FFFFFF" d="M393.5,307.211l-0.044-33.035h6.258v32.142c0,0.309,0.038,0.58,0.443,0.737l5.444,2.117
		l-2.453,6.378l-6.378-2.698C394.352,311.829,393.504,310.347,393.5,307.211L393.5,307.211z"/>
	<path id="path847" fill="#FFFFFF" d="M485.025,311.64c-3.036,2.765-7.072,4.45-11.501,4.45c-9.439,0-17.091-7.651-17.091-17.091
		c0-2.602,0.582-5.067,1.623-7.274l6.179,3.21l0.001,0.001c-0.545,1.244-0.849,2.618-0.849,4.063
		c0,5.598,4.538,10.137,10.137,10.137c2.464,0,4.722-0.88,6.479-2.342L485.025,311.64z"/>
	<path id="path849" fill="#D2E102" d="M473.524,281.909c9.438,0,17.09,7.651,17.09,17.09c0,2.632-0.595,5.124-1.657,7.351
		l-6.178-3.211l0,0c0.566-1.265,0.881-2.664,0.881-4.14c0-5.598-4.538-10.136-10.136-10.136c-2.492,0-4.773,0.9-6.539,2.392
		l-5.02-4.843C465.006,283.616,469.066,281.909,473.524,281.909L473.524,281.909z"/>
</g>
</svg>
