<?xml version="1.0" encoding="UTF-8" standalone="no"?>
<!-- Generator: Adobe Illustrator 16.0.2, SVG Export Plug-In . SVG Version: 6.00 Build 0)  -->

<svg
   version="1.1"
   id="Layer_1"
   x="0px"
   y="0px"
   width="300px"
   height="148px"
   viewBox="156 322 300 148"
   enable-background="new 156 322 300 148"
   xml:space="preserve"
   sodipodi:docname="american-express.svg"
   inkscape:version="1.1.2 (b8e25be833, 2022-02-05)"
   xmlns:inkscape="http://www.inkscape.org/namespaces/inkscape"
   xmlns:sodipodi="http://sodipodi.sourceforge.net/DTD/sodipodi-0.dtd"
   xmlns="http://www.w3.org/2000/svg"
   xmlns:svg="http://www.w3.org/2000/svg"><defs
   id="defs1597">
	
	
	
	
	
	
	
	
	
	
	
	
	
	
	
	
	
</defs><sodipodi:namedview
   id="namedview1595"
   pagecolor="#505050"
   bordercolor="#ffffff"
   borderopacity="1"
   inkscape:pageshadow="0"
   inkscape:pageopacity="0"
   inkscape:pagecheckerboard="1"
   showgrid="false"
   inkscape:zoom="2.7860007"
   inkscape:cx="138.54986"
   inkscape:cy="88.298613"
   inkscape:window-width="1920"
   inkscape:window-height="1009"
   inkscape:window-x="-8"
   inkscape:window-y="-8"
   inkscape:window-maximized="1"
   inkscape:current-layer="Layer_1" />
<path
   fill="#016FD0"
   d="M456,458c0,6.627-5.373,12-12,12H168c-6.627,0-12-5.373-12-12V334c0-6.627,5.373-12,12-12h276  c6.627,0,12,5.373,12,12V458z"
   id="path1556"
   style="fill:#b3b3b3" />
<path
   fill="#ffffff"
   d="m 214.227,450.411 v -47.103 h 49.876 l 5.351,6.977 5.528,-6.977 h 181.033 v 43.856 c 0,0 -4.733,3.202 -10.21,3.247 h -100.24 l -6.033,-7.426 v 7.426 h -19.771 v -12.673 c 0,0 -2.702,1.77 -8.539,1.77 h -6.73 v 10.905 h -29.933 l -5.342,-7.124 -5.427,7.124 z"
   id="path1558" /><path
   fill="#ffffff"
   d="m 155.985,367.806 11.248,-26.22 h 19.451 l 6.382,14.687 v -14.687 h 24.179 l 3.801,10.615 3.684,-10.615 h 108.538 v 5.336 c 0,0 5.707,-5.336 15.083,-5.336 l 35.219,0.123 6.27,14.495 v -14.617 h 20.235 l 5.569,8.328 v -8.328 h 20.423 v 47.104 h -20.423 l -5.336,-8.352 v 8.352 h -29.732 l -2.989,-7.426 h -7.991 l -2.942,7.426 h -20.16 c -8.071,0 -13.229,-5.228 -13.229,-5.228 v 5.228 H 302.87 l -6.034,-7.426 v 7.426 H 183.801 l -2.989,-7.426 h -7.966 l -2.964,7.426 h -13.896 v -20.885 z"
   id="path1560"
   style="fill:#ffffff" /><path
   fill="#016fd0"
   d="m 171.214,347.392 -15.17,35.271 h 9.875 l 2.798,-7.063 h 16.271 l 2.787,7.063 h 10.094 l -15.156,-35.271 z m 5.612,8.209 4.959,12.341 h -9.932 z"
   id="path1562"
   style="fill:#b3b3b3" /><polygon
   fill="#016fd0"
   points="212.947,347.439 221.112,370.177 229.079,347.387 243.002,347.387 243.002,382.657 234.185,382.657 234.185,356.668 224.836,382.657 217.105,382.657 207.73,356.668 207.73,382.657 198.913,382.656 198.913,347.387 "
   id="polygon1564"
   style="fill:#b3b3b3" /><polygon
   fill="#016fd0"
   points="277.807,347.387 277.807,355.277 257.943,355.277 257.943,361.309 277.345,361.309 277.345,368.733 257.943,368.733 257.943,375 277.807,375 277.807,382.656 249.035,382.656 249.035,347.387 "
   id="polygon1566"
   style="fill:#b3b3b3" /><path
   fill="#016fd0"
   d="m 282.912,347.392 v 35.271 h 8.819 v -12.53 h 3.713 l 10.572,12.53 h 10.776 l -11.603,-12.995 c 4.762,-0.402 9.674,-4.489 9.674,-10.834 0,-7.422 -5.824,-11.443 -12.329,-11.443 h -19.623 v 10e-4 z m 8.819,7.89 h 10.079 c 2.417,0 4.177,1.891 4.177,3.713 0,2.342 -2.279,3.712 -4.045,3.712 h -10.211 v -7.425 z"
   id="path1568"
   style="fill:#b3b3b3" /><polygon
   fill="#016fd0"
   points="318.462,347.387 327.464,347.387 327.464,382.656 318.462,382.656 "
   id="polygon1570"
   style="fill:#b3b3b3" /><path
   fill="#016fd0"
   d="m 348.813,382.656 h -1.944 c -9.405,0 -15.11,-7.408 -15.11,-17.49 0,-10.332 5.646,-17.78 17.519,-17.78 h 9.749 v 8.352 h -10.104 c -4.821,0 -8.229,3.762 -8.229,9.515 0,6.832 3.896,9.7 9.511,9.7 h 2.322 z"
   id="path1572"
   style="fill:#b3b3b3" /><path
   fill="#016fd0"
   d="m 367.998,347.392 -15.169,35.271 h 9.874 l 2.801,-7.063 h 16.271 l 2.787,7.063 h 10.092 L 379.5,347.392 Z m 5.613,8.209 4.962,12.341 h -9.936 z"
   id="path1574"
   style="fill:#b3b3b3" /><polygon
   fill="#016fd0"
   points="406.896,347.387 421.21,369.545 421.21,347.387 430.025,347.387 430.025,382.656 419.178,382.656 404.502,359.917 404.502,382.656 395.684,382.656 395.684,347.387 "
   id="polygon1576"
   style="fill:#b3b3b3" /><polygon
   fill="#016fd0"
   points="249.035,409.106 249.035,416.998 229.171,416.998 229.171,423.03 248.569,423.03 248.569,430.456 229.171,430.456 229.171,436.722 249.035,436.722 249.035,444.379 220.263,444.379 220.263,409.106 "
   id="polygon1578"
   style="fill:#b3b3b3" /><polygon
   fill="#016fd0"
   points="390.021,409.106 390.021,416.998 370.16,416.998 370.16,423.03 389.465,423.03 389.465,430.456 370.16,430.456 370.16,436.722 390.021,436.722 390.021,444.379 361.25,444.379 361.25,409.106 "
   id="polygon1580"
   style="fill:#b3b3b3" /><polygon
   fill="#016fd0"
   points="249.817,409.106 260.926,409.106 269.468,420.146 278.039,409.106 288.713,409.106 274.558,426.742 288.596,444.381 277.488,444.381 269.193,433.517 261.1,444.381 250.152,444.379 264.16,426.96 "
   id="polygon1582"
   style="fill:#b3b3b3" /><path
   fill="#016fd0"
   d="m 289.641,409.113 v 35.272 h 9.05 v -11.142 h 9.28 c 7.852,0 13.806,-4.164 13.806,-12.268 0,-6.712 -4.668,-11.863 -12.66,-11.863 h -19.476 z m 9.05,7.977 h 9.771 c 2.54,0 4.353,1.555 4.353,4.063 0,2.354 -1.803,4.063 -4.378,4.063 h -9.748 v -8.125 h 0.002 z"
   id="path1584"
   style="fill:#b3b3b3" /><path
   fill="#016fd0"
   d="m 325.608,409.106 v 35.271 h 8.816 v -12.53 h 3.716 l 10.57,12.53 h 10.776 l -11.604,-12.992 c 4.764,-0.404 9.676,-4.49 9.676,-10.835 0,-7.422 -5.826,-11.443 -12.327,-11.443 h -19.623 z m 8.817,7.892 h 10.078 c 2.42,0 4.179,1.892 4.179,3.714 0,2.345 -2.278,3.714 -4.045,3.714 h -10.212 z"
   id="path1586"
   style="fill:#b3b3b3" /><path
   fill="#016fd0"
   d="m 394.107,444.379 v -7.657 h 17.646 c 2.608,0 3.743,-1.412 3.743,-2.956 0,-1.484 -1.131,-2.983 -3.743,-2.983 h -7.973 c -6.932,0 -10.793,-4.223 -10.793,-10.563 0,-5.655 3.534,-11.109 13.837,-11.109 h 17.17 l -3.713,7.938 H 405.43 c -2.84,0 -3.713,1.491 -3.713,2.912 0,1.462 1.077,3.073 3.245,3.073 h 8.354 c 7.73,0 11.082,4.385 11.082,10.124 0,6.17 -3.737,11.225 -11.502,11.225 z"
   id="path1588"
   style="fill:#b3b3b3" /><path
   fill="#016fd0"
   d="m 426.468,444.379 v -7.657 h 16.902 c 2.611,0 3.741,-1.412 3.741,-2.956 0,-1.484 -1.127,-2.983 -3.741,-2.983 h -7.227 c -6.932,0 -10.794,-4.223 -10.794,-10.563 0,-5.655 3.532,-11.109 13.834,-11.109 h 16.831 l -3.711,7.938 h -14.51 c -2.839,0 -3.717,1.491 -3.717,2.912 0,1.462 1.081,3.073 3.249,3.073 h 7.607 c 7.727,0 11.078,4.385 11.078,10.124 0,6.17 -3.734,11.225 -11.499,11.225 z"
   id="path1590"
   style="fill:#b3b3b3" />
</svg>
