<?xml version="1.0" encoding="utf-8"?>
<!-- Generator: Adobe Illustrator 16.0.2, SVG Export Plug-In . SVG Version: 6.00 Build 0)  -->
<!DOCTYPE svg PUBLIC "-//W3C//DTD SVG 1.1//EN" "http://www.w3.org/Graphics/SVG/1.1/DTD/svg11.dtd">
<svg version="1.1" id="Layer_1" xmlns="http://www.w3.org/2000/svg" xmlns:xlink="http://www.w3.org/1999/xlink" x="0px" y="0px"
	 width="300px" height="148px" viewBox="147.5 347 300 148" enable-background="new 147.5 347 300 148" xml:space="preserve">
<path fill="#FFFFFF" d="M447.5,483c0,6.627-5.373,12-12,12h-276c-6.627,0-12-5.373-12-12V359c0-6.627,5.373-12,12-12h276
	c6.627,0,12,5.373,12,12V483z"/>
<g>
	<path fill="#120677" d="M210.386,363.475h174.041l0.188,54.238c-21.012-7.992-87.858-27.117-174.229-3.283V363.475z"/>
	<path fill="#FFFF00" d="M210.386,478.525h174.041v-43.392c-31.387-10.506-87.185-26.247-174.041-3.944V478.525z"/>
	<path fill="#FF0000" d="M384.426,435.134c-31.387-10.504-87.185-26.246-174.041-3.944v-16.761
		c86.372-23.833,153.217-4.709,174.229,3.284L384.426,435.134z"/>
	<path fill="#FFFF00" d="M265.825,404.212c4.309-11.902,14.164-22.179,31.288-22.05c17.124,0.128,28.55,9.878,31.638,22.681
		C306.675,402.543,291.967,402.144,265.825,404.212z"/>
	<path fill="#120677" stroke="#120677" stroke-width="0.216" stroke-miterlimit="22.9256" d="M249.268,456.546l11.657-17.365h4.324
		l12.421,17.365h-4.578l-3.54-5.261h-12.688l-3.328,5.261H249.268L249.268,456.546z M258.021,449.413h10.294l-3.172-4.808
		c-0.961-1.459-1.682-2.66-2.148-3.602c-0.388,1.115-0.933,2.22-1.639,3.319L258.021,449.413L258.021,449.413z M298.052,456.546
		v-1.848c-1.716,1.423-4.041,2.131-6.98,2.131c-1.292,0-2.508-0.142-3.631-0.425c-1.124-0.282-1.958-0.643-2.501-1.07
		c-0.551-0.434-0.932-0.96-1.152-1.582c-0.148-0.42-0.225-1.084-0.225-1.993v-7.791h3.722v6.975c0,1.115,0.078,1.863,0.226,2.252
		c0.24,0.562,0.735,0.998,1.491,1.321c0.763,0.32,1.703,0.479,2.819,0.479c1.115,0,2.162-0.162,3.144-0.489
		c0.982-0.328,1.674-0.776,2.077-1.338c0.41-0.565,0.614-1.388,0.614-2.458v-6.74h3.724v12.578L298.052,456.546L298.052,456.546z
		 M310.422,456.546v-12.578h3.349v1.904c0.854-0.89,1.646-1.479,2.373-1.763c0.722-0.283,1.52-0.429,2.389-0.429
		c1.257,0,2.529,0.23,3.829,0.688l-1.285,1.981c-0.905-0.312-1.816-0.465-2.728-0.465c-0.82,0-1.548,0.142-2.198,0.42
		c-0.65,0.283-1.108,0.672-1.384,1.169c-0.417,0.755-0.622,1.584-0.622,2.486v6.586H310.422L310.422,456.546z M342.164,454.993
		c-1.385,0.671-2.714,1.144-3.984,1.423c-1.278,0.275-2.65,0.413-4.112,0.413c-2.417,0-4.268-0.336-5.566-1.012
		c-1.293-0.675-1.942-1.54-1.942-2.588c0-0.618,0.239-1.181,0.735-1.69c0.487-0.509,1.128-0.918,1.921-1.225
		c0.798-0.307,1.688-0.542,2.684-0.699c0.729-0.109,1.83-0.219,3.308-0.319c3.009-0.207,5.228-0.449,6.647-0.737
		c0.015-0.29,0.021-0.477,0.021-0.554c0-0.869-0.354-1.483-1.061-1.835c-0.946-0.485-2.367-0.724-4.238-0.724
		c-1.753,0-3.045,0.174-3.886,0.525c-0.835,0.352-1.448,0.975-1.852,1.868l-3.639-0.288c0.333-0.889,0.876-1.612,1.632-2.158
		c0.757-0.551,1.857-0.975,3.292-1.27c1.435-0.296,3.095-0.445,4.987-0.445c1.881,0,3.399,0.13,4.571,0.38
		c1.174,0.255,2.035,0.57,2.594,0.954c0.551,0.385,0.933,0.865,1.158,1.451c0.12,0.364,0.184,1.02,0.184,1.966v2.842
		c0,1.985,0.076,3.238,0.24,3.761c0.155,0.526,0.473,1.03,0.94,1.512h-3.896C342.523,456.105,342.271,455.588,342.164,454.993
		L342.164,454.993z M341.853,450.23c-1.355,0.319-3.384,0.586-6.082,0.809c-1.534,0.125-2.622,0.266-3.25,0.424
		c-0.636,0.157-1.131,0.389-1.469,0.695c-0.348,0.304-0.522,0.639-0.522,1.012c0,0.57,0.381,1.043,1.129,1.423
		c0.749,0.376,1.852,0.565,3.3,0.565c1.435,0,2.712-0.178,3.829-0.537c1.116-0.36,1.942-0.854,2.466-1.476
		c0.403-0.481,0.601-1.192,0.601-2.131L341.853,450.23L341.853,450.23z"/>
</g>
</svg>
