<?xml version="1.0" encoding="UTF-8" standalone="no"?>
<!-- Generator: Adobe Illustrator 16.0.2, SVG Export Plug-In . SVG Version: 6.00 Build 0)  -->

<svg
   version="1.1"
   id="Layer_1"
   x="0px"
   y="0px"
   width="300px"
   height="148px"
   viewBox="0 0 300 148"
   enable-background="new 0 0 300 148"
   xml:space="preserve"
   sodipodi:docname="banri.svg"
   inkscape:version="1.1.2 (b8e25be833, 2022-02-05)"
   xmlns:inkscape="http://www.inkscape.org/namespaces/inkscape"
   xmlns:sodipodi="http://sodipodi.sourceforge.net/DTD/sodipodi-0.dtd"
   xmlns="http://www.w3.org/2000/svg"
   xmlns:svg="http://www.w3.org/2000/svg"><defs
   id="defs89">
	
	
</defs><sodipodi:namedview
   id="namedview87"
   pagecolor="#505050"
   bordercolor="#ffffff"
   borderopacity="1"
   inkscape:pageshadow="0"
   inkscape:pageopacity="0"
   inkscape:pagecheckerboard="1"
   showgrid="false"
   inkscape:zoom="4.777027"
   inkscape:cx="130.62518"
   inkscape:cy="78.291372"
   inkscape:window-width="1920"
   inkscape:window-height="1009"
   inkscape:window-x="-8"
   inkscape:window-y="-8"
   inkscape:window-maximized="1"
   inkscape:current-layer="Layer_1" />
<path
   fill="#ffffff"
   d="m 300,136 c 0,6.627 -5.373,12 -12,12 H 12 C 5.373,148 0,142.627 0,136 V 12 C 0,5.373 5.373,0 12,0 h 276 c 6.627,0 12,5.373 12,12 z"
   id="path2" />
<path
   d="M 95.581414,18.149826 H 204.41814 c 2.29077,0 4.16623,1.874408 4.16623,4.165765 V 125.68438 c 0,2.29136 -1.87546,4.16578 -4.16623,4.16578 H 95.581414 c -2.291357,0 -4.165777,-1.87442 -4.165777,-4.16578 V 22.315591 c 0,-2.291357 1.87442,-4.165765 4.165777,-4.165765 z"
   style="fill:none;stroke:#e6e6e6;stroke-width:2.32558;stroke-linecap:butt;stroke-linejoin:miter;stroke-miterlimit:2.6131;stroke-dasharray:none;stroke-opacity:1"
   id="path12" /><path
   d="m 113.56626,105.89378 h -5.39162 v -3.84195 c 0,-1.11644 -0.0614,-1.81407 -0.17533,-2.092883 -0.1136,-0.2744 -0.36707,-0.41381 -0.76077,-0.41381 -0.44601,0 -0.72541,0.167198 -0.84796,0.502293 -0.11813,0.33928 -0.17894,1.06469 -0.17894,2.18101 v 10.24594 c 0,1.07469 0.0608,1.77186 0.17894,2.09742 0.12255,0.33021 0.38916,0.49333 0.8089,0.49333 0.40195,0 0.66495,-0.16312 0.78704,-0.49333 0.1222,-0.32556 0.18812,-1.09272 0.18812,-2.30217 v -2.76238 h 5.39162 v 0.85564 c 0,2.27915 -0.1536,3.89742 -0.45509,4.85072 -0.30161,0.95331 -0.97517,1.79081 -2.01114,2.50704 -1.03691,0.71588 -2.31775,1.07877 -3.83521,1.07877 -1.5828,0 -2.88538,-0.30661 -3.90915,-0.9161 -1.02284,-0.60903 -1.705,-1.45072 -2.03742,-2.5253 -0.33204,-1.07911 -0.49873,-2.69784 -0.49873,-4.86025 v -6.44119 c 0,-1.59059 0.0527,-2.78144 0.15306,-3.57674 0.10537,-0.795293 0.40694,-1.5628 0.91877,-2.297634 0.50694,-0.734485 1.21096,-1.316306 2.1116,-1.739185 0.90064,-0.418692 1.93708,-0.632631 3.10479,-0.632631 1.5914,0 2.90306,0.33021 3.93497,0.981445 1.0319,0.655886 1.71011,1.469319 2.03753,2.446346 0.32382,0.976449 0.48602,2.497509 0.48602,4.557719 z m 14.25403,3.29687 c 0,2.21869 -0.0481,3.78614 -0.14394,4.70677 -0.10127,0.92564 -0.40695,1.76721 -0.92285,2.53018 -0.51601,0.76309 -1.21549,1.34898 -2.09427,1.75779 -0.87936,0.40962 -1.90673,0.61403 -3.07445,0.61403 -1.10992,0 -2.10695,-0.19534 -2.99026,-0.58136 -0.88796,-0.38602 -1.59652,-0.96249 -2.13381,-1.73453 -0.53822,-0.77216 -0.8575,-1.6142 -0.96238,-2.52076 -0.10034,-0.91157 -0.15312,-2.50204 -0.15312,-4.77212 v -3.77149 c 0,-2.21869 0.0486,-3.78568 0.14859,-4.71131 0.0967,-0.921101 0.40242,-1.762672 0.92284,-2.525644 0.51602,-0.762623 1.21085,-1.348513 2.09475,-1.758253 0.87843,-0.408693 1.90161,-0.613563 3.07339,-0.613563 1.11098,0 2.10788,0.195335 2.99131,0.581356 0.88343,0.38602 1.59606,0.962842 2.13381,1.734534 0.53776,0.772157 0.85704,1.614193 0.95784,2.52076 0.10442,0.91191 0.15255,2.49751 0.15255,4.77212 z m -5.39114,-7.24602 c 0,-1.02738 -0.0527,-1.68326 -0.16209,-1.971615 -0.10452,-0.283934 -0.32346,-0.427878 -0.65588,-0.427878 -0.28382,0 -0.49822,0.116272 -0.64717,0.348814 -0.15266,0.228009 -0.22719,0.911569 -0.22719,2.050679 v 10.29721 c 0,1.28352 0.0528,2.07428 0.14859,2.37181 0.0963,0.30243 0.32835,0.45148 0.6867,0.45148 0.36742,0 0.59903,-0.17219 0.70402,-0.51647 0.10034,-0.34882 0.15302,-1.16725 0.15302,-2.46984 z m 24.04453,-5.669155 v 22.058855 h -4.71352 v -14.89178 l -1.88487,14.89178 h -3.34466 l -1.98568,-14.5525 v 14.5525 h -4.71351 V 96.275475 h 6.98313 c 0.20568,1.325375 0.42009,2.888177 0.65123,4.688055 l 0.74356,5.61381 1.22898,-10.301865 z m 2.16416,0 h 5.43114 c 1.46932,0 2.60157,0.120805 3.38873,0.367417 0.79111,0.246146 1.38572,0.599959 1.77941,1.060509 0.39788,0.465085 0.66903,1.027373 0.80902,1.683259 0.13987,0.66077 0.21022,1.67907 0.21022,3.06026 v 1.9208 c 0,1.40932 -0.13581,2.43716 -0.40742,3.07933 -0.27521,0.64635 -0.7775,1.1391 -1.50792,1.48792 -0.7303,0.34428 -1.68361,0.51636 -2.85992,0.51636 h -1.44711 v 8.883 h -5.39615 z m 5.39615,3.771955 v 5.61334 c 0.15266,0.01 0.28393,0.0141 0.39334,0.0141 0.49822,0 0.83936,-0.13034 1.03191,-0.38602 0.19266,-0.26033 0.28847,-0.79983 0.28847,-1.61373 v -1.81406 c 0,-0.75344 -0.10953,-1.24631 -0.33207,-1.46967 -0.22301,-0.22766 -0.68217,-0.34393 -1.38165,-0.34393 z m 7.77435,-3.771955 h 3.81742 c 2.54436,0 4.2675,0.102202 5.16814,0.311606 0.9011,0.209405 1.63547,0.743904 2.20369,1.59966 0.56868,0.860639 0.85296,2.228219 0.85296,4.111699 0,1.7164 -0.20115,2.86957 -0.60356,3.46 -0.39788,0.59089 -1.18911,0.94424 -2.36996,1.06051 1.06691,0.28382 1.7886,0.66077 2.15602,1.13492 0.36242,0.46974 0.5945,0.90203 0.6817,1.2977 0.0917,0.39509 0.1358,1.48328 0.1358,3.26467 v 5.81809 h -5.00687 v -7.32962 c 0,-1.18131 -0.0917,-1.91173 -0.26661,-2.19508 -0.17487,-0.27894 -0.63414,-0.42335 -1.37258,-0.42335 v 9.94805 h -5.39615 z m 5.39615,3.771955 v 4.90664 c 0.6031,0 1.02737,-0.0886 1.27212,-0.26533 0.24487,-0.17661 0.36707,-0.75343 0.36707,-1.72535 v -1.2091 c 0,-0.70263 -0.11813,-1.15818 -0.35381,-1.37665 -0.23673,-0.21847 -0.66496,-0.33021 -1.28538,-0.33021 z m 18.04518,-3.771955 3.08711,22.058855 h -5.52241 l -0.26708,-3.96682 h -1.93708 l -0.31881,3.96682 h -5.58428 l 2.74191,-22.058855 z m -2.85504,14.185085 c -0.27568,-2.4975 -0.54683,-5.58555 -0.82204,-9.25495 -0.54682,4.21808 -0.88796,7.30148 -1.0233,9.25495 z m 18.2905,-7.51123 h -5.00652 v -1.63245 c 0,-0.76251 -0.0658,-1.2512 -0.19254,-1.460136 -0.1272,-0.209404 -0.34103,-0.311607 -0.6431,-0.311607 -0.32335,0 -0.56822,0.13941 -0.73402,0.422879 -0.16662,0.279284 -0.24975,0.707164 -0.24975,1.279444 0,0.73437 0.0922,1.29259 0.27975,1.66454 0.17941,0.37195 0.69135,0.8189 1.52606,1.34898 2.40088,1.51606 3.90915,2.75819 4.53458,3.73021 0.62542,0.97192 0.93563,2.5389 0.93563,4.70166 0,1.57246 -0.17441,2.73017 -0.52043,3.47407 -0.34521,0.74449 -1.01423,1.37212 -2.00254,1.87441 -0.99237,0.50241 -2.14241,0.75809 -3.4586,0.75809 -1.44246,0 -2.6761,-0.29301 -3.69487,-0.87436 -1.02319,-0.58136 -1.69221,-1.32073 -2.00696,-2.21822 -0.31474,-0.90204 -0.47241,-2.17683 -0.47241,-3.83242 v -1.442 h 5.00699 v 2.68378 c 0,0.82796 0.0699,1.35804 0.20975,1.59512 0.14453,0.23254 0.39335,0.35381 0.75216,0.35381 0.35835,0 0.62543,-0.14905 0.79983,-0.45148 0.17487,-0.29753 0.26301,-0.74402 0.26301,-1.33491 0,-1.29758 -0.16627,-2.14822 -0.49869,-2.54843 -0.34114,-0.39962 -1.18504,-1.06504 -2.52297,-2.00021 -1.34258,-0.94831 -2.23008,-1.63233 -2.66749,-2.0601 -0.43288,-0.42787 -0.79576,-1.0183 -1.08005,-1.77185 -0.28835,-0.75344 -0.42869,-1.71628 -0.42869,-2.88818 0,-1.68861 0.20162,-2.925383 0.60764,-3.706958 0.40241,-0.780761 1.05876,-1.390255 1.96347,-1.832202 0.90517,-0.437412 1.99835,-0.66042 3.27966,-0.66042 1.40339,0 2.5975,0.241611 3.58127,0.720765 0.98784,0.483688 1.63907,1.088299 1.96336,1.823133 0.31893,0.730299 0.47647,1.972072 0.47647,3.725212 v 0.86983"
   style="fill:#999999;fill-opacity:1;fill-rule:nonzero;stroke:none;stroke-width:0.116271"
   id="path14" /><path
   d="m 102.18528,122.85118 c 0,0 8.63767,-3.76515 28.57133,-3.10066 19.9333,0.66442 71.31738,0 71.31738,0 0,0 -0.66437,3.76512 -16.61131,3.54349 -15.94683,-0.2212 -83.2774,-0.44283 -83.2774,-0.44283"
   style="fill:#cccccc;fill-opacity:1;fill-rule:evenodd;stroke:none;stroke-width:0.116271"
   id="path16" /><path
   d="m 97.312309,52.862712 c 0,0 32.558191,0 44.518201,0 11.96012,0 19.71215,3.76521 19.71215,3.76521 0,0 -38.98085,-0.221613 -49.16911,-0.221613 -10.18827,0 -15.061241,-3.543597 -15.061241,-3.543597"
   style="fill:#cccccc;fill-opacity:1;fill-rule:evenodd;stroke:none;stroke-width:0.116271"
   id="path18" /><path
   d="m 100.69553,60.843684 h 8.70264 c 2.74283,0 4.82839,0.211613 6.24225,0.643096 1.41397,0.424157 2.55936,1.293982 3.42872,2.594708 0.86971,1.307586 1.30119,3.407328 1.30119,6.305969 0,1.965216 -0.30382,3.329543 -0.91924,4.100304 -0.61496,0.778087 -1.82406,1.371652 -3.63394,1.781857 2.01521,0.45962 3.37954,1.215848 4.10042,2.269032 0.71437,1.06051 1.07504,2.679703 1.07504,4.857114 v 3.11072 c 0,2.262289 -0.25486,3.937757 -0.77808,5.033729 -0.5159,1.088648 -1.34293,1.830807 -2.4739,2.23357 -1.13144,0.40288 -3.45047,0.60089 -6.95674,0.60089 h -10.08836 z m 8.72403,5.733101 v 7.458681 c 0.36742,-0.01453 0.65716,-0.02139 0.86924,-0.02139 0.85564,0 1.39979,-0.212079 1.63327,-0.629028 0.233,-0.424157 0.35334,-1.626401 0.35334,-3.612546 0,-1.053301 -0.0991,-1.7886 -0.28974,-2.205549 -0.19801,-0.424273 -0.44556,-0.693092 -0.7567,-0.798899 -0.31114,-0.113132 -0.91877,-0.177198 -1.80941,-0.191266 z m 0,12.675887 v 9.381575 c 1.22259,-0.03535 2.00742,-0.233356 2.3467,-0.579496 0.33928,-0.339744 0.50915,-1.194919 0.50915,-2.545293 v -3.124789 c 0,-1.435135 -0.15534,-2.30496 -0.45915,-2.608777 -0.30428,-0.303816 -1.10318,-0.480549 -2.3967,-0.52322 z m 29.7559,-18.408988 4.9914,33.530989 h -8.92881 l -0.43149,-6.030174 h -3.13199 l -0.51601,6.030174 h -9.02823 l 4.43284,-33.530989 z m -4.61644,21.561914 c -0.44555,-3.796022 -0.88377,-8.490123 -1.32886,-14.068351 -0.88389,6.412125 -1.43525,11.099366 -1.65466,14.068351 z M 165.128,60.843684 v 33.530989 h -7.64215 L 152.9472,79.132796 v 15.241877 h -7.28881 V 60.843684 h 7.28881 l 4.89199,15.100723 V 60.843684 Z m 3.49988,0 h 6.17191 c 4.11403,0 6.89953,0.155338 8.3556,0.473689 1.45665,0.317885 2.64436,1.130853 3.5636,2.431696 0.91924,1.308051 1.37839,3.386399 1.37839,6.249577 0,2.608429 -0.32521,4.362031 -0.97551,5.259877 -0.64322,0.897498 -1.92255,1.435252 -3.83149,1.611984 1.725,0.431018 2.89132,1.003653 3.48535,1.724884 0.58635,0.714021 0.96109,1.371651 1.10283,1.972076 0.14848,0.600889 0.21882,2.255545 0.21882,4.963385 v 8.843821 h -8.09445 V 83.2331 c 0,-1.795808 -0.14895,-2.90585 -0.43148,-3.337332 -0.28289,-0.423692 -1.02505,-0.643096 -2.22009,-0.643096 v 15.122001 h -8.72348 z m 8.72348,5.733101 v 7.458681 c 0.97563,0 1.66187,-0.134525 2.05754,-0.402879 0.39602,-0.268936 0.59403,-1.145504 0.59403,-2.622963 v -1.838015 c 0,-1.06737 -0.19069,-1.760462 -0.57322,-2.092417 -0.38148,-0.333 -1.07411,-0.502407 -2.07835,-0.502407 z m 22.8423,-5.733101 v 33.530989 h -8.72395 V 60.843684 h 8.72395"
   style="fill:#999999;fill-opacity:1;fill-rule:nonzero;stroke:none;stroke-width:0.116271"
   id="path20" /><path
   d="m 124.15554,49.186565 c 7.06115,-11.295981 14.15369,-17.153143 21.65365,-17.034663 14.00301,0.222078 20.51559,11.831526 24.82984,25.40712 10.68241,-1.110506 21.36483,-0.86843 32.04818,-0.432878 -10.53801,-1.590125 -21.12415,-2.987588 -32.04818,-3.031655 -3.13386,-13.792672 -9.30031,-24.761233 -22.9531,-24.974242 -8.71767,-0.135805 -17.9053,3.123393 -23.53039,20.066318"
   style="fill:#cccccc;fill-opacity:1;fill-rule:evenodd;stroke:none;stroke-width:0.116271"
   id="path22" /><path
   d="m 133.39457,52.362164 c 2.93445,-6.327595 7.69843,-12.390558 13.71407,-18.333528 -2.21822,0 -3.85881,0 -6.07703,0 -4.75933,7.26602 -7.49717,13.377003 -7.63704,18.333528"
   style="fill:#b3b3b3;fill-opacity:1;fill-rule:evenodd;stroke:none;stroke-width:0.116271"
   id="path24" /><path
   d="m 148.40809,26.955161 c 1.68407,0.384625 3.36826,0.769831 5.05233,1.154456 10.48208,-1.657678 20.27572,5.549742 26.56204,21.220892 -3.90229,-10.895427 -5.57555,-22.486155 -19.05534,-24.396491 -4.55039,-0.644491 -9.88933,0.02453 -12.55903,2.021143"
   style="fill:#b3b3b3;fill-opacity:1;fill-rule:evenodd;stroke:none;stroke-width:0.116271"
   id="path26" /><path
   d="m 130.94508,79.588696 h 5.27127 l 2.7361,-4.999197 -2.6189,-4.941527 -5.24487,-0.03035 -0.1436,9.97107"
   style="fill:#ffffff;fill-opacity:1;fill-rule:evenodd;stroke:none;stroke-width:0.116271"
   id="path28" /><path
   d="m 128.13283,74.722164 2.96131,-5.177208 2.71784,5.101399 -2.87643,4.954665 -2.80272,-4.878856"
   style="fill:#999999;fill-opacity:1;fill-rule:evenodd;stroke:none;stroke-width:0.116271"
   id="path30" /><path
   d="m 134.80436,86.694494 h 5.2708 l 2.73505,-5.000127 -2.61785,-4.941991 -5.24546,-0.0286 -0.14254,9.970721"
   style="fill:#ffffff;fill-opacity:1;fill-rule:evenodd;stroke:none;stroke-width:0.116271"
   id="path32" /><path
   d="m 131.99152,81.827847 2.96131,-5.178139 2.71691,5.1014 -2.87492,4.955595 -2.8033,-4.878856"
   style="fill:#999999;fill-opacity:1;fill-rule:evenodd;stroke:none;stroke-width:0.116271"
   id="path34" /><path
   d="m 126.77978,86.694494 h 5.27081 l 2.73691,-5.000127 -2.61925,-4.941991 -5.24452,-0.0286 -0.14395,9.970721"
   style="fill:#ffffff;fill-opacity:1;fill-rule:evenodd;stroke:none;stroke-width:0.116271"
   id="path36" /><path
   d="m 123.96881,81.827847 2.96131,-5.178139 2.71644,5.1014 -2.87492,4.955595 -2.80283,-4.878856"
   style="fill:#999999;fill-opacity:1;fill-rule:evenodd;stroke:none;stroke-width:0.116271"
   id="path38" /></svg>
