<?xml version="1.0" encoding="UTF-8" standalone="no"?>
<!-- Generator: Adobe Illustrator 16.0.2, SVG Export Plug-In . SVG Version: 6.00 Build 0)  -->

<svg
   version="1.1"
   id="svg1463"
   inkscape:version="1.1.2 (b8e25be833, 2022-02-05)"
   sodipodi:docname="cabal.svg"
   x="0px"
   y="0px"
   width="300px"
   height="148px"
   viewBox="147.638 346.945 300 148"
   enable-background="new 147.638 346.945 300 148"
   xml:space="preserve"
   xmlns:inkscape="http://www.inkscape.org/namespaces/inkscape"
   xmlns:sodipodi="http://sodipodi.sourceforge.net/DTD/sodipodi-0.dtd"
   xmlns="http://www.w3.org/2000/svg"
   xmlns:svg="http://www.w3.org/2000/svg"><defs
   id="defs2421" />
<sodipodi:namedview
   pagecolor="#ffffff"
   bordercolor="#666666"
   inkscape:cx="175.72002"
   showgrid="false"
   inkscape:zoom="2.0430228"
   inkscape:cy="13.705182"
   id="namedview1465"
   guidetolerance="10"
   borderopacity="1"
   objecttolerance="10"
   gridtolerance="10"
   inkscape:pageopacity="0"
   inkscape:pageshadow="2"
   inkscape:window-x="-8"
   inkscape:window-width="1920"
   inkscape:window-height="1009"
   inkscape:window-maximized="1"
   inkscape:window-y="-8"
   inkscape:current-layer="svg1463"
   inkscape:pagecheckerboard="1">
	</sodipodi:namedview>
<path
   fill="#006398"
   d="M447.638,482.945c0,6.627-5.373,12-12,12h-276c-6.627,0-12-5.373-12-12v-124c0-6.627,5.373-12,12-12h276  c6.627,0,12,5.373,12,12V482.945z"
   id="path2410"
   style="fill:#999999" />
<g
   id="Layer1000">
	<path
   id="path1448"
   fill="#FFFFFF"
   d="M329.527,423.805c8.167,0,12.291-1.237,12.291,4.161c0,6.77-0.992,5.734-12.288,5.734   L329.527,423.805z M329.612,408.644c9.402,0,10.85-1.103,10.848,4.856c-0.002,5.825-2.89,4.701-10.936,4.701L329.612,408.644z    M322.016,439.413l16.318,0.088c5.915,0,10.923-2.307,10.923-8.257c0-4.572,0.732-9.253-5.306-10.798   c3.81-3.211,4.005-1.479,4.005-9.409c0-5.723-3.33-7.783-8.825-8.137c-4.273-0.275-12.944-0.381-17.115,0.01V439.413z" />
	<path
   id="path1450"
   fill="#FFFFFF"
   d="M216.273,406.122c0.51,1.182,12.414,12.397,13.086,13.41   c1.589,2.396-1.729,4.667-2.736,5.677c-3.005,3.011-5.968,5.76-9.021,8.729c-1.134,1.103-1.353,0.861-1.342,3.024   c0.013,2.914-0.172,11.602,0.131,13.281l25.243-24.772c1.091-1.01,2.847-2.142,2.957-4.357c0.134-2.729-3.711-5.124-6.357-8.005   c-4.359-4.747-9.967-9.671-14.619-14.325c-1.243-1.245-2.293-2.427-3.48-3.62c-0.791-0.796-3.075-3.052-3.844-3.516   L216.273,406.122z" />
	<path
   id="path1452"
   fill="#FFFFFF"
   d="M211.244,450.243c0.282-2.27,0.118-11.406,0.116-14.357   c-0.001-1.242-9.028-9.349-10.486-10.813c-0.893-0.896-3.063-2.479-3.009-4.2c0.049-1.578,4.773-5.581,6.651-7.667   c1.154-1.281,2.313-2.342,3.535-3.564c1.865-1.865,3.308-2.666,3.308-4.064l-0.013-13.929   c-1.253,0.752-15.083,14.969-18.145,17.623c-2.75,2.385-4.357,4.645-7.215,7.245c-5.42,4.932-3.003,6.281,3.494,12.302   c4.911,4.552,9.683,10.008,14.561,14.386c1.361,1.222,2.304,2.258,3.605,3.497C208.741,447.741,210.423,449.129,211.244,450.243   L211.244,450.243z" />
	<path
   id="path1454"
   fill="#FFFFFF"
   d="M301.415,408.938l5.292,16.917l-10.621-0.137L301.415,408.938z M283.803,439.396l7.854,0.113   l2.465-7.555l14.192-0.024c0.935,0.788,2.371,6.071,2.729,7.532l7.872,0.036l-12.335-36.606   c-12.45-0.636-10.298-0.759-15.306,14.329C289.568,422.361,284.85,435.386,283.803,439.396z" />
	<path
   id="path1456"
   fill="#FFFFFF"
   d="M368.52,408.951l5.305,16.896l-10.676-0.033L368.52,408.951z M350.91,439.485l7.357,0.018   c0.772-0.186,1.273-2.524,1.638-3.619c0.421-1.263,0.952-2.674,1.251-3.953h14.673l2.372,7.557l7.804-0.011l-9.261-27.529   c-0.553-1.618-1.055-3.106-1.591-4.69c-0.409-1.21-0.783-3.784-1.867-4.411c-5.244,0-9.394-0.726-11.221,3.525L350.91,439.485z" />
	<path
   id="path1458"
   fill="#FFFFFF"
   d="M256.623,412.129v16.656c0,7.826,5.804,10.649,13.445,10.649l10.522-0.096   c-0.005-6.65-1.515-6.255-7.792-6.25c-10.563,0.011-8.673-1.848-8.673-19.595c0-3.948,2.004-5.396,5.942-5.396h10.786   c0.455-7.48-1.837-6.346-11.332-6.346C262.352,401.752,256.623,404.799,256.623,412.129L256.623,412.129z" />
	<path
   id="path1460"
   fill="#FFFFFF"
   d="M388.578,439.5c3.763,0,21.415,0.458,23.624-0.18c0-1.125,0.162-4.465,0.013-5.329   c-0.207-1.199-1.696-0.705-4.796-0.705c-3.775,0.001-7.552,0-11.327,0v-30.855c-9.714-2.062-7.514,6.636-7.514,14.613   C388.578,424.53,388.578,432.015,388.578,439.5z" />
</g>
</svg>
