<?xml version="1.0" encoding="utf-8"?>
<!-- Generator: Adobe Illustrator 16.0.2, SVG Export Plug-In . SVG Version: 6.00 Build 0)  -->
<!DOCTYPE svg PUBLIC "-//W3C//DTD SVG 1.1//EN" "http://www.w3.org/Graphics/SVG/1.1/DTD/svg11.dtd">
<svg version="1.1"
	 id="svg2059" xmlns:dc="http://purl.org/dc/elements/1.1/" xmlns:rdf="http://www.w3.org/1999/02/22-rdf-syntax-ns#" xmlns:svg="http://www.w3.org/2000/svg" xmlns:inkscape="http://www.inkscape.org/namespaces/inkscape" xmlns:sodipodi="http://sodipodi.sourceforge.net/DTD/sodipodi-0.dtd" xmlns:cc="http://creativecommons.org/ns#" inkscape:version="1.0.2-2 (e86c870879, 2021-01-15)" sodipodi:docname="cba-solucoes-em-beneficio-alimentacao-seeklogo.com.svg"
	 xmlns="http://www.w3.org/2000/svg" xmlns:xlink="http://www.w3.org/1999/xlink" x="0px" y="0px" width="300px" height="148px"
	 viewBox="59.764 74.818 300 148" enable-background="new 59.764 74.818 300 148" xml:space="preserve">
<sodipodi:namedview  pagecolor="#ffffff" bordercolor="#666666" inkscape:cx="209.76379" showgrid="false" inkscape:zoom="2.8894181" inkscape:cy="148.81889" id="namedview2061" guidetolerance="10" borderopacity="1" objecttolerance="10" gridtolerance="10" inkscape:pageopacity="0" inkscape:pageshadow="2" inkscape:window-x="-8" inkscape:window-width="1920" inkscape:window-height="1027" inkscape:window-maximized="1" inkscape:window-y="-8" inkscape:current-layer="svg2059">
	</sodipodi:namedview>
<path fill="#FFFFFF" d="M359.764,210.819c0,6.627-5.373,12-12,12h-276c-6.627,0-12-5.373-12-12v-124c0-6.628,5.373-12,12-12h276
	c6.627,0,12,5.372,12,12V210.819z"/>
<g>
	<path id="path2032" fill="#003262" d="M109.741,180.799l2.164-0.215c0.13,0.725,0.391,1.253,0.788,1.594
		c0.396,0.34,0.931,0.509,1.604,0.509c0.71,0,1.248-0.151,1.609-0.453s0.542-0.654,0.542-1.059c0-0.261-0.077-0.48-0.228-0.665
		c-0.151-0.182-0.417-0.341-0.795-0.473c-0.259-0.093-0.847-0.251-1.767-0.481c-1.184-0.296-2.016-0.658-2.494-1.092
		c-0.672-0.605-1.008-1.345-1.008-2.218c0-0.56,0.159-1.087,0.474-1.574c0.316-0.489,0.772-0.86,1.368-1.115
		c0.596-0.256,1.312-0.384,2.155-0.384c1.374,0,2.41,0.305,3.103,0.915c0.696,0.612,1.059,1.425,1.095,2.445l-2.225,0.077
		c-0.094-0.568-0.297-0.975-0.606-1.223c-0.309-0.248-0.775-0.373-1.394-0.373c-0.639,0-1.141,0.133-1.501,0.399
		c-0.233,0.171-0.351,0.398-0.351,0.685c0,0.261,0.11,0.483,0.33,0.668c0.278,0.237,0.956,0.482,2.033,0.738
		c1.077,0.254,1.872,0.521,2.386,0.79c0.516,0.274,0.92,0.645,1.212,1.117c0.292,0.474,0.438,1.058,0.438,1.75
		c0,0.63-0.174,1.22-0.524,1.77c-0.35,0.549-0.844,0.959-1.483,1.226c-0.639,0.269-1.438,0.401-2.391,0.401
		c-1.389,0-2.456-0.319-3.199-0.962C110.33,182.958,109.887,182.025,109.741,180.799z M120.099,178.933
		c0-1.121,0.169-2.062,0.504-2.824c0.248-0.561,0.591-1.063,1.023-1.509c0.433-0.444,0.906-0.774,1.419-0.992
		c0.685-0.289,1.476-0.435,2.371-0.435c1.621,0,2.916,0.505,3.89,1.509c0.971,1.008,1.457,2.406,1.457,4.2
		c0,1.776-0.483,3.168-1.447,4.171c-0.964,1.004-2.255,1.506-3.869,1.506c-1.634,0-2.936-0.499-3.9-1.498
		C120.582,182.062,120.099,180.687,120.099,178.933z M122.385,178.858c0,1.245,0.29,2.189,0.864,2.834
		c0.576,0.642,1.307,0.965,2.192,0.965c0.887,0,1.614-0.32,2.184-0.957c0.568-0.64,0.852-1.597,0.852-2.872
		c0-1.261-0.276-2.202-0.831-2.821c-0.552-0.621-1.286-0.931-2.205-0.931c-0.916,0-1.654,0.315-2.214,0.941
		C122.666,176.646,122.385,177.592,122.385,178.858z M132.556,184.359v-10.895h2.225v9.038h5.508v1.856H132.556z M141.867,173.374
		h2.225v5.952c0,0.947,0.028,1.558,0.082,1.837c0.094,0.45,0.317,0.813,0.67,1.084c0.355,0.274,0.838,0.41,1.453,0.41
		c0.621,0,1.092-0.129,1.409-0.387c0.317-0.259,0.506-0.572,0.57-0.948c0.063-0.376,0.097-0.998,0.097-1.868v-6.08h2.225v5.776
		c0,1.32-0.059,2.254-0.179,2.798c-0.12,0.545-0.34,1.005-0.663,1.381c-0.32,0.376-0.749,0.673-1.287,0.896
		c-0.54,0.222-1.24,0.335-2.107,0.335c-1.046,0-1.839-0.121-2.378-0.363c-0.54-0.243-0.967-0.558-1.281-0.946
		c-0.315-0.389-0.52-0.793-0.619-1.221c-0.146-0.628-0.218-1.559-0.218-2.79V173.374z M159.976,180.308l2.148,0.659
		c-0.33,1.211-0.88,2.108-1.647,2.696c-0.767,0.586-1.739,0.88-2.918,0.88c-1.46,0-2.659-0.499-3.601-1.496
		c-0.938-0.997-1.409-2.36-1.409-4.092c0-1.828,0.473-3.25,1.417-4.264c0.944-1.012,2.187-1.519,3.727-1.519
		c1.345,0,2.437,0.399,3.276,1.194c0.501,0.471,0.875,1.146,1.125,2.027l-2.194,0.522c-0.131-0.567-0.402-1.018-0.813-1.348
		c-0.414-0.329-0.916-0.494-1.503-0.494c-0.816,0-1.479,0.291-1.985,0.878c-0.509,0.582-0.762,1.528-0.762,2.839
		c0,1.386,0.251,2.375,0.749,2.963c0.502,0.592,1.151,0.886,1.952,0.886c0.591,0,1.1-0.188,1.524-0.563
		C159.485,181.703,159.792,181.114,159.976,180.308L159.976,180.308z M155.15,187.29v-0.88c0.517,0.055,0.99,0.082,1.422,0.082
		c0.445,0,0.777-0.079,0.992-0.24c0.167-0.119,0.249-0.273,0.249-0.465c0-0.17-0.077-0.317-0.232-0.442
		c-0.156-0.126-0.397-0.188-0.722-0.188c-0.322,0-0.649,0.051-0.987,0.151l0.197-0.744c0.389-0.138,0.808-0.205,1.258-0.205
		c0.626,0,1.1,0.14,1.425,0.412c0.325,0.276,0.488,0.611,0.488,1.005c0,0.443-0.179,0.798-0.54,1.074
		c-0.485,0.377-1.181,0.563-2.086,0.563C155.969,187.414,155.48,187.372,155.15,187.29z M163.569,178.933
		c0-1.121,0.168-2.062,0.504-2.824c0.248-0.561,0.59-1.063,1.022-1.509c0.433-0.444,0.906-0.774,1.42-0.992
		c0.686-0.289,1.476-0.435,2.371-0.435c1.622,0,2.916,0.505,3.89,1.509c0.972,1.008,1.458,2.406,1.458,4.2
		c0,1.776-0.483,3.168-1.447,4.171c-0.964,1.004-2.256,1.506-3.869,1.506c-1.634,0-2.936-0.499-3.9-1.498
		C164.053,182.062,163.569,180.687,163.569,178.933z M165.855,178.858c0,1.245,0.289,2.189,0.865,2.834
		c0.575,0.642,1.307,0.965,2.191,0.965c0.888,0,1.614-0.32,2.184-0.957c0.567-0.64,0.852-1.597,0.852-2.872
		c0-1.261-0.276-2.202-0.831-2.821c-0.553-0.621-1.287-0.931-2.205-0.931c-0.916,0-1.655,0.315-2.215,0.941
		C166.137,176.646,165.855,177.592,165.855,178.858L165.855,178.858z M167.466,172.391H166.5c-0.005-0.115-0.007-0.205-0.007-0.269
		c0-0.524,0.127-0.929,0.383-1.21c0.253-0.284,0.583-0.424,0.982-0.424c0.177,0,0.337,0.018,0.489,0.055
		c0.151,0.04,0.424,0.147,0.821,0.323c0.399,0.177,0.708,0.266,0.936,0.266c0.158,0,0.292-0.051,0.399-0.15
		c0.11-0.103,0.176-0.271,0.207-0.509h0.967c-0.005,0.683-0.131,1.169-0.376,1.463c-0.248,0.294-0.565,0.439-0.954,0.439
		c-0.171,0-0.337-0.019-0.501-0.053c-0.115-0.032-0.401-0.139-0.859-0.32c-0.46-0.182-0.793-0.271-1.002-0.271
		c-0.162,0-0.285,0.049-0.374,0.148C167.518,171.976,167.472,172.148,167.466,172.391z M175.964,184.359v-10.985h8.133v1.856h-5.908
		v2.439h5.494v1.856h-5.494v2.977h6.123v1.856H175.964z M185.616,180.799l2.164-0.215c0.13,0.725,0.391,1.253,0.788,1.594
		c0.396,0.34,0.931,0.509,1.603,0.509c0.711,0,1.248-0.151,1.609-0.453s0.542-0.654,0.542-1.059c0-0.261-0.077-0.48-0.228-0.665
		c-0.151-0.182-0.417-0.341-0.795-0.473c-0.258-0.093-0.846-0.251-1.767-0.481c-1.184-0.296-2.015-0.658-2.493-1.092
		c-0.672-0.605-1.008-1.345-1.008-2.218c0-0.56,0.159-1.087,0.473-1.574c0.317-0.489,0.772-0.86,1.368-1.115
		c0.596-0.256,1.312-0.384,2.156-0.384c1.373,0,2.409,0.305,3.102,0.915c0.696,0.612,1.059,1.425,1.095,2.445L192,176.611
		c-0.095-0.568-0.297-0.975-0.606-1.223c-0.309-0.248-0.774-0.373-1.394-0.373c-0.639,0-1.141,0.133-1.501,0.399
		c-0.233,0.171-0.351,0.398-0.351,0.685c0,0.261,0.111,0.483,0.331,0.668c0.278,0.237,0.957,0.482,2.033,0.738
		c1.077,0.254,1.872,0.521,2.386,0.79c0.517,0.274,0.92,0.645,1.212,1.117c0.291,0.474,0.437,1.058,0.437,1.75
		c0,0.63-0.174,1.22-0.524,1.77c-0.35,0.549-0.844,0.959-1.483,1.226c-0.64,0.269-1.438,0.401-2.391,0.401
		c-1.389,0-2.455-0.319-3.199-0.962C186.204,182.958,185.762,182.025,185.616,180.799L185.616,180.799z M200.697,184.359v-10.985
		h8.133v1.856h-5.908v2.439h5.493v1.856h-5.493v2.977h6.122v1.856H200.697z M210.901,184.359v-10.985h3.331l1.97,7.493l1.946-7.493
		h3.34v10.985h-2.056l-0.007-8.648l-2.168,8.648h-2.138l-2.156-8.648l-0.007,8.648H210.901z M227.976,173.374h4.395
		c0.872,0,1.519,0.035,1.946,0.106c0.429,0.074,0.811,0.226,1.147,0.452c0.338,0.231,0.619,0.535,0.844,0.916
		c0.227,0.382,0.339,0.812,0.339,1.284c0,0.512-0.139,0.984-0.415,1.412c-0.275,0.429-0.651,0.749-1.124,0.964
		c0.666,0.197,1.178,0.529,1.539,1c0.357,0.471,0.536,1.023,0.536,1.659c0,0.501-0.115,0.987-0.347,1.46
		c-0.233,0.473-0.551,0.852-0.954,1.137c-0.401,0.28-0.898,0.455-1.489,0.521c-0.368,0.04-1.261,0.064-2.674,0.074h-3.743V173.374z
		 M230.201,175.199v2.532h1.452c0.862,0,1.4-0.014,1.609-0.039c0.378-0.043,0.678-0.174,0.896-0.391
		c0.217-0.217,0.324-0.502,0.324-0.854c0-0.34-0.095-0.614-0.281-0.825c-0.188-0.213-0.466-0.342-0.834-0.385
		c-0.219-0.025-0.852-0.038-1.893-0.038H230.201z M230.201,179.556v2.946h2.057c0.798,0,1.306-0.022,1.521-0.066
		c0.33-0.062,0.599-0.208,0.806-0.439c0.208-0.236,0.313-0.546,0.313-0.937c0-0.332-0.079-0.61-0.241-0.841
		c-0.158-0.23-0.391-0.399-0.692-0.505c-0.301-0.104-0.959-0.158-1.969-0.158H230.201z M239.059,184.359v-10.985h8.131v1.856h-5.907
		v2.439h5.494v1.856h-5.494v2.977h6.123v1.856H239.059z M249.292,184.359v-10.985h2.153l4.521,7.362v-7.362h2.057v10.985h-2.223
		l-4.452-7.222v7.222H249.292z M260.373,184.359v-10.985h8.133v1.856h-5.908v2.439h5.493v1.856h-5.493v2.977h6.122v1.856H260.373z
		 M270.607,184.359v-10.985h7.55v1.856h-5.325v2.608h4.604v1.855h-4.604v4.665H270.607z M279.904,184.359v-10.985h2.224v10.985
		H279.904z M279.551,172.375l1.044-2.24h2.347l-2.071,2.24H279.551z M291.271,180.308l2.149,0.659
		c-0.33,1.211-0.881,2.108-1.647,2.696c-0.767,0.586-1.739,0.88-2.918,0.88c-1.46,0-2.659-0.499-3.601-1.496
		c-0.938-0.997-1.408-2.36-1.408-4.092c0-1.828,0.473-3.25,1.417-4.264c0.942-1.012,2.186-1.519,3.725-1.519
		c1.346,0,2.437,0.399,3.276,1.194c0.5,0.471,0.875,1.146,1.125,2.027l-2.194,0.522c-0.131-0.567-0.401-1.018-0.813-1.348
		c-0.415-0.329-0.916-0.494-1.504-0.494c-0.816,0-1.479,0.291-1.984,0.878c-0.509,0.582-0.762,1.528-0.762,2.839
		c0,1.386,0.249,2.375,0.748,2.963c0.502,0.592,1.15,0.886,1.951,0.886c0.591,0,1.1-0.188,1.524-0.563
		C290.78,181.703,291.087,181.114,291.271,180.308L291.271,180.308z M295.248,184.359v-10.985h2.225v10.985H295.248z
		 M299.128,178.933c0-1.121,0.169-2.062,0.503-2.824c0.248-0.561,0.591-1.063,1.022-1.509c0.433-0.444,0.906-0.774,1.42-0.992
		c0.687-0.289,1.476-0.435,2.371-0.435c1.621,0,2.915,0.505,3.89,1.509c0.972,1.008,1.457,2.405,1.457,4.2
		c0,1.776-0.482,3.168-1.447,4.171c-0.964,1.004-2.256,1.506-3.869,1.506c-1.634,0-2.936-0.499-3.9-1.498
		C299.611,182.062,299.128,180.687,299.128,178.933L299.128,178.933z M301.414,178.858c0,1.245,0.289,2.189,0.864,2.834
		c0.575,0.642,1.307,0.965,2.191,0.965c0.888,0,1.614-0.32,2.184-0.957c0.568-0.64,0.853-1.597,0.853-2.872
		c0-1.261-0.276-2.202-0.831-2.821c-0.553-0.621-1.287-0.931-2.205-0.931c-0.915,0-1.654,0.315-2.215,0.941
		C301.695,176.646,301.414,177.592,301.414,178.858L301.414,178.858z M164.707,201.501h-2.396L161.362,199h-4.407l-0.913,2.501
		h-2.353l4.266-10.987h2.35L164.707,201.501z M160.641,197.143l-1.526-4.065l-1.484,4.065H160.641z M165.952,201.501v-10.895h2.225
		v9.037h5.508v1.857H165.952z M175.187,201.501v-10.987h2.225v10.987H175.187z M179.496,201.501v-10.987h3.332l1.969,7.493
		l1.946-7.493h3.34v10.987h-2.056l-0.007-8.649l-2.167,8.649h-2.138l-2.156-8.649l-0.007,8.649H179.496z M192.309,201.501v-10.987
		h8.132v1.857h-5.908v2.439h5.493v1.856h-5.493v2.977h6.123v1.857H192.309z M202.543,201.501v-10.987h2.154l4.521,7.363v-7.363
		h2.057v10.987h-2.223l-4.453-7.223v7.223H202.543z M216.095,201.501v-9.13h-3.253v-1.857h8.716v1.857h-3.237v9.13H216.095z
		 M231.756,201.501h-2.396L228.412,199h-4.408l-0.912,2.501h-2.353l4.266-10.987h2.35L231.756,201.501z M227.689,197.143
		l-1.526-4.065l-1.483,4.065H227.689z M239.968,197.451l2.148,0.659c-0.33,1.21-0.88,2.107-1.647,2.696
		c-0.768,0.585-1.738,0.88-2.918,0.88c-1.461,0-2.659-0.5-3.601-1.496c-0.939-0.998-1.409-2.361-1.409-4.093
		c0-1.827,0.473-3.25,1.416-4.263c0.944-1.014,2.188-1.519,3.728-1.519c1.345,0,2.437,0.398,3.275,1.193
		c0.501,0.471,0.874,1.146,1.125,2.028l-2.194,0.521c-0.13-0.567-0.401-1.019-0.813-1.348c-0.413-0.33-0.915-0.493-1.504-0.493
		c-0.814,0-1.478,0.291-1.983,0.877c-0.509,0.583-0.763,1.529-0.763,2.838c0,1.387,0.251,2.376,0.75,2.965
		c0.501,0.591,1.15,0.886,1.951,0.886c0.59,0,1.1-0.188,1.524-0.563C239.476,198.844,239.783,198.255,239.968,197.451z
		 M235.142,204.432v-0.88c0.518,0.053,0.99,0.082,1.422,0.082c0.446,0,0.777-0.079,0.993-0.24c0.165-0.12,0.247-0.274,0.247-0.466
		c0-0.169-0.076-0.316-0.232-0.442c-0.156-0.125-0.396-0.187-0.721-0.187c-0.322,0-0.65,0.051-0.987,0.15l0.197-0.744
		c0.389-0.139,0.807-0.204,1.258-0.204c0.627,0,1.1,0.138,1.425,0.412c0.324,0.275,0.488,0.61,0.488,1.004
		c0,0.443-0.179,0.799-0.541,1.074c-0.485,0.376-1.181,0.563-2.085,0.563C235.96,204.554,235.473,204.514,235.142,204.432
		L235.142,204.432z M253.918,201.501h-2.396L250.574,199h-4.408l-0.912,2.501h-2.353l4.266-10.987h2.35L253.918,201.501z
		 M249.853,197.143l-1.527-4.065l-1.483,4.065H249.853z M246.829,189.534h-0.968c-0.005-0.116-0.007-0.205-0.007-0.27
		c0-0.523,0.128-0.928,0.384-1.21c0.253-0.283,0.582-0.424,0.981-0.424c0.178,0,0.339,0.018,0.489,0.057
		c0.151,0.038,0.424,0.145,0.82,0.321c0.398,0.177,0.708,0.267,0.937,0.267c0.159,0,0.292-0.052,0.399-0.151
		c0.109-0.103,0.176-0.271,0.207-0.509h0.967c-0.005,0.683-0.132,1.169-0.376,1.462c-0.249,0.295-0.565,0.441-0.955,0.441
		c-0.171,0-0.337-0.019-0.5-0.055c-0.116-0.03-0.402-0.138-0.859-0.318c-0.461-0.183-0.793-0.272-1.003-0.272
		c-0.161,0-0.284,0.049-0.373,0.148C246.88,189.119,246.834,189.29,246.829,189.534L246.829,189.534z M254.642,196.075
		c0-1.12,0.17-2.062,0.505-2.824c0.247-0.559,0.59-1.063,1.022-1.508c0.432-0.446,0.905-0.775,1.419-0.993
		c0.686-0.288,1.476-0.434,2.371-0.434c1.621,0,2.916,0.502,3.89,1.509c0.972,1.007,1.458,2.405,1.458,4.198
		c0,1.777-0.483,3.169-1.448,4.171c-0.964,1.006-2.255,1.507-3.869,1.507c-1.634,0-2.936-0.498-3.899-1.499
		C255.125,199.205,254.643,197.829,254.642,196.075L254.642,196.075z M256.929,196c0,1.245,0.288,2.188,0.864,2.834
		c0.575,0.642,1.306,0.963,2.191,0.963c0.887,0,1.614-0.318,2.184-0.955c0.567-0.64,0.853-1.597,0.853-2.873
		c0-1.261-0.276-2.201-0.831-2.82c-0.554-0.621-1.287-0.931-2.205-0.931c-0.915,0-1.655,0.315-2.216,0.94
		C257.209,193.789,256.929,194.735,256.929,196z"/>
	<path id="path2034" fill="#9D1012" d="M185.352,95.692h44.28c17.866,0,32.484,14.618,32.484,32.485l0,0
		c0,17.867-14.618,32.484-32.484,32.484h-44.28c-17.867,0-32.484-14.618-32.484-32.484l0,0
		C152.868,110.311,167.485,95.692,185.352,95.692z M185.352,99.172h44.28c15.958,0,29.005,13.052,29.005,29.005l0,0
		c0,15.953-13.047,29.005-29.005,29.005h-44.28c-15.957,0-29.005-13.052-29.005-29.005l0,0
		C156.347,112.224,169.395,99.172,185.352,99.172L185.352,99.172z"/>
	<path fill="#E30016" d="M231.807,93.083h-44.28c-17.867,0-32.484,14.618-32.484,32.485s14.618,32.485,32.484,32.485h44.28
		c17.866,0,32.484-14.619,32.484-32.485S249.673,93.083,231.807,93.083z M231.807,154.573h-44.28
		c-15.957,0-29.005-13.052-29.005-29.005c0-15.954,13.048-29.005,29.005-29.005h44.28c15.957,0,29.006,13.052,29.006,29.005
		C260.813,141.521,247.764,154.573,231.807,154.573z"/>
	<path fill="#FFFFFF" d="M231.807,96.563h-44.28c-15.957,0-29.005,13.052-29.005,29.005c0,15.953,13.048,29.005,29.005,29.005h44.28
		c15.957,0,29.006-13.052,29.006-29.005C260.813,109.614,247.764,96.563,231.807,96.563z"/>
	<path id="path2038" fill="#006DAA" d="M187.949,105.748h-3.997c-11.595,0-21.09,9.49-21.09,21.089v0.004
		c0,11.6,9.495,21.09,21.09,21.09h3.997l1.74-1.67l-1.74-6.476h-3.384c-7.342,0-12.508-5.697-12.508-12.634v-0.005
		c0-6.941,5.175-12.63,12.508-12.63h3.384l1.74-1.613L187.949,105.748z"/>
	<path id="path2040" fill="#006DAA" d="M231.732,105.748l-5.593-1.74l-1.757,1.74v42.183h7.35l0.444-0.008l1.739-1.74l-1.739-6.402
		v-7.964v-0.726h14.14c-0.657,2.653-5.264,6.111-5.268,6.102l-0.148-0.209l-1.739,1.718v0.047l4.463,5.48
		c5.545-3.81,9.198-10.19,9.198-17.388v-0.004C252.822,115.238,242.784,109.188,231.732,105.748L231.732,105.748z M233.047,122.91
		v-8.398h2.744c4.666,0,8.254,3.523,9.577,8.398H233.047z"/>
	<path id="path2042" fill="#006DAA" d="M214.709,126.837c3.454,0.091,6.246,2.94,6.246,6.411v4.136
		c0,5.802-4.741,10.543-10.542,10.543h-18.467v-21.09v-21.089h18.467c5.801,0,10.542,4.741,10.542,10.542v4.136
		C220.955,123.897,218.163,126.746,214.709,126.837z M200.458,122.532h11.986v-4.35c0-2.375-1.287-4.34-2.844-4.34h-9.142V122.532z
		 M200.458,139.785h11.986v-4.349c0-2.375-1.287-4.341-2.844-4.341h-9.142V139.785z"/>
	<path id="path2045" fill="#003C6E" d="M189.688,104.008h-3.997c-11.595,0-21.09,9.49-21.09,21.09v0.004
		c0,11.6,9.495,21.09,21.09,21.09h3.997v-8.147h-3.384c-7.342,0-12.508-5.697-12.508-12.634v-0.005
		c0-6.941,5.175-12.63,12.508-12.63h3.384V104.008z"/>
	<path id="path2047" fill="#003C6E" d="M233.473,104.008h-7.35v42.184h7.35l0.443-0.009v-8.142v-7.963v-0.726h12.4
		c-0.845,3.397-2.779,6.167-5.416,7.611v0.047l4.463,5.48c5.545-3.81,9.199-10.19,9.199-17.389v-0.004
		C254.563,113.498,245.067,104.008,233.473,104.008L233.473,104.008z M233.916,121.17v-8.398h2.744c4.667,0,8.255,3.523,9.577,8.398
		H233.916z"/>
	<path id="path2049" fill="#003C6E" d="M216.449,125.098c3.453,0.091,6.245,2.94,6.245,6.411v4.136
		c0,5.802-4.74,10.542-10.541,10.542h-18.468v-21.089v-21.09h18.468c5.801,0,10.541,4.741,10.541,10.542v4.136
		C222.694,122.158,219.902,125.007,216.449,125.098z M202.197,120.792h11.986v-4.35c0-2.375-1.287-4.341-2.845-4.341h-9.142V120.792
		z M202.197,138.045h11.986v-4.349c0-2.375-1.287-4.341-2.845-4.341h-9.142V138.045z"/>
	<path id="path2053" fill="#003C6E" d="M265.082,101.873v-5.685h2.275c0.574,0,0.987,0.052,1.248,0.157
		c0.262,0.1,0.466,0.283,0.622,0.543c0.157,0.261,0.235,0.557,0.235,0.896c0,0.426-0.118,0.779-0.354,1.057
		c-0.234,0.274-0.586,0.452-1.056,0.521c0.234,0.144,0.426,0.305,0.574,0.479c0.157,0.174,0.355,0.483,0.612,0.922l0.656,1.109
		h-1.291l-0.773-1.24c-0.279-0.444-0.47-0.718-0.575-0.835c-0.104-0.113-0.208-0.191-0.321-0.235
		c-0.117-0.044-0.3-0.065-0.553-0.065h-0.213v2.375H265.082z M266.17,98.594h0.796c0.522,0,0.84-0.022,0.97-0.069
		c0.127-0.043,0.23-0.126,0.304-0.239c0.075-0.113,0.109-0.257,0.109-0.426c0-0.196-0.048-0.348-0.147-0.466
		c-0.092-0.117-0.226-0.191-0.404-0.222c-0.088-0.013-0.348-0.021-0.787-0.021h-0.84V98.594z"/>
	<path id="path2055" fill="none" stroke="#003C6E" stroke-width="0.7087" d="M267.289,94.005c2.887,0,5.222,2.335,5.222,5.224
		c0,2.892-2.335,5.227-5.222,5.227c-2.894,0-5.229-2.335-5.229-5.227C262.06,96.341,264.396,94.005,267.289,94.005z"/>
</g>
</svg>
