<?xml version="1.0" encoding="utf-8"?>
<!-- Generator: Adobe Illustrator 16.0.2, SVG Export Plug-In . SVG Version: 6.00 Build 0)  -->
<!DOCTYPE svg PUBLIC "-//W3C//DTD SVG 1.1//EN" "http://www.w3.org/Graphics/SVG/1.1/DTD/svg11.dtd">
<svg version="1.1"
	 id="svg2687" xmlns:dc="http://purl.org/dc/elements/1.1/" xmlns:rdf="http://www.w3.org/1999/02/22-rdf-syntax-ns#" xmlns:svg="http://www.w3.org/2000/svg" xmlns:inkscape="http://www.inkscape.org/namespaces/inkscape" xmlns:sodipodi="http://sodipodi.sourceforge.net/DTD/sodipodi-0.dtd" xmlns:cc="http://creativecommons.org/ns#" inkscape:version="1.0.2-2 (e86c870879, 2021-01-15)" sodipodi:docname="credz-seeklogo.com.svg"
	 xmlns="http://www.w3.org/2000/svg" xmlns:xlink="http://www.w3.org/1999/xlink" x="0px" y="0px" width="300px" height="148px"
	 viewBox="270.945 223.638 300 148" enable-background="new 270.945 223.638 300 148" xml:space="preserve">
<sodipodi:namedview  pagecolor="#ffffff" bordercolor="#666666" inkscape:cx="420.94489" showgrid="false" inkscape:zoom="1.444709" inkscape:cy="297.63779" id="namedview2689" guidetolerance="10" borderopacity="1" objecttolerance="10" gridtolerance="10" inkscape:pageopacity="0" inkscape:pageshadow="2" inkscape:window-x="-8" inkscape:window-width="1920" inkscape:window-height="1027" inkscape:window-maximized="1" inkscape:window-y="-8" inkscape:current-layer="svg2687">
	</sodipodi:namedview>
<path fill="#FFFFFF" d="M570.945,359.638c0,6.627-5.373,12-12,12h-276c-6.627,0-12-5.373-12-12v-124c0-6.627,5.373-12,12-12h276
	c6.627,0,12,5.373,12,12V359.638z"/>
<g>
	<path fill="#002E4C" d="M526.518,276.298c-3.703-0.037-32.911-0.208-34.041,0.061l-0.945,10.579l22.986,0.015l-11.584,9.901
		c-2.589,2.423-9.91,8.067-11.688,10.049c-2.089,2.329-3.928,5.557-2.296,8.892c0.691,1.412,1.699,2.377,3.387,2.846
		c2.519,0.699,9.081,0.365,12.075,0.365c2.076,0,23.437,0.142,24.896-0.065l1.012-10.632h-22.963
		c0.173-0.304,1.305-1.252,1.652-1.535l19.011-16.056c0.727-0.536,1.073-0.998,1.727-1.562c2.711-2.339,2.52-3.176,3.705-5.594
		v-2.701C532.288,278.668,532.292,276.355,526.518,276.298z"/>
	<path fill="#002E4C" d="M393.806,278.716c-4.927-3.292-10.507-2.459-17.054-2.46c-6.521,0-13.282,0.183-19.772-0.008l-4.355,42.76
		l11.921-0.003l1.277-13.323l14.083-0.023l5.697,13.35c2.382-0.009,10.758,0.306,12.44-0.106c-1.037-3.239-4.341-9.878-5.786-13.808
		c3.778-3.25,5.73-5.948,6.887-12.695C400.266,285.851,397.471,281.166,393.806,278.716z M387.573,291.3
		c-0.242,1.706-1.256,2.965-2.726,3.431c-1.47,0.466-15.752,0.236-17.947,0.226l0.82-8.025c4.01-0.146,8.28-0.012,12.318-0.012
		C382.612,286.919,388.333,285.959,387.573,291.3z"/>
	<path fill="#002E4C" d="M329.45,308.298c-3.901,0-6.649,0.648-8.228-2.277c-2.657-4.925-0.952-18.973,4.934-19.104
		c4.638-0.103,24.94,0.276,26.803-0.083l1.018-10.566c-3.366,0.005-29.547-0.223-32.146,0.163
		c-9.23,1.371-11.72,11.574-12.902,19.501c-1.155,7.748-0.97,20.629,8.64,22.727c3.536,0.771,11.837,0.331,15.9,0.331
		c5.405,0.002,10.866,0.077,16.264-0.005l0,0l1.096-10.69C343.693,308.319,336.569,308.298,329.45,308.298z"/>
	<path fill="#002E4C" d="M480.664,276.572c-3.229-0.728-26.532-0.222-31.977-0.313l-4.301,42.743
		c5.356-0.12,10.837-0.018,16.195-0.01c4.373,0.005,11.82,0.425,15.819-0.281c8.424-1.484,11.875-10.044,13.008-19.288
		C490.372,291.572,490.409,278.769,480.664,276.572z M472.275,308.313c-4.743,0.118-10.743,0.222-15.47-0.03l2.085-21.339
		c2.487-0.073,14.017-0.305,15.691,0.147C480.956,288.812,478.765,308.152,472.275,308.313z"/>
	<path fill="#002E4C" d="M433.369,308.302c-4.287,0-14.961,0.211-18.439,0.003c-2.854-0.17-3.313-3.141-2.892-5.955l28.084-0.027
		l0.935-9.354l-28.017,0.015c0.283-2.701,1.499-5.194,3.449-5.855c1.26-0.428,24.618-0.058,28.107-0.208
		c0.275-1.325,1.151-9.592,1.021-10.634c-5.361-0.003-10.723,0.002-16.083,0.002c-4.533,0-11.739-0.418-15.933,0.233
		c-8.468,1.313-11.966,10.279-13.047,19.34c-1.143,9.581-0.519,21.355,8.548,22.92c2.844,0.492,28.716,0.204,32.379,0.227l0,0
		l1.03-10.67C439.746,308.11,436.209,308.302,433.369,308.302z"/>
</g>
</svg>
