<?xml version="1.0" encoding="UTF-8" standalone="no"?>
<!-- Generator: Adobe Illustrator 16.0.2, SVG Export Plug-In . SVG Version: 6.00 Build 0)  -->

<svg
   version="1.1"
   id="Layer_1"
   x="0px"
   y="0px"
   width="300px"
   height="148px"
   viewBox="498 574 300 148"
   enable-background="new 498 574 300 148"
   xml:space="preserve"
   sodipodi:docname="diners-club.svg"
   inkscape:version="1.1.2 (b8e25be833, 2022-02-05)"
   xmlns:inkscape="http://www.inkscape.org/namespaces/inkscape"
   xmlns:sodipodi="http://sodipodi.sourceforge.net/DTD/sodipodi-0.dtd"
   xmlns="http://www.w3.org/2000/svg"
   xmlns:svg="http://www.w3.org/2000/svg"><defs
   id="defs2654">
	
	
	
	
	
	
</defs><sodipodi:namedview
   id="namedview2652"
   pagecolor="#505050"
   bordercolor="#ffffff"
   borderopacity="1"
   inkscape:pageshadow="0"
   inkscape:pageopacity="0"
   inkscape:pagecheckerboard="1"
   showgrid="false"
   inkscape:zoom="3.94"
   inkscape:cx="150"
   inkscape:cy="74.111675"
   inkscape:window-width="1920"
   inkscape:window-height="1009"
   inkscape:window-x="-8"
   inkscape:window-y="-8"
   inkscape:window-maximized="1"
   inkscape:current-layer="Layer_1" />
<path
   fill="#FFFFFF"
   d="M798,710c0,6.627-5.373,12-12,12H510c-6.627,0-12-5.373-12-12V586c0-6.627,5.373-12,12-12h276  c6.627,0,12,5.373,12,12V710z"
   id="path2583" />
<path
   d="m 611.645,661.778 c -0.718,0 -1.378,-0.488 -1.378,-1.493 0,-1.005 0.661,-1.551 1.35,-1.551 0.947,0 1.436,0.948 1.436,1.579 -10e-4,0.576 -0.461,1.465 -1.408,1.465 z"
   id="path2585" /><path
   fill="#2656a0"
   d="m 664.701,652.855 c 15.677,0 28.386,-12.708 28.386,-28.386 0,-15.677 -12.709,-28.386 -28.386,-28.386 h -35.883 c -15.677,0 -28.386,12.709 -28.386,28.386 0,15.678 12.709,28.386 28.386,28.386 z"
   id="path2587"
   style="fill:#808080" /><g
   id="g2591">
		<circle
   fill="#ffffff"
   cx="628.81799"
   cy="624.46997"
   r="27.752001"
   id="circle2589" />
	</g><path
   fill="#2656a0"
   d="m 623.216,608.448 c -6.619,2.314 -11.367,8.614 -11.367,16.022 0,7.421 4.764,13.73 11.401,16.034 z"
   id="path2593"
   style="fill:#808080" /><path
   fill="#2656a0"
   d="m 645.786,624.47 c 0,7.421 -4.764,13.73 -11.401,16.034 l 0.035,-32.056 c 6.619,2.315 11.366,8.614 11.366,16.022"
   id="path2595"
   style="fill:#808080" /><g
   id="g2647"
   style="fill:#666666">
		<path
   d="m 612.219,674.553 c -1.12,1.694 -2.383,3.272 -3.991,3.272 -1.349,0 -1.349,-1.263 -1.349,-1.779 0,-1.35 2.268,-8.47 2.268,-9.272 0,-0.604 -0.23,-0.747 -1.809,-0.747 v -0.459 c 1.091,-0.058 3.474,-0.518 4.593,-0.718 l 0.086,0.057 -2.525,9.244 c -0.115,0.402 -0.46,1.551 -0.46,1.896 0,0.201 0.202,0.43 0.46,0.43 0.344,0 1.177,-0.574 2.354,-2.238 z"
   id="path2597"
   style="fill:#666666" />
		<path
   d="m 625.71,674.523 c -1.436,1.924 -2.44,3.245 -3.991,3.245 -1.32,0 -1.378,-0.861 -1.378,-1.694 0,-0.688 2.125,-7.693 2.125,-8.842 0,-0.517 -0.172,-0.918 -0.718,-0.918 -1.378,0 -3.187,2.469 -4.221,4.076 -1.321,1.979 -1.693,3.215 -2.87,7.118 h -2.154 c 0.89,-3.242 2.813,-9.96 2.813,-10.563 0,-0.431 -0.287,-0.747 -1.837,-0.747 v -0.459 c 1.55,-0.286 3.101,-0.573 4.65,-0.89 l 0.086,0.058 -1.837,6 0.058,0.057 c 1.349,-2.124 3.99,-6.114 6.374,-6.114 1.32,0 1.98,0.689 1.98,1.896 0,1.233 -2.297,8.324 -2.297,9.186 0,0.432 0.402,0.488 0.459,0.488 0.575,0 1.292,-0.918 2.354,-2.269 z"
   id="path2599"
   style="fill:#666666" />
		<path
   d="m 636.789,677.509 2.326,-8.382 c 0.286,-1.063 0.459,-2.038 0.459,-2.297 0,-0.401 -0.144,-0.86 -1.033,-0.86 -0.316,0 -0.632,0.086 -0.947,0.143 v -0.487 c 1.464,-0.201 3.158,-0.575 4.45,-0.775 l 0.086,0.058 -1.407,5.712 0.058,0.059 0.229,-0.575 c 0.948,-1.894 3.13,-5.253 4.938,-5.253 0.66,0 1.377,0.431 1.377,1.406 0,1.493 -1.033,1.493 -1.349,1.493 -1.235,0 -0.804,-1.034 -1.492,-1.034 -0.891,0 -2.613,3.187 -2.842,3.618 -1.091,2.066 -1.493,3.359 -2.67,7.176 h -2.183 z"
   id="path2601"
   style="fill:#666666" />
		<path
   d="m 646.024,673.317 c 0.201,1.265 0.66,3.905 2.985,3.905 1.607,0 2.067,-1.377 2.067,-2.326 0,-1.894 -3.416,-4.65 -3.416,-6.86 0,-0.89 0.401,-3.187 3.444,-3.187 1.292,0 1.866,0.488 2.728,0.488 0.488,0 0.661,-0.288 0.804,-0.517 h 0.402 l -0.574,3.99 h -0.46 c -0.143,-1.637 -0.832,-3.302 -2.698,-3.302 -0.632,0 -1.55,0.258 -1.55,1.665 0,1.809 3.502,4.362 3.502,6.804 0,3.13 -2.67,3.847 -4.278,3.847 -0.861,0 -2.009,-0.545 -2.842,-0.545 -0.401,0 -0.517,0.287 -0.689,0.603 h -0.459 l 0.574,-4.565 z"
   id="path2603"
   style="fill:#666666" />
		<path
   d="m 677.597,664.074 c -0.058,-0.804 -0.316,-4.651 -4.421,-4.651 -5.742,0 -8.67,6.947 -8.67,11.168 0,3.76 1.579,6.144 4.995,6.144 3.244,0 5.254,-2.039 6.631,-3.387 l 0.488,0.401 c -1.063,1.263 -3.616,4.277 -7.808,4.277 -3.331,0 -7.521,-2.009 -7.521,-7.751 0,-5.541 5.08,-11.886 11.654,-11.886 2.067,0 3.818,0.688 4.479,0.688 0.832,0 1.004,-0.344 1.147,-0.631 h 0.603 l -1.063,5.713 z"
   id="path2605"
   style="fill:#666666" />
		<path
   d="m 684.116,674.237 c -1.465,2.21 -2.585,3.588 -4.364,3.588 -1.263,0 -1.377,-0.976 -1.377,-1.779 0,-0.603 4.162,-15.589 4.162,-16.191 0,-0.747 -1.206,-0.747 -1.952,-0.717 v -0.46 c 1.492,-0.173 2.986,-0.431 4.478,-0.774 l 0.145,0.143 -4.335,16.622 c -0.058,0.259 -0.287,1.034 -0.287,1.35 0,0.173 0,0.574 0.431,0.574 0.718,0 1.32,-0.805 2.728,-2.613 z"
   id="path2607"
   style="fill:#666666" />
		<path
   d="m 697.127,674.41 c -1.81,2.611 -2.555,3.358 -3.99,3.358 -1.293,0 -1.349,-1.062 -1.349,-1.493 0,-0.517 0.573,-2.928 1.234,-5.282 h -0.087 c -1.953,3.245 -4.077,6.833 -6.659,6.833 -1.034,0 -1.579,-0.431 -1.579,-1.694 0,-1.263 2.181,-8.497 2.181,-9.271 0,-0.834 -0.545,-0.834 -1.723,-0.834 v -0.401 c 1.435,-0.172 2.872,-0.431 4.308,-0.775 l 0.085,0.058 -2.612,10.422 c -0.086,0.373 0,0.975 0.604,0.975 1.234,0 3.042,-2.698 4.019,-4.19 1.407,-2.125 2.038,-3.933 3.158,-7.005 h 2.124 l -2.268,8.584 c -0.173,0.575 -0.546,1.837 -0.546,2.267 0,0.145 0.028,0.461 0.345,0.461 0.545,0 1.349,-1.006 2.354,-2.269 z"
   id="path2609"
   style="fill:#666666" />
		<path
   d="m 580.482,699.142 c 1.406,-0.259 1.837,-0.344 2.325,-2.125 l 3.419,-12.016 c 0.172,-0.575 0.316,-1.264 0.316,-1.78 0,-1.004 -0.775,-1.091 -2.009,-1.234 v -0.459 h 7.09 v 0.459 c -1.406,0.258 -1.867,0.316 -2.354,2.124 l -3.419,12.046 c -0.172,0.573 -0.316,1.147 -0.316,1.837 0,0.918 0.718,1.005 1.952,1.148 v 0.458 h -7.005 z"
   id="path2611"
   style="fill:#666666" />
		<path
   d="m 602.526,696.614 c -1.436,1.924 -2.44,3.245 -3.991,3.245 -1.32,0 -1.378,-0.861 -1.378,-1.694 0,-0.689 2.125,-7.693 2.125,-8.842 0,-0.517 -0.172,-0.92 -0.718,-0.92 -1.377,0 -3.187,2.47 -4.22,4.078 -1.32,1.979 -1.693,3.214 -2.871,7.118 h -2.153 c 0.889,-3.243 2.813,-9.961 2.813,-10.563 0,-0.431 -0.287,-0.746 -1.837,-0.746 v -0.46 c 1.55,-0.287 3.101,-0.574 4.651,-0.89 l 0.086,0.057 -1.837,6.001 0.058,0.057 c 1.349,-2.124 3.99,-6.114 6.373,-6.114 1.321,0 1.98,0.689 1.98,1.896 0,1.234 -2.296,8.324 -2.296,9.186 0,0.432 0.402,0.488 0.459,0.488 0.574,0 1.292,-0.918 2.354,-2.269 z"
   id="path2613"
   style="fill:#666666" />
		<path
   d="m 610.168,688.231 h -2.411 l -2.526,9.561 c -0.029,0.086 -0.029,0.145 -0.029,0.229 0,0.259 0.145,0.488 0.46,0.488 0.574,0 1.579,-1.35 2.297,-2.269 l 0.373,0.201 c -1.464,2.211 -2.583,3.474 -4.076,3.474 -0.575,0 -1.378,-0.288 -1.378,-1.148 0,-0.431 0.545,-2.182 0.66,-2.641 l 2.067,-7.896 h -2.124 c -0.029,-0.172 -0.029,-0.314 0.057,-0.458 0.173,-0.26 0.977,-0.46 1.464,-0.718 0.948,-0.488 2.326,-1.78 3.129,-2.785 0.115,-0.144 0.229,-0.401 0.488,-0.345 0.201,-0.057 0.258,0.201 0.201,0.432 l -0.804,2.956 h 2.296 z"
   id="path2615"
   style="fill:#666666" />
		<path
   d="m 620.123,699.6 2.325,-8.383 c 0.287,-1.062 0.459,-2.037 0.459,-2.296 0,-0.401 -0.143,-0.861 -1.033,-0.861 -0.315,0 -0.632,0.087 -0.947,0.144 v -0.488 c 1.463,-0.201 3.158,-0.574 4.449,-0.774 l 0.086,0.057 -1.407,5.714 0.058,0.058 0.23,-0.574 c 0.947,-1.896 3.128,-5.254 4.938,-5.254 0.66,0 1.378,0.431 1.378,1.406 0,1.493 -1.033,1.493 -1.35,1.493 -1.234,0 -0.803,-1.033 -1.493,-1.033 -0.89,0 -2.612,3.186 -2.842,3.616 -1.091,2.067 -1.493,3.359 -2.67,7.177 h -2.181 z"
   id="path2617"
   style="fill:#666666" />
		<path
   d="m 643.154,696.614 c -1.435,1.924 -2.44,3.245 -3.99,3.245 -1.321,0 -1.378,-0.861 -1.378,-1.694 0,-0.689 2.125,-7.693 2.125,-8.842 0,-0.517 -0.172,-0.92 -0.717,-0.92 -1.378,0 -3.187,2.47 -4.22,4.078 -1.321,1.979 -1.694,3.214 -2.871,7.118 h -2.153 c 0.89,-3.243 2.814,-9.961 2.814,-10.563 0,-0.431 -0.288,-0.746 -1.838,-0.746 v -0.46 c 1.55,-0.287 3.101,-0.574 4.651,-0.89 l 0.086,0.057 -1.837,6.001 0.057,0.057 c 1.35,-2.124 3.991,-6.114 6.374,-6.114 1.321,0 1.98,0.689 1.98,1.896 0,1.234 -2.296,8.324 -2.296,9.186 0,0.432 0.402,0.488 0.459,0.488 0.574,0 1.292,-0.918 2.354,-2.269 z"
   id="path2619"
   style="fill:#666666" />
		<path
   d="m 663.578,688.231 h -2.409 l -2.528,9.561 c -0.028,0.086 -0.028,0.145 -0.028,0.229 0,0.259 0.145,0.488 0.46,0.488 0.574,0 1.579,-1.35 2.297,-2.269 l 0.373,0.201 c -1.464,2.211 -2.584,3.474 -4.077,3.474 -0.574,0 -1.377,-0.288 -1.377,-1.148 0,-0.431 0.545,-2.182 0.66,-2.641 l 2.066,-7.896 h -2.124 c -0.029,-0.172 -0.029,-0.314 0.058,-0.458 0.172,-0.26 0.976,-0.46 1.464,-0.718 0.946,-0.488 2.325,-1.78 3.13,-2.785 0.114,-0.144 0.229,-0.401 0.488,-0.345 0.201,-0.057 0.258,0.201 0.201,0.432 l -0.805,2.956 h 2.296 z"
   id="path2621"
   style="fill:#666666" />
		<path
   d="m 669.611,696.644 c -1.12,1.693 -2.383,3.272 -3.99,3.272 -1.35,0 -1.35,-1.263 -1.35,-1.779 0,-1.35 2.269,-8.469 2.269,-9.273 0,-0.603 -0.23,-0.746 -1.81,-0.746 v -0.46 c 1.092,-0.057 3.475,-0.517 4.594,-0.717 l 0.086,0.057 -2.525,9.244 c -0.116,0.401 -0.46,1.551 -0.46,1.896 0,0.2 0.202,0.43 0.46,0.43 0.344,0 1.177,-0.574 2.354,-2.238 z"
   id="path2623"
   style="fill:#666666" />
		<path
   d="m 669.037,683.869 c -0.718,0 -1.379,-0.488 -1.379,-1.493 0,-1.005 0.661,-1.55 1.35,-1.55 0.948,0 1.436,0.947 1.436,1.578 -10e-4,0.575 -0.46,1.465 -1.407,1.465 z"
   id="path2625"
   style="fill:#666666" />
		<path
   d="m 695.101,696.614 c -1.436,1.924 -2.439,3.245 -3.99,3.245 -1.319,0 -1.378,-0.861 -1.378,-1.694 0,-0.689 2.125,-7.693 2.125,-8.842 0,-0.517 -0.173,-0.92 -0.719,-0.92 -1.377,0 -3.187,2.47 -4.221,4.078 -1.319,1.979 -1.692,3.214 -2.87,7.118 h -2.152 c 0.889,-3.243 2.813,-9.961 2.813,-10.563 0,-0.431 -0.288,-0.746 -1.838,-0.746 v -0.46 c 1.55,-0.287 3.101,-0.574 4.651,-0.89 l 0.085,0.057 -1.837,6.001 0.057,0.057 c 1.351,-2.124 3.991,-6.114 6.374,-6.114 1.32,0 1.98,0.689 1.98,1.896 0,1.234 -2.297,8.324 -2.297,9.186 0,0.432 0.402,0.488 0.46,0.488 0.574,0 1.292,-0.918 2.354,-2.269 z"
   id="path2627"
   style="fill:#666666" />
		<path
   d="m 713.867,697.113 c -1.466,2.21 -2.024,2.803 -3.804,2.803 -1.263,0 -1.378,-0.976 -1.378,-1.779 0,-0.604 4.163,-15.589 4.163,-16.191 0,-0.747 -1.206,-0.747 -1.952,-0.718 v -0.46 c 1.492,-0.172 2.985,-0.431 4.478,-0.775 l 0.145,0.145 -4.336,16.622 c -0.057,0.258 -0.286,1.033 -0.286,1.35 0,0.172 0,0.573 0.43,0.573 0.718,0 0.762,-0.019 2.167,-1.827 z"
   id="path2629"
   style="fill:#666666" />
		<path
   d="m 597.583,659.325 h -7.42 v 0 0.458 c 1.464,0.115 2.21,0.259 2.21,1.234 0,0.575 -0.229,1.465 -0.315,1.78 l -3.419,12.129 c -0.488,1.78 -0.919,1.865 -2.325,2.123 v 0.459 h 7.263 c 8.44,0 12.389,-4.749 12.389,-10.548 0,-3.014 -1.78,-7.635 -8.383,-7.635 z m -4.122,17.323 c -1.348,0 -2.038,-0.173 -2.038,-1.119 0,-0.46 0.373,-1.723 0.631,-2.67 l 3.361,-11.842 c 0.115,-0.4 0.23,-0.832 1.866,-0.832 5.082,0 5.497,3.531 5.497,6.431 10e-4,1.751 -0.273,10.032 -9.317,10.032 z"
   id="path2631"
   style="fill:#666666" />
		<path
   d="m 629.701,672.055 c 4.65,-0.659 7.35,-2.984 7.35,-5.253 0,-1.263 -0.89,-1.952 -2.354,-1.952 -4.047,0 -8.583,4.823 -8.583,8.928 0,1.809 0.918,4.048 3.933,4.048 2.87,0 5.483,-2.641 5.798,-3.101 l -0.344,-0.344 c -1.436,1.177 -2.642,2.153 -4.191,2.153 -1.206,0 -2.699,-0.66 -2.699,-2.612 0,-0.573 0.143,-1.149 0.287,-1.751 z m -0.115,-1.78 c 1.063,-2.555 3.014,-4.765 4.564,-4.765 0.717,0 1.004,0.545 1.004,1.147 0,0.229 -0.143,3.675 -6.057,4.88 z"
   id="path2633"
   style="fill:#666666" />
		<path
   d="m 706.886,663.953 c -2.584,0 -4.057,1.437 -5.004,2.929 l -0.057,-0.028 c 0.976,-3.244 1.847,-6.453 2.479,-8.808 l -0.143,-0.143 c -1.493,0.285 -2.957,0.487 -4.393,0.659 v 0.489 c 1.664,0.028 1.865,0.172 1.865,0.832 0,0.402 -0.257,1.119 -0.459,1.925 l -3.905,14.382 v 0.113 c 0,0.633 2.212,1.522 3.733,1.522 4.393,0 9.187,-4.966 9.187,-9.502 0,-2.094 -1.293,-4.37 -3.303,-4.37 z m -5.797,13.212 c -1.35,0 -1.365,-0.747 -1.35,-0.946 0.396,-5.102 2.869,-10.747 6.025,-10.747 1.81,0 1.983,2.334 1.983,3.225 0.001,2.411 -2.726,8.468 -6.658,8.468 z"
   id="path2635"
   style="fill:#666666" />
		<path
   d="m 612.923,694.146 c 4.65,-0.661 7.349,-2.986 7.349,-5.254 0,-1.263 -0.89,-1.952 -2.354,-1.952 -4.048,0 -8.583,4.823 -8.583,8.928 0,1.809 0.918,4.048 3.933,4.048 2.87,0 5.483,-2.642 5.798,-3.101 l -0.344,-0.344 c -1.436,1.177 -2.641,2.153 -4.191,2.153 -1.206,0 -2.699,-0.66 -2.699,-2.612 0,-0.574 0.144,-1.148 0.287,-1.752 z m -0.115,-1.78 c 1.063,-2.556 3.015,-4.766 4.565,-4.766 0.718,0 1.004,0.546 1.004,1.147 0,0.23 -0.143,3.675 -6.057,4.881 z"
   id="path2637"
   style="fill:#666666" />
		<path
   d="m 655.987,696.442 c -1.292,1.264 -1.866,1.981 -2.296,1.981 -0.23,0 -0.402,-0.172 -0.402,-0.373 0,-0.891 2.642,-10.68 2.728,-11.023 l -0.202,-0.087 -1.75,0.2 -0.086,0.087 -0.287,1.264 h -0.058 c -0.087,-0.806 -1.034,-1.551 -2.269,-1.551 -3.818,0 -8.21,5.368 -8.21,9.588 0,0.833 0.086,3.388 2.957,3.388 1.722,0 3.244,-0.861 5.627,-4.363 l 0.057,0.057 c -0.46,1.752 -0.603,2.383 -0.603,3.044 0,0.488 0,1.234 1.205,1.234 1.234,0 2.21,-1.033 3.933,-3.158 z m -8.698,2.068 c -0.775,0 -1.723,-0.518 -1.723,-2.038 0,-2.584 2.584,-8.899 5.943,-8.899 0.832,0 1.637,0.546 1.637,1.923 0,2.813 -2.814,9.014 -5.857,9.014 z"
   id="path2639"
   style="fill:#666666" />
		<path
   d="m 678.485,686.94 c -4.191,0 -8.439,4.621 -8.439,8.841 0,2.383 1.291,4.135 4.335,4.135 4.393,0 8.324,-5.196 8.324,-8.728 0,-1.894 -0.89,-4.248 -4.22,-4.248 z m -3.731,12.374 c -1.436,0 -2.296,-1.034 -2.296,-2.671 0,-3.388 2.61,-9.101 5.826,-9.101 1.379,0 2.011,1.264 2.011,2.756 0,3.073 -2.269,9.016 -5.541,9.016 z"
   id="path2641"
   style="fill:#666666" />
		<g
   id="g2645"
   style="fill:#666666">
			<path
   d="m 708.046,696.442 c -1.291,1.264 -1.866,1.981 -2.297,1.981 -0.229,0 -0.401,-0.172 -0.401,-0.373 0,-0.891 2.642,-10.68 2.728,-11.023 l -0.202,-0.087 -1.75,0.2 -0.086,0.087 -0.288,1.264 h -0.057 c -0.086,-0.806 -1.033,-1.551 -2.269,-1.551 -3.817,0 -8.21,5.368 -8.21,9.588 0,0.833 0.085,3.388 2.957,3.388 1.723,0 3.243,-0.861 5.626,-4.363 l 0.058,0.057 c -0.46,1.752 -0.604,2.383 -0.604,3.044 0,0.488 0,1.234 1.207,1.234 1.233,0 2.21,-1.033 3.932,-3.158 z m -8.699,2.068 c -0.775,0 -1.722,-0.518 -1.722,-2.038 0,-2.584 2.582,-8.899 5.942,-8.899 0.832,0 1.636,0.546 1.636,1.923 0,2.813 -2.812,9.014 -5.856,9.014 z"
   id="path2643"
   style="fill:#666666" />
		</g>
	</g>
</svg>
