<?xml version="1.0" encoding="utf-8"?>
<!-- Generator: Adobe Illustrator 16.0.2, SVG Export Plug-In . SVG Version: 6.00 Build 0)  -->
<!DOCTYPE svg PUBLIC "-//W3C//DTD SVG 1.1//EN" "http://www.w3.org/Graphics/SVG/1.1/DTD/svg11.dtd">
<svg version="1.1" id="Layer_1" xmlns="http://www.w3.org/2000/svg" xmlns:xlink="http://www.w3.org/1999/xlink" x="0px" y="0px"
	 width="300px" height="148px" viewBox="0 0 300 148" enable-background="new 0 0 300 148" xml:space="preserve">
<g id="guides">
</g>
<path fill="#F8130D" d="M336.154,298.412"/>
<g>
	<path fill="#FFFFFF" d="M299.93,136.37c0,6.627-5.373,12-12,12h-276c-6.627,0-12-5.373-12-12v-124c0-6.627,5.373-12,12-12h276
		c6.627,0,12,5.373,12,12V136.37z"/>
	<g>
		<g>
			
				<radialGradient id="SVGID_1_" cx="131.8354" cy="-14.7949" r="20.002" gradientTransform="matrix(1 0 0 1 23.0957 77.1631)" gradientUnits="userSpaceOnUse">
				<stop  offset="0.0056" style="stop-color:#FEF0DF"/>
				<stop  offset="0.0968" style="stop-color:#FEEBD3"/>
				<stop  offset="0.2456" style="stop-color:#FEDCB6"/>
				<stop  offset="0.4337" style="stop-color:#FDC48A"/>
				<stop  offset="0.6534" style="stop-color:#FDA353"/>
				<stop  offset="0.8971" style="stop-color:#FE7918"/>
				<stop  offset="1" style="stop-color:#FF6600"/>
			</radialGradient>
			<path fill="url(#SVGID_1_)" d="M154.959,42.593c-11.184,0-20.255,8.736-20.255,19.519c0,11.461,8.678,20.031,20.255,20.031
				c11.287,0,20.199-8.682,20.199-19.806C175.156,51.278,166.305,42.593,154.959,42.593z"/>
			<path d="M39.971,43.305h-10.89v37.98h10.833c5.746,0,9.903-1.361,13.55-4.383c4.326-3.585,6.892-8.998,6.892-14.587
				C60.355,51.102,51.979,43.305,39.971,43.305z M48.631,71.831c-2.342,2.113-5.356,3.025-10.146,3.025h-1.99V49.737h1.99
				c4.79,0,7.689,0.855,10.146,3.074c2.563,2.278,4.09,5.806,4.09,9.448C52.721,65.911,51.193,69.561,48.631,71.831z"/>
			<rect x="63.774" y="43.305" width="7.401" height="37.98"/>
			<path d="M89.294,57.875c-4.448-1.647-5.757-2.735-5.757-4.778c0-2.394,2.329-4.214,5.523-4.214c2.221,0,4.043,0.91,5.985,3.068
				l3.867-5.06c-3.188-2.798-7.005-4.219-11.166-4.219c-6.712,0-11.842,4.672-11.842,10.874c0,5.244,2.39,7.918,9.34,10.431
				c2.905,1.021,4.384,1.7,5.126,2.164c1.48,0.969,2.225,2.33,2.225,3.926c0,3.078-2.451,5.353-5.76,5.353
				c-3.53,0-6.375-1.762-8.086-5.066l-4.777,4.619c3.41,5.004,7.511,7.234,13.154,7.234c7.688,0,13.096-5.135,13.096-12.478
				C100.223,63.69,97.725,60.955,89.294,57.875z"/>
			<path d="M102.557,62.315c0,11.172,8.774,19.828,20.055,19.828c3.188,0,5.921-0.631,9.285-2.221v-8.715
				c-2.967,2.963-5.586,4.155-8.948,4.155c-7.458,0-12.759-5.41-12.759-13.102c0-7.286,5.465-13.039,12.422-13.039
				c3.523,0,6.205,1.253,9.285,4.271v-8.718c-3.248-1.646-5.93-2.325-9.117-2.325C111.559,42.449,102.557,51.278,102.557,62.315z"/>
			<polygon points="191.919,68.817 181.781,43.305 173.693,43.305 189.816,82.256 193.8,82.256 210.205,43.305 202.178,43.305 			
				"/>
			<polygon points="213.57,81.285 234.585,81.285 234.585,74.855 220.977,74.855 220.977,64.598 234.065,64.598 234.065,58.167 
				220.977,58.167 220.977,49.737 234.585,49.737 234.585,43.305 213.57,43.305 			"/>
			<path d="M263.908,54.514c0-7.115-4.89-11.207-13.438-11.207h-10.993v37.98h7.41V66.022h0.97l10.247,15.265h9.112L255.25,65.289
				C260.839,64.145,263.908,60.328,263.908,54.514z M249.042,60.788h-2.155V49.28h2.274c4.624,0,7.128,1.94,7.128,5.638
				C256.29,58.729,253.785,60.788,249.042,60.788z"/>
			<path d="M269.134,46.134c0-0.666-0.444-1.026-1.26-1.026h-1.078v3.345h0.792v-1.302l0.938,1.302h0.99l-1.11-1.384
				C268.874,46.946,269.134,46.6,269.134,46.134z M267.736,46.589h-0.147v-0.871h0.154c0.395,0,0.597,0.146,0.597,0.429
				C268.339,46.44,268.13,46.589,267.736,46.589z"/>
			<path d="M268.034,43.848c-1.62,0-2.922,1.303-2.922,2.924s1.307,2.922,2.922,2.922c1.588,0,2.885-1.315,2.885-2.922
				C270.919,45.169,269.622,43.848,268.034,43.848z M268.03,49.17c-1.298,0-2.343-1.068-2.343-2.391
				c0-1.336,1.035-2.398,2.343-2.398c1.261,0,2.3,1.083,2.3,2.398C270.33,48.092,269.291,49.17,268.03,49.17z"/>
		</g>
		<g>
			<path d="M95.479,91.268l9.91,10.381v-9.838h1.414v13.275l-9.908-10.359v9.791h-1.418L95.479,91.268L95.479,91.268z"/>
			<path d="M95.346,91.268v13.383h1.68c0,0,0-8.979,0-9.596c0.437,0.453,9.908,10.361,9.908,10.361v-13.74h-1.68
				c0,0,0,9.023,0,9.646c-0.436-0.463-9.908-10.387-9.908-10.387V91.268L95.346,91.268z M95.609,91.6
				c0.439,0.453,9.914,10.383,9.914,10.383s0-9.785,0-10.047c0.188,0,0.949,0,1.146,0c0,0.258,0,12.203,0,12.826
				c-0.439-0.461-9.902-10.369-9.902-10.369s0,9.732,0,9.99c-0.203,0-0.963,0-1.156,0C95.609,104.131,95.609,92.219,95.609,91.6z"/>
			<path d="M113.668,91.811h6.584v1.313h-5.171v3.779h5.021v1.313h-5.021v4.986h5.171v1.316h-6.584V91.811z"/>
			<path d="M120.252,91.676h-6.719v12.975h6.854v-1.582c0,0-4.922,0-5.172,0c0-0.244,0-4.479,0-4.727c0.25,0,5.018,0,5.018,0v-1.568
				c0,0-4.768,0-5.018,0c0-0.246,0-3.277,0-3.51c0.25,0,5.172,0,5.172,0v-1.586h-0.136L120.252,91.676L120.252,91.676z
				 M120.122,91.936c0,0.189,0,0.867,0,1.055c-0.255,0-5.177,0-5.177,0v4.043c0,0,4.772,0,5.021,0c0,0.186,0,0.854,0,1.049
				c-0.249,0-5.021,0-5.021,0v5.25c0,0,4.922,0,5.177,0c0,0.193,0,0.863,0,1.053c-0.251,0-6.074,0-6.324,0
				c0-0.254,0-12.188,0-12.447C114.047,91.936,119.871,91.936,120.122,91.936z"/>
			<path d="M130.251,104.518h-1.417V93.121h-3.064v-1.313h7.582v1.313h-3.1L130.251,104.518L130.251,104.518z"/>
			<path d="M133.352,91.676h-7.724v1.586c0,0,2.831,0,3.072,0c0,0.254,0,11.389,0,11.389h1.681c0,0,0-11.135,0-11.389
				c0.244,0,3.102,0,3.102,0v-1.586H133.352z M133.221,91.936c0,0.189,0,0.867,0,1.055c-0.24,0-3.104,0-3.104,0s0,11.137,0,11.395
				c-0.196,0-0.952,0-1.151,0c0-0.258,0-11.395,0-11.395s-2.825,0-3.063,0c0-0.188,0-0.863,0-1.055
				C126.145,91.936,132.971,91.936,133.221,91.936z"/>
			<path d="M142.818,101.332l4.115-10.186l4.109,10.186l3.338-9.521h1.54l-4.878,13.361l-4.109-10.236l-4.115,10.236l-4.863-13.361
				h1.531L142.818,101.332z"/>
			<path d="M146.814,91.1c0,0-3.741,9.246-3.987,9.857c-0.216-0.617-3.251-9.281-3.251-9.281h-1.814l5.059,13.875
				c0,0,3.885-9.67,4.113-10.254c0.23,0.584,4.115,10.254,4.115,10.254l5.057-13.875h-1.815c0,0-3.035,8.664-3.252,9.281
				c-0.248-0.611-4.104-10.16-4.104-10.16L146.814,91.1z M142.943,101.381c0,0,3.761-9.307,3.99-9.873
				c0.23,0.566,4.118,10.199,4.118,10.199s3.359-9.598,3.423-9.771c0.146,0,0.981,0,1.254,0c-0.119,0.338-4.463,12.254-4.69,12.867
				c-0.241-0.605-4.104-10.217-4.104-10.217s-3.869,9.609-4.109,10.217c-0.219-0.613-4.557-12.527-4.682-12.867
				c0.267,0,1.103,0,1.248,0c0.06,0.176,3.422,9.771,3.422,9.771L142.943,101.381z"/>
			<path d="M174.223,98.176c0,3.658-3.004,6.561-6.623,6.561c-3.627,0-6.623-2.902-6.623-6.561c0-3.639,2.996-6.586,6.623-6.586
				C171.219,91.59,174.223,94.539,174.223,98.176z M162.389,98.162c0,2.861,2.326,5.254,5.211,5.254
				c2.883,0,5.202-2.393,5.202-5.254c0-2.885-2.288-5.264-5.202-5.264S162.389,95.277,162.389,98.162z"/>
			<path d="M160.843,98.176c0,3.689,3.032,6.691,6.757,6.691c3.723,0,6.758-3.004,6.758-6.691c0-3.709-3.034-6.717-6.758-6.717
				C163.875,91.459,160.843,94.467,160.843,98.176z M161.104,98.176c0-3.559,2.912-6.451,6.496-6.451
				c3.574,0,6.496,2.893,6.496,6.451c0,3.547-2.922,6.428-6.496,6.428C164.016,104.604,161.104,101.723,161.104,98.176z"/>
			<path d="M162.254,98.162c0,2.979,2.4,5.389,5.346,5.389c2.942,0,5.332-2.408,5.332-5.389c0-2.975-2.39-5.391-5.332-5.391
				C164.654,92.771,162.254,95.188,162.254,98.162z M162.521,98.162c0-2.824,2.275-5.125,5.078-5.125
				c2.801,0,5.067,2.301,5.067,5.125c0,2.822-2.267,5.129-5.067,5.129C164.798,103.289,162.521,100.984,162.521,98.162z"/>
			<path d="M181.771,104.518h-1.412V91.811h1.836c2.408,0,4.646,0.645,4.646,3.506c0,1.953-1.222,3.338-3.181,3.504l4.042,5.697
				h-1.737l-3.835-5.582h-0.358V104.518L181.771,104.518z M181.771,97.689h0.44c1.599,0,3.218-0.303,3.218-2.273
				c0-2.086-1.533-2.295-3.232-2.295h-0.424L181.771,97.689L181.771,97.689z"/>
			<path d="M180.359,91.676h-0.133v12.975h1.682c0,0,0-5.328,0-5.582c0.1,0,0.214,0,0.218,0l0,0c0,0.098,3.735,5.523,3.735,5.523
				l1.843,0.059h0.26c0,0-3.878-5.459-4.08-5.752c1.875-0.258,3.093-1.629,3.093-3.582c0-2.453-1.562-3.641-4.781-3.641H180.359z
				 M182.197,91.936c3.078,0,4.517,1.074,4.517,3.381c0,1.889-1.2,3.219-3.063,3.373l-0.232,0.021c0,0,3.762,5.285,4.035,5.672
				c-0.371,0-1.479,0-1.485,0h0.005c0-0.096-3.736-5.523-3.736-5.523l-0.461-0.055h-0.133c0,0,0,5.326,0,5.578
				c-0.193,0-0.959,0-1.149,0c0-0.252,0-12.188,0-12.447C180.718,91.936,182.197,91.936,182.197,91.936z"/>
			<path d="M181.771,92.988h-0.133v4.83h0.572c1.563,0,3.352-0.273,3.352-2.404c0-2.24-1.738-2.426-3.367-2.426H181.771z
				 M182.197,93.262c1.632,0,3.101,0.158,3.101,2.152c0,1.885-1.558,2.137-3.085,2.137c0,0-0.175,0-0.305,0c0-0.24,0-4.051,0-4.289
				C182.033,93.262,182.197,93.262,182.197,93.262z"/>
			<path d="M200.535,91.811h1.902l-5.965,5.92l6.166,6.787h-1.955l-5.209-5.83l-0.354,0.346v5.484h-1.416V91.811h1.416v5.441
				L200.535,91.811z"/>
			<path d="M202.438,91.676h-1.955c0,0-4.818,4.836-5.226,5.26c0-0.57,0-5.26,0-5.26h-1.68v12.975h1.68c0,0,0-5.568,0-5.596
				c0.015,0.006,0.122-0.096,0.207-0.178c0.179,0.191,5.122,5.729,5.122,5.729l2.053,0.045h0.305c0,0-6.121-6.736-6.297-6.916
				c0.188-0.182,6.105-6.059,6.105-6.059H202.438L202.438,91.676z M202.115,91.936c-0.426,0.43-5.828,5.789-5.828,5.789
				s5.679,6.242,6.055,6.66c-0.439,0-1.658,0-1.658,0l0,0c0-0.068-5.113-5.787-5.113-5.787l-0.09-0.107l-0.453,0.451
				c0,0-0.036,5.189-0.036,5.443c-0.201,0-0.962,0-1.149,0c0-0.254,0-12.189,0-12.449c0.188,0,0.946,0,1.149,0
				c0,0.258,0,5.641,0,5.641s5.522-5.561,5.597-5.641C200.672,91.936,201.684,91.936,202.115,91.936z"/>
		</g>
	</g>
	<g>
		<g>
			<defs>
				<path id="SVGID_2_" d="M300,136c0,6.627-5.373,12-12,12H12c-6.627,0-12-5.373-12-12V12C0,5.373,5.373,0,12,0h276
					c6.627,0,12,5.373,12,12V136z"/>
			</defs>
			<clipPath id="SVGID_3_">
				<use xlink:href="#SVGID_2_"  overflow="visible"/>
			</clipPath>
			<path clip-path="url(#SVGID_3_)" fill="#FF6600" d="M301,91.533c0,0-81.787,57.706-231.585,83.551H301V91.533z"/>
		</g>
	</g>
</g>
</svg>
