<?xml version="1.0" encoding="UTF-8" standalone="no"?>
<!-- Generator: Adobe Illustrator 16.0.2, SVG Export Plug-In . SVG Version: 6.00 Build 0)  -->

<svg
   version="1.1"
   id="Layer_1"
   x="0px"
   y="0px"
   width="300px"
   height="148px"
   viewBox="0 0 300 148"
   enable-background="new 0 0 300 148"
   xml:space="preserve"
   sodipodi:docname="elo.svg"
   inkscape:version="1.1.2 (b8e25be833, 2022-02-05)"
   xmlns:inkscape="http://www.inkscape.org/namespaces/inkscape"
   xmlns:sodipodi="http://sodipodi.sourceforge.net/DTD/sodipodi-0.dtd"
   xmlns:xlink="http://www.w3.org/1999/xlink"
   xmlns="http://www.w3.org/2000/svg"
   xmlns:svg="http://www.w3.org/2000/svg"><defs
   id="defs3011">
	
	

		
		
		
		
		
		
		
		
		
	</defs><sodipodi:namedview
   id="namedview3009"
   pagecolor="#505050"
   bordercolor="#ffffff"
   borderopacity="1"
   inkscape:pageshadow="0"
   inkscape:pageopacity="0"
   inkscape:pagecheckerboard="1"
   showgrid="false"
   inkscape:zoom="3.94"
   inkscape:cx="150"
   inkscape:cy="74.111675"
   inkscape:window-width="1920"
   inkscape:window-height="1009"
   inkscape:window-x="-8"
   inkscape:window-y="-8"
   inkscape:window-maximized="1"
   inkscape:current-layer="Layer_1" />
<path
   fill="#ffffff"
   d="m 300,136 c 0,6.627 -5.373,12 -12,12 H 12 C 5.373,148 0,142.627 0,136 V 12 C 0,5.373 5.373,0 12,0 h 276 c 6.627,0 12,5.373 12,12 z"
   id="path2924" /><g
   id="g2936"
   style="fill:#cccccc">
			<g
   id="g2934"
   style="fill:#cccccc">
				<defs
   id="defs2927">
					<rect
   id="SVGID_1_"
   x="31.844"
   y="18.166"
   width="236.313"
   height="111.668" />
				</defs>
				<clipPath
   id="SVGID_2_">
					<use
   xlink:href="#SVGID_1_"
   overflow="visible"
   id="use2929"
   x="0"
   y="0"
   width="100%"
   height="100%" />
				</clipPath>
				<path
   clip-path="url(#SVGID_2_)"
   fill="#ffcc00"
   d="m 80.538,52.367 c 2.271,-0.758 4.696,-1.167 7.222,-1.167 11.016,0 20.212,7.823 22.317,18.223 l 15.614,-3.185 C 122.107,48.566 106.489,35.264 87.759,35.264 c -4.293,0 -8.416,0.7 -12.272,1.988 z"
   id="path2932"
   style="fill:#cccccc" />
			</g>
		</g><g
   id="g2948"
   style="fill:#b3b3b3">
			<g
   id="g2946"
   style="fill:#b3b3b3">
				<defs
   id="defs2939">
					<rect
   id="SVGID_3_"
   x="31.844"
   y="18.166"
   width="236.313"
   height="111.668" />
				</defs>
				<clipPath
   id="SVGID_4_">
					<use
   xlink:href="#SVGID_3_"
   overflow="visible"
   id="use2941"
   x="0"
   y="0"
   width="100%"
   height="100%" />
				</clipPath>
				<path
   clip-path="url(#SVGID_4_)"
   fill="#3698c5"
   d="M 62.112,102.97 72.671,91.032 c -4.714,-4.177 -7.688,-10.271 -7.688,-17.061 0,-6.784 2.971,-12.875 7.681,-17.046 L 62.103,44.988 c -8.005,7.092 -13.057,17.45 -13.057,28.984 10e-4,11.543 5.056,21.905 13.066,28.998"
   id="path2944"
   style="fill:#b3b3b3" />
			</g>
		</g><g
   id="g2960"
   style="fill:#999999">
			<g
   id="g2958"
   style="fill:#999999">
				<defs
   id="defs2951">
					<rect
   id="SVGID_5_"
   x="31.844"
   y="18.166"
   width="236.313"
   height="111.668" />
				</defs>
				<clipPath
   id="SVGID_6_">
					<use
   xlink:href="#SVGID_5_"
   overflow="visible"
   id="use2953"
   x="0"
   y="0"
   width="100%"
   height="100%" />
				</clipPath>
				<path
   clip-path="url(#SVGID_6_)"
   fill="#ff1900"
   d="m 110.072,78.542 c -2.114,10.395 -11.302,18.202 -22.313,18.202 -2.527,0 -4.961,-0.406 -7.229,-1.169 l -5.058,15.118 c 3.857,1.286 7.988,1.983 12.285,1.983 18.713,0 34.327,-13.278 37.926,-30.935 z"
   id="path2956"
   style="fill:#999999" />
			</g>
		</g><g
   id="g2972"
   style="fill:#666666">
			<g
   id="g2970"
   style="fill:#666666">
				<defs
   id="defs2963">
					<rect
   id="SVGID_7_"
   x="31.844"
   y="18.166"
   width="236.313"
   height="111.668" />
				</defs>
				<clipPath
   id="SVGID_8_">
					<use
   xlink:href="#SVGID_7_"
   overflow="visible"
   id="use2965"
   x="0"
   y="0"
   width="100%"
   height="100%" />
				</clipPath>
				<path
   clip-path="url(#SVGID_8_)"
   d="m 139.346,91.535 c -0.513,-0.829 -1.207,-2.154 -1.627,-3.129 -2.473,-5.74 -2.592,-11.682 -0.502,-17.385 2.295,-6.253 6.682,-11.042 12.348,-13.479 7.125,-3.066 15.003,-2.462 21.832,1.589 4.338,2.489 7.412,6.331 9.747,11.764 0.297,0.695 0.559,1.438 0.813,2.07 z m 14.228,-24.778 c -5.061,2.174 -7.668,6.919 -7.132,12.484 l 21.432,-9.225 c -3.685,-4.329 -8.48,-5.764 -14.3,-3.259 m 16.972,20.068 c -0.004,0.005 -0.007,0.009 -0.012,0.013 l -0.444,-0.3 c -1.277,2.075 -3.272,3.756 -5.791,4.849 -4.791,2.083 -9.23,1.547 -12.42,-1.249 l -0.291,0.446 c -0.006,-0.006 -0.007,-0.009 -0.011,-0.009 l -5.437,8.133 c 1.35,0.938 2.798,1.732 4.319,2.368 6.007,2.495 12.151,2.381 18.205,-0.253 4.379,-1.897 7.814,-4.792 10.162,-8.459 z"
   id="path2968"
   style="fill:#666666" />
			</g>
		</g><g
   id="g2984"
   style="fill:#666666">
			<g
   id="g2982"
   style="fill:#666666">
				<defs
   id="defs2975">
					<rect
   id="SVGID_9_"
   x="31.844"
   y="18.166"
   width="236.313"
   height="111.668" />
				</defs>
				<clipPath
   id="SVGID_10_">
					<use
   xlink:href="#SVGID_9_"
   overflow="visible"
   id="use2977"
   x="0"
   y="0"
   width="100%"
   height="100%" />
				</clipPath>
				<path
   clip-path="url(#SVGID_10_)"
   d="m 196.853,45.563 v 45.222 l 7.03,2.85 -3.994,9.322 -7.762,-3.232 c -1.74,-0.754 -2.928,-1.907 -3.824,-3.212 -0.857,-1.328 -1.5,-3.149 -1.5,-5.604 V 45.563 Z"
   id="path2980"
   style="fill:#666666" />
			</g>
		</g><path
   fill="none"
   d="M 31.844,18.166 V 129.834 H 268.157 V 18.166 Z m 187.586,70.739 -7.204,8.052 c -4.888,-4.336 -7.966,-10.661 -7.956,-17.703 0.005,-7.04 3.087,-13.359 7.979,-17.683 l 7.212,8.043 c -2.69,2.347 -4.391,5.799 -4.395,9.65 -0.003,3.842 1.686,7.285 4.364,9.641 z"
   id="path2986" /><path
   d="m 219.46,69.614 -7.212,-8.043 c -4.893,4.323 -7.975,10.643 -7.979,17.683 -0.01,7.042 3.067,13.367 7.956,17.703 l 7.204,-8.052 c -2.678,-2.356 -4.366,-5.8 -4.363,-9.642 0.004,-3.85 1.704,-7.302 4.394,-9.649 z"
   id="path2988"
   style="fill:#666666" /><g
   id="g3000"
   style="fill:#666666">
			<g
   id="g2998"
   style="fill:#666666">
				<defs
   id="defs2991">
					<rect
   id="SVGID_11_"
   x="31.844"
   y="18.166"
   width="236.313"
   height="111.668" />
				</defs>
				<clipPath
   id="SVGID_12_">
					<use
   xlink:href="#SVGID_11_"
   overflow="visible"
   id="use2993"
   x="0"
   y="0"
   width="100%"
   height="100%" />
				</clipPath>
				<path
   clip-path="url(#SVGID_12_)"
   d="m 227.881,92.099 c -1.418,-0.004 -2.787,-0.237 -4.063,-0.663 l -3.445,10.242 c 2.354,0.791 4.876,1.221 7.497,1.225 11.421,0.012 20.959,-8.093 23.167,-18.865 l -10.588,-2.162 c -1.204,5.839 -6.374,10.228 -12.568,10.223"
   id="path2996"
   style="fill:#666666" />
			</g>
		</g><path
   d="m 227.912,55.648 c -2.617,-0.003 -5.139,0.424 -7.49,1.206 l 3.414,10.251 c 1.279,-0.423 2.647,-0.655 4.065,-0.655 6.208,0.006 11.383,4.42 12.559,10.275 l 10.589,-2.147 C 248.87,63.79 239.342,55.656 227.912,55.648 Z"
   id="path3002"
   style="fill:#666666" />
</svg>
