<?xml version="1.0" encoding="utf-8"?>
<!-- Generator: Adobe Illustrator 16.0.2, SVG Export Plug-In . SVG Version: 6.00 Build 0)  -->
<!DOCTYPE svg PUBLIC "-//W3C//DTD SVG 1.1//EN" "http://www.w3.org/Graphics/SVG/1.1/DTD/svg11.dtd">
<svg version="1.1" id="Layer_1" xmlns="http://www.w3.org/2000/svg" xmlns:xlink="http://www.w3.org/1999/xlink" x="0px" y="0px"
	 width="300px" height="148px" viewBox="156 322 300 148" enable-background="new 156 322 300 148" xml:space="preserve">
<path fill="#FFFFFF" d="M456,458c0,6.627-5.373,12-12,12H168c-6.627,0-12-5.373-12-12V334c0-6.627,5.373-12,12-12h276
	c6.627,0,12,5.373,12,12V458z"/>
<path fill="#FFFFFF" d="M456,458c0,6.627-5.373,12-12,12H168c-6.627,0-12-5.373-12-12V334c0-6.627,5.373-12,12-12h276
	c6.627,0,12,5.373,12,12V458z"/>
<g>
	<path fill="#FFCC00" d="M221.432,421.435h174.276l-1.79,20.313c-0.473,5.35-5.296,9.726-10.722,9.726H208.919l1.791-20.313
		C211.181,425.812,216.006,421.435,221.432,421.435L221.432,421.435z"/>
	<path fill="#0C297C" d="M233.218,341.271h169.102l-5.358,64.058c-0.616,7.365-6.984,12.027-13.305,12.028l-171.786,0.007
		l5.006-59.844C218.091,343.006,227.793,341.271,233.218,341.271L233.218,341.271z"/>
	<g>
		<path fill="#FFFFFF" d="M291.033,367.776c-11.561-0.1-20.565,8.197-21.239,20.274c-0.622,11.061,2.876,19.703,16.331,19.703
			c13.146,0,21.225-9.066,22.001-20.122C309.213,372.144,301.264,367.864,291.033,367.776z M295.002,388.259
			c-0.731,5.33-3.67,9.487-7.804,9.111c-4.231-0.384-4.951-4.667-4.269-10.004c0.742-5.827,3.939-9.586,7.571-9.207
			C293.714,378.494,296.025,380.793,295.002,388.259z"/>
		<path fill="#FFFFFF" d="M249.259,388.614c1.793-0.02,3.586-0.039,5.378-0.06c-0.383,2.454-0.767,4.906-1.15,7.359
			c-10.956,2.4-17.478-3.578-15.34-13.405c3.743-17.202,18.433-16.993,30.404-13.129c0.139-3.778,0.276-7.555,0.415-11.333
			c-6.082-1.112-12.864-1.935-19.32-1.253c-11.509,1.216-23.64,8.475-25.594,24.885c-2.346,19.703,9.719,26.542,25.009,26.281
			c5.678-0.097,11.542-1.036,16.727-2.373c1.107-9.245,2.214-18.489,3.321-27.733c-6.174,0-12.349,0-18.523,0
			C250.144,381.441,249.701,385.027,249.259,388.614z"/>
		<path fill="#FFFFFF" d="M377.768,357.433l-1.429,10.795c-1.5-0.299-3.15-0.438-4.931-0.453
			c-11.556-0.1-21.092,8.198-22.542,20.275c-0.718,5.962-0.371,10.957,2.372,14.539c6.178,8.064,17.396,4.771,20.327,1.541
			l0.024-0.012l-0.326,2.461h12.339l7.152-49.146H377.768z M373.369,390.666c-1.24,4.022-3.707,6.788-6.98,6.475
			c-4.015-0.385-4.549-4.667-3.711-10.004c0.479-3.048,2.159-5.591,3.604-7.438c1.495-1.911,4.911-3.278,8.794-1.924
			L373.369,390.666z"/>
		<path fill="#FFFFFF" d="M330.579,367.776c-11.561-0.1-20.564,8.197-21.24,20.274c-0.621,11.061,2.877,19.703,16.331,19.703
			c13.147,0,21.227-9.066,22.002-20.122C348.759,372.144,340.81,367.864,330.579,367.776z M334.549,388.259
			c-0.73,5.33-3.67,9.487-7.805,9.111c-4.231-0.384-4.95-4.667-4.269-10.004c0.743-5.827,3.94-9.586,7.571-9.207
			C333.26,378.494,335.572,380.793,334.549,388.259z"/>
	</g>
	<g>
		<path fill="#0C297C" d="M344.476,430.819c-4.825-0.187-6.435,0.897-6.435,0.897l-0.935,4.414c0,0,2.838-1.384,4.9-1.384
			s2.394,0.411,2.394,1.01c0,0.598-0.897,1.234-3.104,1.72c-2.206,0.487-6.695,1.048-7.144,5.313
			c-0.449,4.264,2.991,4.451,4.563,4.451c1.57,0,4.151-0.861,4.151-0.861l-0.038,0.452h5.799c0,0,1.01-8.98,1.383-11.673
			C350.386,432.466,349.3,431.008,344.476,430.819z M343.278,443.425c0,0-4.414,1.87-4.302-0.823c0.113-1.741,3.703-1.63,4.75-2.468
			L343.278,443.425z"/>
		<path fill="#0C297C" d="M323.089,437.008c1.545-7.102,6.982-6.925,11.925-5.331c0.057-1.559,0.113-3.119,0.17-4.678
			c-2.51-0.459-5.311-0.799-7.977-0.518c-4.751,0.502-9.76,3.498-10.566,10.273c-0.969,8.135,4.09,10.755,10.401,10.646
			c2.345-0.04,3.344-0.019,5.484-0.57l1.095-4.909c-0.998,0.43-2.212,0.64-3.886,0.755
			C325.132,442.992,322.205,441.064,323.089,437.008z"/>
		<path fill="#0C297C" d="M363.213,430.918c-4.741-0.179-5.89,2.371-5.89,2.371l0.286-1.939h-5.207l-2.191,15.481h5.819
			c0,0,0.035-0.433,0.933-6.36c0.898-5.925,5.459-4.74,5.459-4.74L363.213,430.918z"/>
		<path fill="#0C297C" d="M375.184,426.97l-0.65,4.365c-0.685-0.121-1.435-0.177-2.247-0.184c-5.262-0.04-9.354,3.314-10.015,8.197
			c-0.326,2.411-0.276,4.574,0.973,6.022c2.813,3.26,7.779,1.785,9.114,0.479l0.011-0.005l-0.148,0.994h5.62l3.259-19.869H375.184z
			 M373.18,440.406c-0.564,1.626-1.688,2.745-3.179,2.617c-1.829-0.155-2.179-2.031-1.798-4.188
			c0.218-1.231,0.983-2.261,1.642-3.007c0.682-0.772,2.346-1.182,4.113-0.635L373.18,440.406z"/>
	</g>
</g>
</svg>
