<?xml version="1.0" encoding="utf-8"?>
<!-- Generator: Adobe Illustrator 16.0.2, SVG Export Plug-In . SVG Version: 6.00 Build 0)  -->
<!DOCTYPE svg PUBLIC "-//W3C//DTD SVG 1.1//EN" "http://www.w3.org/Graphics/SVG/1.1/DTD/svg11.dtd">
<svg version="1.1" id="_x23_Layer_1" xmlns="http://www.w3.org/2000/svg" xmlns:xlink="http://www.w3.org/1999/xlink" x="0px"
	 y="0px" width="300px" height="148px" viewBox="270.945 96.079 300 148" enable-background="new 270.945 96.079 300 148"
	 xml:space="preserve">
<path fill="#FFFFFF" d="M570.945,232.079c0,6.627-5.373,12-12,12h-276c-6.627,0-12-5.373-12-12v-124c0-6.627,5.373-12,12-12h276
	c6.627,0,12,5.373,12,12V232.079z"/>
<path fill="#1D9531" d="M523.36,179.106c-0.193-0.038-0.563-0.601-0.689-0.956c-1.305-3.672,4.284-6.403,5.963-3.514
	c1.487,1.5-0.169,5.104-3.042,5.272C524.487,179.974,524,179.69,523.36,179.106L523.36,179.106z M519.726,182.954
	c1.81,1.229,4.359,1.548,6.475,0.528c0.353-0.169,0.611-0.306,0.879-0.505c0.217-0.162,0.598-0.558,0.769-0.603l0.046,1.169
	l0.477-0.032c0.171,0.242,0.062,0.405,0.207,0.624l-0.042-0.617l4.161-0.083l3.134-21.541l0.575-0.007l0.055,0.347
	c0.127-0.165,0.089-0.087,0.087-0.389l-0.706-0.017l0.068-0.698l-4.673,0.057c-0.455,1.736-1.23,8.776-1.579,9.566
	c-0.79-0.119-0.619-0.757-2.431-1.226c-4.977-1.288-9.622,3.183-9.681,8.272c-0.012,1.103,0.207,2.202,0.623,3.093
	C518.483,181.561,519.253,182.661,519.726,182.954L519.726,182.954z M513.302,171.056c-0.198,0.224-0.454,0.509-0.734,0.633
	l0.137-1.108l0.021-0.602l-4.77-0.01l-1.893,13.56c0.149,0.096-0.021,0.02,0.248,0.097l0.409,0.068l4.091,0.02
	c0.373-2.209,0.639-4.566,1.175-6.695c0.714-2.836,1.633-2.992,4.588-3.348l0.484-3.322l0.012-0.627
	C514.571,169.777,513.987,170.752,513.302,171.056L513.302,171.056z M468.731,169.37c0.277,0.235,1.635,0.128,2.397,1.587
	c0.886,1.691,0.069,4.729-0.257,6.945l-0.628,3.482l0.265-0.298c0.426,0.86,2.57,2.278,3.482,2.761
	c1.731,0.312,2.183,1.111,5.897,1.1c2.707-0.008,3.652-0.462,5.886-1.17c0.297-1.174,0.292-4.669,0.684-5.332l-0.015-1.094
	c-0.779,0.396-1.157,0.723-2.195,1.022c-2.103,0.607-4.753,0.898-6.71-0.256c-0.462-0.272-0.531-0.39-0.897-0.692
	c-1.286-0.927-2.07-3.042-1.734-5.246c0.279-1.84,1.261-3.446,2.448-4.67c1.136-1.172,2.72-2.119,4.838-2.282
	c1.574-0.121,3.205,0.178,4.622,0.75c0.419,0.169,0.797,0.415,1.228,0.544l0.934-5.427l-0.025-0.75
	c-1.415-0.81-4.966-1.206-6.848-1.083c-4.985,0.324-9.542,3.634-11.949,7.695l-0.996,1.964
	C469.027,169.259,469.076,169.407,468.731,169.37L468.731,169.37z M494.098,179.161c-0.606-0.539-1.065-1.322-0.892-2.536
	c0.474-3.315,5.075-4.159,6.053-2.046l0.358,0.486c0.272,0.6,0.272,1.361,0.107,1.978
	C498.991,179.772,495.474,180.667,494.098,179.161L494.098,179.161z M490.302,182.92l-0.845-0.929
	c-0.984-1.179-1.35-2.667-1.307-4.282c0.056-2.165,0.933-4.128,1.946-5.397c2.23-2.793,6.978-4.217,9.596-1.94
	c0.183,0.159,0.249,0.275,0.486,0.386c0.075-0.219,0.109-0.333,0.172-0.563c0.093-0.334,0.047-0.396,0.313-0.555l4.476,0
	l-0.073,0.69l0.689,0.068l-0.698-0.002l-1.812,13.03l-3.966,0.042l-0.659,0.007l0.03-1.176c-0.611,0.398-0.959,0.776-1.772,1.14
	C493.103,185.123,491.069,183.141,490.302,182.92z"/>
<path d="M443.795,177.836l9.686-0.011l0.124-0.659c-1.96-0.15-6.552,0.007-9.094-0.029
	C443.783,177.125,443.777,177.075,443.795,177.836z"/>
<path d="M426.305,177.845l9.44-0.015c0.242-0.183,0.158-0.072,0.213-0.457c0.026-0.349,0.154-0.25-1.045-0.237
	c-1.564,0.016-8.021-0.096-8.535,0.063L426.305,177.845z"/>
<path d="M383.475,173.675v2.3c0.223,0.587,0.07,1.714,0.96,3.915c2.216,5.479,7.85,5.4,8.675,5.763h2.468
	c0.412-0.165,1.173-0.163,1.675-0.257c0.557-0.103,1.029-0.217,1.569-0.373c0.97-0.282,1.839-0.633,2.667-1.106
	c-0.122-0.084,0.042-0.072-0.231-0.05c-0.128,0.01-1.916,0.816-4.389,1.025c-10.126,0.86-14.298-7.095-11.462-15.691
	c0.492-1.49,1.151-2.642,1.937-3.784c0.412-0.601,0.814-1.054,1.291-1.572l1.313-1.352c-0.534,0.206-2.002,1.635-2.374,2.046
	c-1.475,1.632-2.612,3.316-3.31,5.554C383.904,171.25,383.564,173.475,383.475,173.675z"/>
<path d="M476.64,177.426c-0.733-1.76-1.27-3.173-0.639-5.45c1.415-5.11,6.233-7.5,11.313-5.389c0.429,0.179,0.747,0.417,1.188,0.535
	c0.206-1.711,0.864-4.286,0.859-5.915l-0.387-0.112l-0.934,5.427c-0.431-0.13-0.809-0.375-1.228-0.544
	c-1.417-0.573-3.048-0.872-4.622-0.75c-2.118,0.163-3.702,1.109-4.838,2.282c-1.188,1.225-2.169,2.831-2.448,4.67
	C474.57,174.384,475.354,176.5,476.64,177.426z"/>
<path d="M528.578,184.135l0.262,0.099c0.037,0.006,0.218,0.009,0.263,0.009l4.21-0.118l3.148-21.89l-0.055-0.347l-0.575,0.007
	l-3.134,21.541l-4.161,0.083L528.578,184.135z"/>
<path d="M506.72,183.694l-0.015,0.555l4.581,0.058c0.313-0.098,0.627-3.02,0.675-3.338c0.704-4.682,0.914-6.566,5.25-6.677
	l0.469-3.977l-0.622,0.033l-0.484,3.322c-2.955,0.355-3.874,0.512-4.588,3.348c-0.536,2.129-0.803,4.487-1.175,6.695L506.72,183.694
	z"/>
<path d="M433.728,182.18c-0.933,0.306-1.604,1.39-5.186,1.529c-5.848,0.229-8.218-4.141-6.53-9.203
	c0.141-0.422,0.311-0.789,0.501-1.161c0.23-0.45,0.557-0.841,0.485-0.95c-0.416,0.277-1.169,1.56-1.453,2.197
	c-0.376,0.84-0.662,1.913-0.74,2.936C420.15,186.128,430.829,185.391,433.728,182.18z"/>
<path d="M451.533,181.969c-0.106-0.053-0.014-0.058-0.203,0.055c-0.128,0.075-0.1,0.075-0.212,0.153
	c-0.162,0.115-0.345,0.226-0.515,0.327c-3.445,2.06-11.064,2.093-11.621-4.238c-0.093-1.056,0.011-2.116,0.271-3.055
	c0.3-1.083,0.834-2.071,0.893-2.306c-1.015,1.138-1.822,3.392-1.789,5.453c0.037,2.395,1.007,3.992,2.372,4.896
	C443.969,185.399,449.564,184.373,451.533,181.969z"/>
<path d="M413.606,183.273l-3.93-0.035l1.882-13.241l-0.731,0.089c-0.354,2.311-0.663,4.628-0.994,6.918
	c-0.173,1.199-1.036,6.128-0.94,6.947l4.572,0.003L413.606,183.273z"/>
<polygon points="499.281,183.466 499.26,184.167 503.885,184.134 505.756,170.396 505.057,170.394 503.247,183.424 "/>
<path d="M462.782,173.54c1.12-0.107,2.128-0.341,2.728,0.636c0.558,0.911-0.222,5.244-0.404,6.481
	c-0.139,0.948-0.414,2.287-0.432,3.208c0.828,0.059,1.808,0.014,2.653,0.014c2.16,0,1.882,0.196,1.977-0.613l-3.838-0.021
	c0.019-1.02,0.323-2.546,0.481-3.595c0.183-1.196,0.337-2.368,0.46-3.586c0.136-1.344,0.388-2.623-0.789-3.108
	c-0.809-0.334-1.653-0.223-2.415,0.171C462.939,173.262,462.62,173.396,462.782,173.54z"/>
<polygon points="459.686,183.267 455.724,183.243 457.603,170.229 456.918,170.257 454.965,183.877 459.589,183.882 "/>
<path d="M486.458,178.446c-0.392,0.663-0.387,4.158-0.684,5.332c-2.233,0.708-3.179,1.161-5.886,1.17
	c-3.715,0.012-4.165-0.788-5.897-1.1c2.056,1.081,3.292,1.597,5.895,1.705c2.494,0.104,4.469-0.371,6.495-1.178l0.479-6.148
	L486.458,178.446z"/>
<path d="M399.886,178.81c0.492-0.064,1.167-0.796,1.43-1.174c0.369-0.527,0.596-1.198,0.69-1.936l-4.89-0.117l0.532-4.023
	l-0.984,0.051l-0.607,4.678l4.814,0.101c0.076,0.43-0.116,0.937-0.294,1.338C400.337,178.269,400.086,178.441,399.886,178.81z"/>
<path d="M523.36,179.106c-0.42-1.839-0.087-3.012,1.049-3.972c1.154-0.976,2.64-1.362,4.225-0.498
	c-1.679-2.89-7.268-0.158-5.963,3.514C522.796,178.505,523.167,179.067,523.36,179.106z"/>
<path d="M494.098,179.161c-0.62-1.856-0.081-3.102,1.013-4.052c1.193-1.039,2.52-1.284,4.147-0.53
	c-0.977-2.113-5.578-1.27-6.053,2.046C493.033,177.838,493.492,178.622,494.098,179.161z"/>
<path d="M395.143,165.556c1.763-0.81,4.455-0.52,6.339,0.153c0.472,0.169,1.384,0.646,1.756,0.717l0.372-0.899
	c-0.487-0.634-3.18-1.11-4.249-1.129C397.767,164.372,396.004,164.544,395.143,165.556z"/>
<path d="M490.302,182.92c0.533,0.791,2.351,1.82,3.901,1.89c1.653,0.073,3.48-0.539,4.418-1.337l0.03-1.176
	c-0.611,0.398-0.959,0.776-1.772,1.14C493.103,185.123,491.069,183.141,490.302,182.92z"/>
<path fill="#006E2C" d="M389.948,162.494l-1.313,1.352c-0.477,0.519-0.879,0.971-1.291,1.572c-0.785,1.143-1.445,2.294-1.937,3.784
	c-2.835,8.596,1.336,16.551,11.462,15.691c2.474-0.209,4.261-1.016,4.389-1.024c0.273-0.022,0.109-0.034,0.231,0.05
	c0.501-0.192,2.542-1.669,3.029-2.063c2.589-2.093,4.034-7.733,4.065-11.157c-2.635-0.086-6.037,0.012-8.763,0.081
	c-2.434,0.062-1.995-0.143-2.166,0.705c-0.383,0.031-0.716-0.022-0.991,0.128l0.983-0.052l-0.532,4.024l4.89,0.116
	c-0.095,0.738-0.322,1.409-0.69,1.936c-0.264,0.378-0.939,1.109-1.43,1.175c-0.368,0.149-0.04,0.264-1.152,0.673
	c-0.428,0.156-0.897,0.274-1.424,0.348c-2.952,0.41-5.562-0.931-6.208-4.303c-0.541-2.823,0.455-6.239,2.168-8.342
	c0.667-0.819,0.857-1.042,1.873-1.631c0.861-1.011,2.625-1.184,4.218-1.157c1.069,0.019,3.763,0.495,4.249,1.129
	c0.376,0.001,0.405,0.086,0.729,0.241l2.229-5.437c-2.921-1.379-5.524-1.674-9.195-1.144c-1.537,0.222-2.891,0.61-4.125,1.233
	C392.598,160.749,390.216,162.107,389.948,162.494L389.948,162.494z M410.828,170.086l0.731-0.089l-1.882,13.241l3.93,0.035
	l0.728-0.031c0.51-2.416,0.688-7.289,2.222-8.759c0.53-0.655,1.682-1.23,2.887-1.118l0.777-0.038l0.527-4.175
	c-2.026-0.088-4.221,2.182-4.761,2.292c0.002-0.625,0.335-1.692,0.245-2.197l-4.539,0.022l-0.104,0.633
	c-0.207,0.046-0.272,0.015-0.41,0.041L410.828,170.086L410.828,170.086z M431.695,174.158l-4.728,0.145
	c0.066-0.909,0.282-0.847,0.729-1.315c-0.034-0.05-0.341,0.013,0.439-0.484c0.721-0.458,1.582-0.713,2.501-0.574
	c1.013,0.152,1.978,1.07,1.893,2.219L431.695,174.158L431.695,174.158z M422.999,172.394c0.364-0.46,1.261-1.327,1.697-1.671
	c0.623-0.49,1.245-0.925,2.122-1.299c3.012-1.283,7.907-1.033,9.527,2.61c0.707,1.59,0.598,4.686,0.217,5.007
	c-0.374,0.313-0.313-0.235-0.604,0.333c0.027-0.349,0.155-0.25-1.045-0.237c-1.563,0.016-8.02-0.096-8.535,0.063l-0.072,0.646
	c-0.301,1.562,1.445,3.095,3.902,2.184c0.387-0.144,0.776-0.38,1.023-0.645c0.477-0.509,0.484-0.344,1.374-0.341
	c1.088,0.003,2.292-0.051,3.364,0.011c-0.095,1.081-1.696,2.769-2.241,3.126c-0.932,0.306-1.603,1.39-5.186,1.529
	c-5.848,0.229-8.218-4.141-6.53-9.203c0.141-0.422,0.311-0.789,0.502-1.161C422.744,172.894,423.07,172.504,422.999,172.394
	L422.999,172.394z M449.3,174.171l-4.862,0.134c0.036-0.486,0.249-0.742,0.423-1.076c0.041-0.04,0.273-0.344,0.48-0.514
	c0.23-0.188,0.386-0.298,0.672-0.436c2.074-0.996,4.13,0.123,3.993,1.878L449.3,174.171L449.3,174.171z M440.145,172.906
	c-0.059,0.234-0.593,1.223-0.893,2.306c-0.26,0.938-0.363,1.999-0.271,3.055c0.557,6.331,8.176,6.298,11.621,4.238
	c0.17-0.102,0.353-0.212,0.515-0.327c0.112-0.078,0.084-0.078,0.212-0.153c0.189-0.112,0.097-0.107,0.203-0.055
	c0.527-0.364,1.73-1.929,1.917-2.916l-4.539,0.008c-0.868,1.795-5.566,1.8-5.115-1.225c-0.019-0.762-0.012-0.711,0.716-0.7
	c2.543,0.036,7.134-0.121,9.094,0.03c0.486-0.07,0.504,0.204,0.67-1.042c0.979-7.394-6.229-8.618-10.498-6.453
	c-0.833,0.422-1.423,0.873-2.028,1.391C441.365,171.389,440.415,172.431,440.145,172.906L440.145,172.906z M457.602,170.229
	l-1.878,13.014l3.962,0.024l0.71-0.04c0.408-1.963,0.95-5.662,1.266-7.848c0.068-0.475,0.164-0.727,0.383-1.107
	c0.378-0.656,0.262-0.342,0.737-0.732c-0.162-0.144,0.157-0.277,0.421-0.414c0.763-0.394,1.606-0.504,2.415-0.171
	c1.177,0.485,0.926,1.764,0.789,3.108c-0.227,2.252-0.903,5.069-0.941,7.18l4.485,0.022l0.921-5.362
	c0.326-2.217,1.142-5.255,0.257-6.945c-0.763-1.459-2.121-1.353-2.397-1.588c-2.148-0.241-3.471,0.153-5.271,1.055
	c-0.387,0.194-0.979,0.725-1.407,0.694l0.279-1.555l-4.607,0.035L457.602,170.229z"/>
<path d="M519.726,182.954c0.258,0.448,0.958,0.979,1.565,1.284c0.653,0.33,1.439,0.477,2.275,0.527
	c1.715,0.103,3.339-0.408,4.327-1.221l-0.046-1.17c-0.171,0.045-0.552,0.44-0.769,0.603c-0.268,0.2-0.526,0.336-0.879,0.505
	C524.085,184.501,521.536,184.182,519.726,182.954z"/>
<path d="M427.697,172.988c0.834-0.204,1.455-0.607,2.525-0.287c0.74,0.22,1.271,0.704,1.473,1.458l0.835-0.012
	c0.085-1.147-0.88-2.065-1.893-2.219c-0.919-0.138-1.78,0.116-2.501,0.575C427.356,173,427.663,172.937,427.697,172.988z"/>
<path d="M444.861,173.229c0.812-0.158,1.213-0.836,2.69-0.587c0.885,0.149,1.538,0.745,1.749,1.529l0.706-0.014
	c0.137-1.755-1.919-2.874-3.993-1.878c-0.286,0.137-0.441,0.248-0.672,0.435C445.134,172.885,444.902,173.189,444.861,173.229z"/>
<path d="M416.555,174.483c0.462-0.146,0.734-0.288,1.273-0.382c0.532-0.093,1.044-0.029,1.532-0.11l0.082-0.626
	C418.237,173.253,417.085,173.829,416.555,174.483z"/>
<path d="M513.302,171.056l0.056-0.481l-0.653,0.006l-0.137,1.108C512.848,171.565,513.104,171.28,513.302,171.056z"/>
<path d="M335.789,182.499c0.233,0.097,1.213-0.193,1.449-0.304c0.421-0.196,0.818-0.393,1.225-0.625
	c2.209-1.258,4.888-2.966,5.261-5.972c0.339-2.742-1.686-5.827-3.42-7.735l-1.835-1.921c-0.585-0.305-2.975-1.844-3.5-2.022
	c0.261,0.318,0.777,0.675,1.078,0.983c0.372,0.38,0.746,0.643,1.063,1.011c0.332,0.385,0.69,0.674,1.028,1.046
	c0.617,0.679,1.341,1.465,1.895,2.21c2.434,3.275,3.879,6.694,0.737,10.06C339.734,180.342,337.597,181.74,335.789,182.499z"/>
<path d="M305.336,171.318v1.054c0.27,0.606-0.091,2.218,2.13,4.924c2.671,3.254,7.883,4.965,11.97,5.627
	c0.793,0.128,2.362,0.397,3.145,0.362c-0.629-0.128-1.409-0.358-2.057-0.539c-3.926-0.711-8.124-2.046-11.046-4.757l-0.81-0.859
	c-0.641-0.68-1.288-1.818-1.634-2.737c-0.9-2.393-0.494-4.931,0.627-7.163c0.253-0.502,0.51-0.927,0.795-1.37
	c0.662-1.031,2.08-2.709,3.011-3.527c2.401-2.108,4.763-3.809,7.839-5.287c4.297-2.065,8.347-3.465,13.106-4.397l-0.052,0
	c-0.519-0.003-1.836,0.327-2.427,0.457c-4.989,1.095-10.156,3-14.427,5.551c-1.217,0.727-2.402,1.52-3.411,2.316
	c-0.279,0.22-0.522,0.423-0.797,0.647c-1.641,1.331-3.62,3.507-4.601,5.366c-0.335,0.635-0.631,1.239-0.87,1.973
	c-0.123,0.377-0.225,0.739-0.305,1.14C305.46,170.42,305.433,171.082,305.336,171.318z"/>
<path d="M331.515,183.042c0.349,0.023,0.792-0.023,1.128-0.076c-0.034-0.026-0.04-0.035-0.1-0.066
	c-0.037-0.019-0.062-0.029-0.103-0.045c-0.055-0.02-0.14-0.041-0.211-0.055c-1.125-0.234-1.837-0.283-3.21-0.631
	c-1.17-0.296-2.27-0.632-3.35-1.068c-1.111-0.45-1.973-0.892-2.926-1.448c-0.979-0.571-1.786-1.245-2.487-1.934
	c-3.621-3.561-3.485-8.308-0.357-12.549c3.585-4.863,9.854-8.364,15.898-10.485c1.136-0.398,5.667-1.805,6.927-1.931l-0.121-0.017
	c-0.489,0.029-1.324,0.251-1.847,0.368c-0.61,0.135-1.212,0.288-1.812,0.441c-3.336,0.848-6.824,2.155-9.805,3.636
	c-3.458,1.717-7.782,4.592-10.152,7.797c-1.183,1.599-2.491,3.675-2.631,6.326c-0.208,3.946,2.235,6.625,5.015,8.41
	C324.063,181.444,328.237,182.71,331.515,183.042z"/>
<path d="M347.274,182.375c0.344,0.025,1.339-0.212,1.755-0.297c6.415-1.292,13.818-4.204,18.837-8.266
	c0.36-0.292,0.814-0.643,1.125-0.95c0.204-0.202,0.348-0.309,0.545-0.492c0.809-0.755,1.808-1.91,2.442-2.789
	c4.696-6.501,1.935-12.353-4.926-15.481c-0.847-0.385-2.136-0.923-3.099-1.099c-0.571-0.128-2.046-0.279-2.654-0.272
	c0.549,0.274,3.218,0.666,6.075,2.313c7.147,4.119,7.266,10.514,2.321,16.087c-4.623,5.212-11.965,8.572-18.993,10.457
	C349.683,181.861,348.294,182.239,347.274,182.375z"/>
<path d="M351.542,153.117c2.782,0.782,6.288,2.351,8.19,4.562c1.063,1.235,1.851,2.388,2.213,4.146
	c0.565,2.738-0.39,5.301-1.782,7.443c-0.646,0.995-1.349,1.812-2.138,2.643c-0.777,0.817-1.665,1.569-2.543,2.282
	c-1.142,0.926-2.438,1.759-3.821,2.583c-0.676,0.402-1.35,0.763-2.071,1.131c-0.452,0.229-1.757,0.921-2.176,1.012
	c-0.115,0.15-0.263,0.287-0.334,0.464c0.356-0.082,1.987-0.826,2.385-1.016c3.712-1.778,5.82-3.123,8.829-5.738
	c0.786-0.683,2.254-2.346,2.816-3.182c0.468-0.695,0.871-1.332,1.256-2.171c1.229-2.676,1.347-5.53-0.23-8.167
	c-0.472-0.789-0.946-1.339-1.511-1.916c-1.65-1.686-4.056-2.985-6.473-3.81c-0.511-0.175-0.778-0.263-1.361-0.345
	c-0.572-0.081-0.139-0.153-0.562-0.06c-0.125,0.027-0.254,0.038-0.382,0.051C351.456,153.067,351.542,153.044,351.542,153.117z"/>
<path d="M322.949,188.074c-0.141-0.029-3.648,0.319-4.558,0.304c0.07-0.061,0.001-0.023,0.137-0.086l0.774-0.222
	c0.309-0.087,0.6-0.172,0.909-0.263l5.468-1.567c1.202-0.345,2.41-0.711,3.61-1.082c0.598-0.185,1.185-0.376,1.776-0.568
	l1.612-0.558c0.062-0.034,0.059-0.035,0.094-0.065c-1.297-0.032-2.506-0.029-3.803-0.122c-1.209-0.086-2.328-0.274-3.494-0.408
	c-0.401-0.022-0.832-0.017-1.241-0.032c-0.267-0.012-1.073-0.107-1.215,0.004c0.205-0.031,1.614,0.259,1.972,0.31
	c0.69,0.101,1.383,0.188,2.084,0.249c0.74,0.066,1.469,0.114,2.208,0.144c0.765,0.03,1.554,0.003,2.309,0.043
	c-0.05,0.041,0.021,0.001-0.089,0.06l-0.733,0.264c-0.292,0.099-0.575,0.195-0.878,0.294c-0.593,0.192-1.183,0.381-1.776,0.571
	c-1.18,0.379-2.399,0.726-3.608,1.081l-7.15,2.05c-0.198,0.09-0.046,0.008-0.13,0.082c0.879,0.033,2.041-0.095,2.928-0.177
	c0.474-0.042,0.937-0.101,1.378-0.142C322.011,188.19,322.49,188.091,322.949,188.074z"/>
<path d="M339.814,184.136c0.682-0.023,1.556,0.075,2.277,0.089c1.566,0.029,3.036-0.021,4.595-0.132
	c0.678-0.047,1.528-0.192,2.181-0.201c-0.153-0.089-2.043,0.092-2.223,0.099c-0.778,0.033-1.558,0.063-2.344,0.064
	c-1.156,0.004-2.359-0.039-3.509-0.128C340.479,183.903,340.029,183.84,339.814,184.136z"/>
<path d="M347.089,152.04c-0.11,0.069-0.232,0.068-0.391,0.085c0.428-0.007,1.155,0.206,1.705,0.221
	c0.632,0.018,1.396,0.093,2.001,0.074l-0.067-0.038c-0.008-0.004-0.024-0.012-0.034-0.016l-0.496-0.102
	c-0.203-0.036-0.395-0.07-0.609-0.106c-0.407-0.067-0.96-0.174-1.377-0.172L347.089,152.04z"/>
<path fill="#1D9531" d="M347.414,178.917c-0.002-0.008,0.486-0.917,0.571-1.129c0.175-0.44,0.292-0.897,0.342-1.409
	c0.185-1.896-0.854-3.757-1.95-5.073c-0.788-0.948-1.721-1.857-2.679-2.643c-0.334-0.273-0.614-0.51-0.976-0.783
	c-0.665-0.5-1.334-0.976-2.058-1.459c-0.705-0.471-1.441-0.935-2.183-1.379c-0.396-0.238-1.935-1.167-2.264-1.272
	c0.079,0.133,0.445,0.438,0.59,0.555c0.119,0.096,0.16,0.157,0.275,0.266c0.099,0.095,0.185,0.159,0.291,0.25
	c0.192,0.166,1.047,0.977,1.096,1.101l1.835,1.92c1.735,1.908,3.76,4.993,3.42,7.735c-0.372,3.007-3.052,4.715-5.261,5.972
	c-0.407,0.232-0.804,0.43-1.225,0.626c-0.237,0.109-1.216,0.399-1.45,0.303c-1.696,0.44-1.932,0.29-3.585-0.309
	c-1.035-0.376-2.159-0.858-3.042-1.378c-1.977-1.164-3.482-2.358-4.59-4.205c-3.112-5.188,0.409-10.453,4.171-13.868
	c2.512-2.279,6.053-4.342,9.128-5.709c2.052-0.912,4.206-1.715,6.459-2.376c0.987-0.29,6.514-1.73,7.212-1.537
	c-0.001-0.072-0.086-0.05,0.305-0.089c0.128-0.012,0.258-0.023,0.382-0.05c0.423-0.093-0.01-0.021,0.562,0.06
	c0.583,0.083,0.85,0.171,1.361,0.346c2.417,0.825,4.823,2.123,6.473,3.81c0.564,0.577,1.04,1.127,1.511,1.916
	c1.578,2.637,1.459,5.491,0.23,8.167c-0.385,0.84-0.788,1.477-1.256,2.171c-0.562,0.835-2.03,2.499-2.816,3.182
	c-3.009,2.614-5.117,3.96-8.829,5.737c-0.398,0.189-2.028,0.934-2.385,1.016C347.151,179.205,347.298,179.068,347.414,178.917
	L347.414,178.917z M353.476,152.756c-0.672-0.097-1.71-0.269-2.367-0.248c0.287,0.112,0.84,0.205,1.18,0.299
	c0.332,0.093,0.201,0.1,0.571,0.048C353.006,152.834,353.416,152.758,353.476,152.756L353.476,152.756z M347.82,151.986
	c0.417-0.002,0.97,0.105,1.377,0.172c0.215,0.036,0.406,0.07,0.609,0.105l0.496,0.102c0.01,0.004,0.026,0.013,0.034,0.016
	l0.067,0.038c-0.605,0.02-1.369-0.057-2.001-0.074c-0.55-0.015-1.276-0.228-1.705-0.221c0.159-0.017,0.281-0.016,0.391-0.085
	l0.459-0.112c-2.546-0.319-5.317-0.363-7.898-0.205c-0.895,0.055-6.954,0.644-7.29,0.927l0.052-0.001
	c-4.76,0.932-8.809,2.332-13.106,4.397c-3.075,1.479-5.438,3.18-7.839,5.288c-0.932,0.817-2.349,2.496-3.011,3.527
	c-0.285,0.442-0.542,0.868-0.795,1.37c-1.121,2.232-1.527,4.77-0.627,7.163c0.346,0.919,0.993,2.058,1.634,2.739l0.81,0.858
	c2.922,2.71,7.121,4.045,11.046,4.756c0.541-0.005,2.126,0.354,3.045,0.342c-0.01-0.008-0.024-0.015-0.032-0.019l-0.897-0.245
	c-3.969-1.065-8.427-3.095-10.309-6.92c-1.171-2.383-1.05-5.127,0.065-7.503c2.763-5.889,9.619-9.928,15.377-12.224
	c3.736-1.49,8.644-2.883,12.784-3.309c0.329-0.034,0.69-0.077,1.026-0.102l0.907-0.061c0.147,0.018,0.062,0.004,0.113,0.032
	l0.121,0.017c-1.259,0.126-5.791,1.532-6.927,1.931c-6.045,2.121-12.313,5.623-15.898,10.485c-3.127,4.241-3.264,8.989,0.357,12.55
	c0.701,0.688,1.508,1.362,2.487,1.934c0.953,0.556,1.815,0.997,2.926,1.447c1.081,0.437,2.18,0.772,3.35,1.068
	c1.373,0.348,2.085,0.396,3.21,0.631c0.071,0.014,0.156,0.035,0.211,0.056c0.041,0.015,0.066,0.025,0.103,0.045
	c0.061,0.031,0.066,0.039,0.1,0.065c-0.337,0.053-0.78,0.1-1.128,0.076c-0.265,0.149-3.066,0.208-3.585,0.216
	c-0.947,0.011-3.168-0.099-3.701-0.066l1.246,0.244c1.167,0.135,2.285,0.322,3.494,0.409c1.296,0.092,2.505,0.09,3.802,0.122
	c-0.036,0.029-0.033,0.031-0.094,0.065l-1.612,0.558c-0.59,0.192-1.178,0.383-1.776,0.567c-1.2,0.371-2.409,0.737-3.61,1.082
	l-5.468,1.568c-0.309,0.091-0.6,0.175-0.908,0.262l-0.774,0.222c-0.135,0.063-0.067,0.026-0.137,0.087
	c0.911,0.015,4.417-0.334,4.558-0.305c0.726-0.048,1.537-0.212,2.258-0.321c0.752-0.114,1.51-0.239,2.244-0.363
	c3.466-0.589,7.136-1.46,10.44-2.602c0.327-0.113,1.694-0.661,1.922-0.651c0.215-0.296,0.666-0.231,0.977-0.209
	c1.15,0.09,2.354,0.133,3.509,0.13c0.786-0.003,1.565-0.033,2.344-0.065c0.179-0.007,2.07-0.188,2.223-0.099
	c1-0.067,4.356-0.65,5.442-0.862c1.729-0.335,3.401-0.765,5.061-1.251c5.201-1.521,10.627-4.045,14.716-7.428
	c2.531-2.095,5.063-5.003,5.842-8.355c0.074-0.32,0.16-1.228,0.224-1.399v-1.136c-0.147-0.353-0.083-1.404-0.775-2.834
	c-1.949-4.039-6.58-6.097-10.753-7.155c-1.265-0.32-4.967-1.01-6.182-0.911c0.333,0.064,1.312,0.294,1.509,0.442
	c0.963,0.175,2.252,0.713,3.099,1.099c6.861,3.127,9.623,8.98,4.926,15.481c-0.634,0.879-1.633,2.034-2.442,2.789
	c-0.197,0.184-0.341,0.29-0.545,0.492c-0.31,0.308-0.764,0.659-1.124,0.95c-5.019,4.061-12.423,6.974-18.837,8.267
	c-0.416,0.084-1.411,0.321-1.755,0.296c-0.372,0.025-0.913,0.172-1.271,0.235c-0.961,0.169-3.069,0.463-3.905,0.454
	c0.151-0.104,3.089-0.753,3.57-0.871c1.157-0.284,2.313-0.65,3.41-1.011c5.204-1.71,10.914-4.567,14.783-8.443
	c2.062-2.066,3.984-4.728,4.337-7.795c0.579-5.027-3.252-8.354-7.388-10.195c-1.019-0.454-2.13-0.836-3.266-1.151
	c-0.59-0.164-1.167-0.307-1.774-0.436c-0.272-0.058-1.733-0.293-1.837-0.359l-0.195-0.034c0.376-0.168,3.941-0.316,4.768-0.334
	c1.015-0.022,0.721-0.002,1.557,0.067l1.975-0.007c-0.613-0.318-4.257-0.706-5.308-0.782c-0.349-0.025-1.668-0.045-1.874-0.115
	h-2.588c-0.202,0.063-1.899,0.102-2.287,0.129C349.602,151.754,348.029,151.811,347.82,151.986z"/>
<path d="M353.935,152.804c1.719-0.151,3.412-0.217,5.158-0.183c0.558,0.012,1.223,0.08,1.76,0.056l-0.789-0.174
	c-0.835-0.069-0.542-0.089-1.557-0.067c-0.827,0.018-4.392,0.167-4.768,0.335L353.935,152.804z"/>
<path d="M353.476,152.756c-0.672-0.097-1.71-0.269-2.367-0.248c0.287,0.112,0.84,0.205,1.18,0.299
	c0.332,0.093,0.201,0.1,0.571,0.048C353.006,152.834,353.416,152.758,353.476,152.756z"/>
</svg>
