<?xml version="1.0" encoding="UTF-8" standalone="no"?>
<!-- Generator: Adobe Illustrator 16.0.2, SVG Export Plug-In . SVG Version: 6.00 Build 0)  -->

<svg
   version="1.1"
   id="Layer_1"
   x="0px"
   y="0px"
   width="300px"
   height="148px"
   viewBox="0 0 300 148"
   enable-background="new 0 0 300 148"
   xml:space="preserve"
   sodipodi:docname="hipercard.svg"
   inkscape:version="1.1.2 (b8e25be833, 2022-02-05)"
   xmlns:inkscape="http://www.inkscape.org/namespaces/inkscape"
   xmlns:sodipodi="http://sodipodi.sourceforge.net/DTD/sodipodi-0.dtd"
   xmlns="http://www.w3.org/2000/svg"
   xmlns:svg="http://www.w3.org/2000/svg"><defs
   id="defs89">
	
	
</defs><sodipodi:namedview
   id="namedview87"
   pagecolor="#505050"
   bordercolor="#ffffff"
   borderopacity="1"
   inkscape:pageshadow="0"
   inkscape:pageopacity="0"
   inkscape:pagecheckerboard="1"
   showgrid="false"
   inkscape:zoom="2.3885135"
   inkscape:cx="122.67044"
   inkscape:cy="64.475248"
   inkscape:window-width="1920"
   inkscape:window-height="1009"
   inkscape:window-x="-8"
   inkscape:window-y="-8"
   inkscape:window-maximized="1"
   inkscape:current-layer="Layer_1" />
<path
   fill="#ffffff"
   d="m 300,136 c 0,6.627 -5.373,12 -12,12 H 12 C 5.373,148 0,142.627 0,136 V 12 C 0,5.373 5.373,0 12,0 h 276 c 6.627,0 12,5.373 12,12 z"
   id="path2" /><path
   d="M 97.027326,22.868121 H 72.678437 c -10.758392,0.508681 -19.552622,4.841922 -22.091875,13.777734 -1.324046,4.660217 -2.05271,9.778386 -3.088057,14.60924 -5.263441,24.563796 -9.930576,49.803685 -14.965271,73.876785 H 222.09548 c 14.6549,0 24.71691,-3.09682 27.43649,-14.72776 1.26316,-5.40318 2.4733,-11.523492 3.68205,-17.459795 4.71141,-23.14567 9.42697,-46.289955 14.25275,-70.076204 H 97.027326"
   fill="#b82126"
   id="path2-3"
   style="stroke-width:0.458855;fill:#999999" /><path
   d="m 194.82993,83.966042 c -2.62896,2.573674 -10.00864,3.30473 -9.25362,-2.847303 0.62695,-5.109575 6.18981,-6.195335 12.21931,-5.457368 -0.44822,2.794787 -0.96231,6.343664 -2.96569,8.304671 z m -8.30467,-19.931117 c -0.25106,1.409602 -0.63663,2.685153 -0.94895,4.033487 3.01037,-0.754551 12.38422,-3.068877 13.28756,0.948947 0.29989,1.334973 -0.21743,2.753329 -0.59332,3.796709 -8.47695,-0.802917 -15.38584,0.605303 -17.20266,6.643553 -1.21705,4.044542 0.13635,8.024591 2.72891,9.135689 4.99303,2.138818 11.06629,-0.311401 13.16872,-3.677861 -0.21835,1.165454 -0.42519,2.342425 -0.35609,3.79625 h 4.38958 c 0.0465,-4.203929 0.65827,-7.60678 1.30503,-11.389669 0.5514,-3.221357 1.58833,-6.41046 1.42342,-9.253618 -0.37682,-6.511344 -11.16395,-4.208074 -17.2022,-4.033487 z m 44.01456,21.947861 c -3.43417,0.0737 -5.14181,-2.051755 -5.22013,-5.575758 -0.13681,-6.171841 2.57045,-13.028676 8.06744,-13.643649 2.55939,-0.286066 4.4126,0.309099 6.28792,0.949408 -1.72146,6.932382 -1.10004,18.097713 -9.13523,18.269999 z m 11.38921,-32.625359 c -0.43716,3.833562 -1.02173,7.520176 -1.77904,11.033123 -12.51367,-3.960703 -20.18816,5.245927 -20.05043,16.609341 0.0272,2.197781 0.40538,4.377133 1.77997,5.931843 2.36868,2.67916 9.15135,3.319932 12.57539,1.068254 0.66335,-0.435778 1.3405,-1.229023 1.77997,-1.779506 0.32983,-0.414589 0.85405,-1.498968 0.94849,-1.187103 -0.17966,1.204608 -0.44868,2.319849 -0.47402,3.67832 h 4.62681 c 0.89137,-12.791442 3.64884,-23.717231 5.69461,-35.354272 z M 111.30875,84.08489 c -2.72938,2.890605 -9.43926,2.84638 -9.96533,-2.017203 -0.2294,-2.116246 0.55924,-4.335216 0.94895,-6.524705 0.39432,-2.216203 0.67808,-4.342586 1.06734,-6.288386 2.68837,-3.282621 10.58813,-3.678783 11.38967,1.779965 0.69558,4.739211 -1.1802,10.65631 -3.44063,13.050329 z m 4.03395,-20.049965 c -4.31771,-1.621962 -9.58022,0.314166 -11.86138,2.155861 0.008,0.08107 -0.0544,0.09213 -0.12161,0.09812 0.0391,-0.03271 0.0811,-0.06541 0.12161,-0.09812 -4.6e-4,-0.0069 -9.2e-4,-0.0129 -0.003,-0.02027 0.0387,-0.792325 0.31739,-1.343728 0.35609,-2.135592 H 99.445076 C 97.61582,76.204944 95.446599,88.034535 93.157149,99.74482 h 5.101283 c 0.73843,-4.560931 1.226262,-9.372003 2.254438,-13.643186 1.165,4.492296 8.77224,3.633637 11.98208,1.898354 6.62374,-3.581584 11.73239,-20.627623 2.84776,-23.965061 z m 24.20184,8.541906 h -11.98207 c 0.37912,-2.75471 2.85743,-5.782588 6.76194,-5.93184 3.67509,-0.1405 6.30635,1.349256 5.22013,5.93184 z m -4.86405,-9.016379 c -3.68615,0.283763 -6.80201,1.344649 -9.01638,3.677401 -2.71601,2.861581 -4.91564,9.187745 -4.27118,14.948682 0.91946,8.218989 11.15289,7.924171 19.33825,5.931842 0.13912,-1.442308 0.4883,-2.67548 0.71171,-4.033487 -3.37198,1.261731 -9.22643,3.02281 -12.69424,0.830559 -2.61835,-1.655589 -2.63356,-5.848001 -1.7795,-9.491315 5.50113,-0.175049 11.21876,-0.141419 16.72772,0 0.34964,-2.582424 1.34972,-5.397942 0.47448,-7.948584 -1.1544,-3.367381 -5.28601,-4.238938 -9.49086,-3.915098 z m -44.845122,0.474473 c -0.138198,0.01981 -0.128984,0.187487 -0.118853,0.355625 -1.123992,8.406476 -2.645071,16.416329 -4.27072,24.321149 h 5.101284 c 1.225798,-8.463136 2.62987,-16.747535 4.389568,-24.676774 z m 133.111952,0.118389 c -4.50888,-2.253981 -8.26228,1.52845 -9.72809,3.796249 0.41736,-1.163612 0.44131,-2.721544 0.8301,-3.914638 h -4.50842 c -1.2152,8.473271 -2.68101,16.696403 -4.38957,24.676774 h 5.22013 c 0.0332,-3.270642 0.67532,-5.689998 1.18618,-8.897993 1.09129,-6.848542 2.69253,-14.359506 10.67797,-12.100919 0.26487,-1.158545 0.37497,-2.47233 0.7117,-3.559473 z m -57.30259,18.744932 c -0.46987,-1.214744 -0.59194,-3.220893 -0.47447,-4.745657 0.26395,-3.428185 1.51278,-7.601711 3.44062,-9.490855 2.66028,-2.607762 7.9122,-2.176129 12.10092,-0.712171 0.12991,-1.411904 0.41367,-2.670872 0.59332,-4.033026 -6.87019,-1.122153 -13.38983,-0.424262 -16.84657,3.202928 -3.38351,3.55072 -5.60201,11.711669 -4.03395,16.846577 1.83571,6.008769 10.06483,6.335373 16.72865,4.033946 0.29436,-1.207833 0.45052,-2.554328 0.71171,-3.796709 -3.64101,1.891903 -10.60195,2.874939 -12.22023,-1.305033 z m -2.84684,-18.863321 c -4.52362,-1.826953 -8.07941,1.26035 -9.72809,4.152336 0.37359,-1.286607 0.52791,-2.793407 0.8301,-4.152336 h -4.50842 c -1.10189,8.547435 -2.72661,16.572026 -4.27073,24.676774 h 5.10175 c 0.71493,-4.811071 1.02357,-11.295696 2.6096,-15.897631 1.26772,-3.677398 4.58535,-6.810307 9.37247,-5.101281 0.0673,-1.356626 0.45559,-2.392176 0.59332,-3.677862 z M 80.581749,54.069137 c -0.728758,4.728613 -1.549639,9.365096 -2.372829,13.999275 -5.285084,0.05574 -10.681184,0.261191 -15.778781,-0.118849 0.962767,-4.533296 1.653287,-9.339759 2.609604,-13.880426 H 59.3456 c -2.038855,11.56564 -3.892987,23.315081 -6.169079,34.642562 h 5.812993 c 0.912095,-5.81115 1.764765,-11.681262 2.965691,-17.202664 4.956636,-0.122073 10.89723,-0.334895 15.660392,0.118848 -0.982114,5.74067 -2.168759,11.276351 -3.084539,17.083816 h 5.813454 C 82.212004,76.975617 84.18038,65.339958 86.513591,54.069137 Z m 14.473745,5.220131 c 1.017125,-0.700194 2.326765,-3.891605 0.830559,-5.220131 -0.47401,-0.420577 -1.267255,-0.54265 -2.372828,-0.355625 -1.025875,0.173206 -1.615971,0.52146 -2.01674,1.067336 -0.644915,0.878006 -1.235475,3.524924 -0.2377,4.50842 0.971982,0.9577 3.149491,0.445452 3.796709,0 z"
   fill="#ffffff"
   id="path4"
   style="stroke-width:0.458855" />
</svg>
