<?xml version="1.0" encoding="UTF-8" standalone="no"?>
<!-- Generator: Adobe Illustrator 16.0.2, SVG Export Plug-In . SVG Version: 6.00 Build 0)  -->

<svg
   version="1.1"
   id="Layer_1"
   x="0px"
   y="0px"
   width="300px"
   height="148px"
   viewBox="0 0 300 148"
   enable-background="new 0 0 300 148"
   xml:space="preserve"
   sodipodi:docname="hiper.svg"
   inkscape:version="1.1.2 (b8e25be833, 2022-02-05)"
   xmlns:inkscape="http://www.inkscape.org/namespaces/inkscape"
   xmlns:sodipodi="http://sodipodi.sourceforge.net/DTD/sodipodi-0.dtd"
   xmlns="http://www.w3.org/2000/svg"
   xmlns:svg="http://www.w3.org/2000/svg"><defs
   id="defs89">
	
	
</defs><sodipodi:namedview
   id="namedview87"
   pagecolor="#505050"
   bordercolor="#ffffff"
   borderopacity="1"
   inkscape:pageshadow="0"
   inkscape:pageopacity="0"
   inkscape:pagecheckerboard="1"
   showgrid="false"
   inkscape:zoom="2.3885135"
   inkscape:cx="118.06506"
   inkscape:cy="131.46252"
   inkscape:window-width="1920"
   inkscape:window-height="1009"
   inkscape:window-x="-8"
   inkscape:window-y="-8"
   inkscape:window-maximized="1"
   inkscape:current-layer="Layer_1" />
<path
   fill="#ffffff"
   d="m 300,136 c 0,6.627 -5.373,12 -12,12 H 12 C 5.373,148 0,142.627 0,136 V 12 C 0,5.373 5.373,0 12,0 h 276 c 6.627,0 12,5.373 12,12 z"
   id="path2" />
<path
   d="M 83.647019,33.25342 180.94167,10.120579 c 14.20141,-3.3769313 28.58362,5.480309 31.95983,19.681716 l 23.13356,97.294505 c 1.76338,7.41665 0.18873,14.88168 -3.73998,20.80362 H 83.625049 L 63.965238,65.213968 C 60.588667,51.012562 69.445418,36.630351 83.647019,33.25342"
   style="fill:#999999;fill-opacity:1;fill-rule:evenodd;stroke:none;stroke-width:0.0720335"
   id="path12" /><path
   d="m 83.437906,73.030324 v 41.570606 h 9.436966 V 97.20794 h 15.481008 v 17.39299 h 9.37509 V 73.030324 h -9.37509 V 89.004619 H 92.874872 V 73.030324 h -9.436966"
   style="fill:#ffffff;fill-opacity:1;fill-rule:nonzero;stroke:none;stroke-width:0.0720335"
   id="path14" /><path
   d="m 198.92124,102.51227 c 0.12317,-0.6787 0.3083,-2.09711 0.3083,-3.70072 0,-7.463032 -3.70108,-15.049385 -13.44577,-15.049385 -10.4852,0 -15.23437,8.449602 -15.23437,16.097832 0,9.436683 5.8592,15.357763 16.09733,15.357763 4.07133,0 7.83364,-0.61683 10.9174,-1.8504 l -1.23394,-6.35271 c -2.52837,0.80166 -5.1187,1.23358 -8.32635,1.23358 -4.37892,0 -8.20318,-1.8504 -8.51148,-5.73596 z m -19.49083,-6.414655 c 0.24707,-2.528736 1.85054,-6.106208 5.79798,-6.106208 4.31769,0 5.30454,3.824259 5.30454,6.106208 h -11.10252"
   style="fill:#ffffff;fill-opacity:1;fill-rule:nonzero;stroke:none;stroke-width:0.0720335"
   id="path16" /><path
   d="m 202.23334,114.60093 h 9.37516 V 99.304835 c 0,-0.740072 0.0619,-1.480361 0.18512,-2.096895 0.61661,-2.898773 2.96058,-4.749386 6.41459,-4.749386 1.04809,0 1.85054,0.123538 2.52838,0.246787 v -8.819927 c -0.67784,-0.123249 -1.11004,-0.123249 -1.973,-0.123249 -2.89935,0 -6.59971,1.850396 -8.14195,6.229242 h -0.24635 l -0.30831,-5.550831 h -8.08 c 0.12318,2.590397 0.24636,5.48917 0.24636,9.930252 v 20.230102"
   style="fill:#ffffff;fill-opacity:1;fill-rule:nonzero;stroke:none;stroke-width:0.0720335"
   id="path18" /><path
   d="m 127.2672,71.356986 c 2.66185,0 4.81955,2.158124 4.81955,4.819474 0,2.661566 -2.1577,4.819474 -4.81955,4.819474 -2.66157,0 -4.81947,-2.157908 -4.81947,-4.819474 0,-2.66135 2.1579,-4.819474 4.81947,-4.819474"
   style="fill:#cccccc;fill-opacity:1;fill-rule:evenodd;stroke:none;stroke-width:0.0720335"
   id="path20" /><path
   d="m 147.06647,107.57486 h 4.70595 c 4.72396,0 6.86119,-3.02541 6.86119,-6.18048 0,-3.155137 -0.2269,-10.29128 -6.06738,-10.29128 -6.70776,0 -5.62005,8.8576 -5.59124,13.49562 0.006,0.99183 0.0648,1.98344 0.0915,2.97614 z M 122.44773,84.398077 h 9.63902 v 16.996303 c 0,3.15284 1.75041,6.1763 5.61825,6.18048 0.0274,-7.652121 -0.003,-15.529922 -0.26004,-23.176783 h 8.05262 c 0.17721,1.472797 0.3364,2.949772 0.47975,4.429772 3.80481,-7.609043 15.79406,-5.93376 19.82866,0.489036 4.16786,6.634142 5.5862,25.628515 -14.03357,25.628515 h -4.56836 c 0.0439,3.85631 0.0511,7.71911 0.0511,11.5822 h -9.6388 c 0,-3.70692 0.0252,-7.5914 0.0504,-11.58307 -10.41842,-0.0363 -15.21909,-6.65157 -15.21909,-13.55015 V 84.398077"
   style="fill:#ffffff;fill-opacity:1;fill-rule:evenodd;stroke:none;stroke-width:0.0720335"
   id="path22" /></svg>
