<?xml version="1.0" encoding="utf-8"?>
<!-- Generator: Adobe Illustrator 16.0.2, SVG Export Plug-In . SVG Version: 6.00 Build 0)  -->
<!DOCTYPE svg PUBLIC "-//W3C//DTD SVG 1.1//EN" "http://www.w3.org/Graphics/SVG/1.1/DTD/svg11.dtd">
<svg version="1.1" id="Layer_1" xmlns="http://www.w3.org/2000/svg" xmlns:xlink="http://www.w3.org/1999/xlink" x="0px" y="0px"
	 width="300px" height="148px" viewBox="-22 25 300 148" enable-background="new -22 25 300 148" xml:space="preserve">
<path fill="#FFFFFF" d="M278,161c0,6.627-5.373,12-12,12H-10c-6.627,0-12-5.373-12-12V37c0-6.627,5.373-12,12-12h276
	c6.627,0,12,5.373,12,12V161z"/>
<g>
	<path fill="#FFFFFF" d="M209.257,135.933c0,13.907-11.324,25.231-25.231,25.231H46.743V61.231C46.743,47.325,58.067,36,71.974,36
		h137.283V135.933z"/>
	
		<linearGradient id="SVGID_1_" gradientUnits="userSpaceOnUse" x1="-171.7578" y1="473.8662" x2="-169.9175" y2="473.8662" gradientTransform="matrix(24.2543 0 0 -15.022 4321.5581 7223.9727)">
		<stop  offset="0" style="stop-color:#007940"/>
		<stop  offset="0.2285" style="stop-color:#00873F"/>
		<stop  offset="0.7433" style="stop-color:#40A737"/>
		<stop  offset="1" style="stop-color:#5CB531"/>
	</linearGradient>
	<path fill="url(#SVGID_1_)" d="M164.556,110.304h10.431c0.298,0,0.993-0.099,1.291-0.099c1.987-0.398,3.676-2.187,3.676-4.67
		c0-2.384-1.688-4.172-3.676-4.669c-0.298-0.099-0.894-0.099-1.291-0.099h-10.431V110.304z"/>
	
		<linearGradient id="SVGID_2_" gradientUnits="userSpaceOnUse" x1="-175.3169" y1="493.1162" x2="-174.6821" y2="493.1162" gradientTransform="matrix(70.2592 0 0 -170.7188 12473.3154 84283.0547)">
		<stop  offset="0" style="stop-color:#007940"/>
		<stop  offset="0.2285" style="stop-color:#00873F"/>
		<stop  offset="0.7433" style="stop-color:#40A737"/>
		<stop  offset="1" style="stop-color:#5CB531"/>
	</linearGradient>
	<path fill="url(#SVGID_2_)" d="M173.794,44.443c-9.934,0-18.079,8.046-18.079,18.079v18.775h25.529c0.596,0,1.292,0,1.788,0.099
		c5.762,0.298,10.033,3.278,10.033,8.444c0,4.073-2.881,7.549-8.245,8.245v0.199c5.861,0.397,10.331,3.675,10.331,8.742
		c0,5.464-4.967,9.04-11.522,9.04h-28.014v36.754h26.523c9.934,0,18.078-8.046,18.078-18.078V44.443H173.794L173.794,44.443z"/>
	
		<linearGradient id="SVGID_3_" gradientUnits="userSpaceOnUse" x1="-171.2319" y1="471.3398" x2="-169.2231" y2="471.3398" gradientTransform="matrix(22.22 0 0 -13.7702 3960.4805 6581.4604)">
		<stop  offset="0" style="stop-color:#007940"/>
		<stop  offset="0.2285" style="stop-color:#00873F"/>
		<stop  offset="0.7433" style="stop-color:#40A737"/>
		<stop  offset="1" style="stop-color:#5CB531"/>
	</linearGradient>
	<path fill="url(#SVGID_3_)" d="M178.662,91.032c0-2.384-1.689-3.974-3.676-4.271c-0.199,0-0.695-0.099-0.994-0.099h-9.437v8.742
		h9.437c0.299,0,0.895,0,0.994-0.1C176.973,95.006,178.662,93.417,178.662,91.032L178.662,91.032z"/>
	
		<linearGradient id="SVGID_4_" gradientUnits="userSpaceOnUse" x1="-174.499" y1="493.1152" x2="-173.8539" y2="493.1152" gradientTransform="matrix(70.2592 0 0 -170.5623 12315.9404 84205.5156)">
		<stop  offset="0" style="stop-color:#1F286F"/>
		<stop  offset="0.4751" style="stop-color:#004E94"/>
		<stop  offset="0.8261" style="stop-color:#0066B1"/>
		<stop  offset="1" style="stop-color:#006FBC"/>
	</linearGradient>
	<path fill="url(#SVGID_4_)" d="M73.862,44.443c-9.934,0-18.079,8.046-18.079,18.079v44.603c5.066,2.483,10.331,4.073,15.595,4.073
		c6.258,0,9.636-3.775,9.636-8.941V81.198H96.51v20.96c0,8.146-5.066,14.802-22.251,14.802c-10.43,0-18.576-2.285-18.576-2.285
		v38.046h26.523c9.934,0,18.079-8.047,18.079-18.08V44.443H73.862L73.862,44.443z"/>
	
		<linearGradient id="SVGID_5_" gradientUnits="userSpaceOnUse" x1="-174.9141" y1="493.1191" x2="-174.2875" y2="493.1191" gradientTransform="matrix(70.2592 0 0 -170.8753 12394.8154 84360.5859)">
		<stop  offset="0" style="stop-color:#6C2C2F"/>
		<stop  offset="0.1735" style="stop-color:#882730"/>
		<stop  offset="0.5731" style="stop-color:#BE1833"/>
		<stop  offset="0.8585" style="stop-color:#DC0436"/>
		<stop  offset="1" style="stop-color:#E60039"/>
	</linearGradient>
	<path fill="url(#SVGID_5_)" d="M123.828,44.443c-9.934,0-18.079,8.046-18.079,18.079v23.643c4.569-3.874,12.517-6.357,25.332-5.762
		c6.854,0.298,14.204,2.186,14.204,2.186v7.649c-3.675-1.888-8.046-3.576-13.708-3.973c-9.735-0.696-15.596,4.072-15.596,12.417
		c0,8.444,5.861,13.212,15.596,12.417c5.662-0.397,10.033-2.186,13.708-3.974v7.648c0,0-7.251,1.888-14.204,2.187
		c-12.815,0.595-20.762-1.888-25.332-5.762v41.721h26.523c9.934,0,18.079-8.046,18.079-18.079V44.443H123.828L123.828,44.443z"/>
</g>
</svg>
