<?xml version="1.0" encoding="UTF-8" standalone="no"?>
<!-- Generator: Adobe Illustrator 16.0.2, SVG Export Plug-In . SVG Version: 6.00 Build 0)  -->

<svg
   version="1.1"
   id="Layer_1"
   x="0px"
   y="0px"
   width="300px"
   height="148px"
   viewBox="-22 25.5 300 148"
   enable-background="new -22 25.5 300 148"
   xml:space="preserve"
   sodipodi:docname="mastercard.svg"
   inkscape:version="1.1.2 (b8e25be833, 2022-02-05)"
   xmlns:inkscape="http://www.inkscape.org/namespaces/inkscape"
   xmlns:sodipodi="http://sodipodi.sourceforge.net/DTD/sodipodi-0.dtd"
   xmlns="http://www.w3.org/2000/svg"
   xmlns:svg="http://www.w3.org/2000/svg"><defs
   id="defs856">
	
	
	
	
</defs><sodipodi:namedview
   id="namedview854"
   pagecolor="#505050"
   bordercolor="#ffffff"
   borderopacity="1"
   inkscape:pageshadow="0"
   inkscape:pageopacity="0"
   inkscape:pagecheckerboard="1"
   showgrid="false"
   inkscape:zoom="3.44"
   inkscape:cx="150"
   inkscape:cy="74.127907"
   inkscape:window-width="1920"
   inkscape:window-height="1009"
   inkscape:window-x="-8"
   inkscape:window-y="-8"
   inkscape:window-maximized="1"
   inkscape:current-layer="Layer_1" />
<path
   fill="#FFFFFF"
   d="M278,161.5c0,6.627-5.373,12-12,12H-10c-6.627,0-12-5.373-12-12v-124c0-6.627,5.373-12,12-12h276  c6.627,0,12,5.373,12,12V161.5z"
   id="path841" />
<path
   d="m 85.046,151.672 v -6.956 c 0,-2.667 -1.623,-4.405 -4.405,-4.405 -1.392,0 -2.899,0.463 -3.942,1.971 -0.812,-1.276 -1.971,-1.971 -3.71,-1.971 -1.159,0 -2.318,0.348 -3.246,1.623 v -1.392 h -2.435 v 11.13 h 2.435 v -6.145 c 0,-1.972 1.043,-2.898 2.667,-2.898 1.623,0 2.435,1.044 2.435,2.898 v 6.145 h 2.435 v -6.145 c 0,-1.972 1.159,-2.898 2.666,-2.898 1.624,0 2.435,1.044 2.435,2.898 v 6.145 z m 36.056,-11.13 h -3.941 v -3.362 h -2.435 v 3.362 h -2.203 v 2.202 h 2.203 v 5.103 c 0,2.55 1.044,4.057 3.826,4.057 1.043,0 2.202,-0.348 3.014,-0.812 l -0.695,-2.086 c -0.695,0.463 -1.507,0.579 -2.087,0.579 -1.159,0 -1.623,-0.695 -1.623,-1.855 v -4.985 h 3.941 z m 20.636,-0.231 c -1.392,0 -2.318,0.694 -2.898,1.623 v -1.392 h -2.435 v 11.13 h 2.435 v -6.261 c 0,-1.855 0.812,-2.898 2.319,-2.898 0.464,0 1.043,0.116 1.507,0.231 l 0.696,-2.319 c -0.465,-0.114 -1.16,-0.114 -1.624,-0.114 z m -31.186,1.158 c -1.159,-0.811 -2.782,-1.158 -4.521,-1.158 -2.782,0 -4.638,1.392 -4.638,3.594 0,1.854 1.392,2.898 3.826,3.245 l 1.159,0.117 c 1.275,0.231 1.971,0.58 1.971,1.16 0,0.811 -0.927,1.39 -2.55,1.39 -1.623,0 -2.898,-0.579 -3.71,-1.158 l -1.159,1.854 c 1.274,0.928 3.014,1.391 4.753,1.391 3.246,0 5.101,-1.507 5.101,-3.594 0,-1.971 -1.507,-3.014 -3.825,-3.361 l -1.159,-0.117 c -1.044,-0.115 -1.855,-0.347 -1.855,-1.043 0,-0.812 0.812,-1.275 2.087,-1.275 1.392,0 2.783,0.58 3.479,0.928 z m 64.692,-1.158 c -1.392,0 -2.318,0.694 -2.898,1.623 v -1.392 h -2.435 v 11.13 h 2.435 v -6.261 c 0,-1.855 0.812,-2.898 2.318,-2.898 0.464,0 1.043,0.116 1.507,0.231 l 0.696,-2.319 c -0.463,-0.114 -1.16,-0.114 -1.623,-0.114 z m -31.071,5.795 c 0,3.362 2.318,5.797 5.913,5.797 1.623,0 2.782,-0.348 3.941,-1.275 l -1.159,-1.97 c -0.928,0.695 -1.854,1.043 -2.898,1.043 -1.97,0 -3.361,-1.392 -3.361,-3.595 0,-2.086 1.392,-3.478 3.361,-3.594 1.044,0 1.971,0.348 2.898,1.043 l 1.159,-1.971 c -1.159,-0.927 -2.318,-1.274 -3.941,-1.274 -3.595,0.001 -5.913,2.434 -5.913,5.796 z m 22.491,0 v -5.564 h -2.434 v 1.392 c -0.812,-1.043 -1.972,-1.623 -3.479,-1.623 -3.13,0 -5.564,2.434 -5.564,5.796 0,3.362 2.435,5.797 5.564,5.797 1.624,0 2.782,-0.58 3.479,-1.623 v 1.392 h 2.434 z m -8.926,0 c 0,-1.971 1.274,-3.594 3.361,-3.594 1.971,0 3.363,1.508 3.363,3.594 0,1.972 -1.393,3.595 -3.363,3.595 -2.086,-0.116 -3.361,-1.623 -3.361,-3.595 z m -29.101,-5.795 c -3.245,0 -5.563,2.318 -5.563,5.796 0,3.479 2.318,5.797 5.681,5.797 1.623,0 3.247,-0.463 4.521,-1.507 l -1.16,-1.738 c -0.927,0.695 -2.086,1.158 -3.245,1.158 -1.507,0 -3.015,-0.695 -3.362,-2.667 h 8.231 v -0.927 c 0.114,-3.594 -1.972,-5.912 -5.103,-5.912 z m 0,2.086 c 1.509,0 2.552,0.927 2.784,2.665 h -5.798 c 0.232,-1.506 1.276,-2.665 3.014,-2.665 z m 60.404,3.709 v -9.971 h -2.436 v 5.798 c -0.812,-1.043 -1.97,-1.623 -3.477,-1.623 -3.131,0 -5.565,2.434 -5.565,5.796 0,3.362 2.435,5.797 5.565,5.797 1.622,0 2.781,-0.58 3.477,-1.623 v 1.392 h 2.436 z m -8.928,0 c 0,-1.971 1.275,-3.594 3.362,-3.594 1.972,0 3.362,1.508 3.362,3.594 0,1.972 -1.391,3.595 -3.362,3.595 -2.086,-0.116 -3.362,-1.623 -3.362,-3.595 z m -81.386,0 v -5.564 h -2.435 v 1.392 c -0.812,-1.043 -1.972,-1.623 -3.479,-1.623 -3.13,0 -5.564,2.434 -5.564,5.796 0,3.362 2.435,5.797 5.564,5.797 1.623,0 2.782,-0.58 3.479,-1.623 v 1.392 h 2.435 z m -9.043,0 c 0,-1.971 1.275,-3.594 3.362,-3.594 1.971,0 3.362,1.508 3.362,3.594 0,1.972 -1.392,3.595 -3.362,3.595 -2.087,-0.116 -3.362,-1.623 -3.362,-3.595 z"
   id="path843"
   style="fill:#666666" /><rect
   x="109.74"
   y="56.023998"
   fill="#ff5f00"
   width="36.52"
   height="65.620003"
   id="rect845"
   style="fill:#b3b3b3" /><path
   fill="#eb001b"
   d="m 112.06,88.834 c 0,-13.332 6.26,-25.158 15.883,-32.81 -7.072,-5.565 -16,-8.928 -25.738,-8.928 -23.071,0 -41.736,18.666 -41.736,41.737 0,23.072 18.665,41.737 41.736,41.737 9.738,0 18.666,-3.361 25.738,-8.927 -9.624,-7.536 -15.883,-19.475 -15.883,-32.809 z"
   id="path847"
   style="fill:#999999" /><path
   fill="#f79e1b"
   d="m 195.532,88.834 c 0,23.072 -18.665,41.737 -41.736,41.737 -9.738,0 -18.666,-3.361 -25.737,-8.927 9.738,-7.651 15.883,-19.477 15.883,-32.811 0,-13.332 -6.262,-25.158 -15.883,-32.81 7.071,-5.565 15.999,-8.928 25.737,-8.928 23.071,0.002 41.736,18.784 41.736,41.739 z"
   id="path849"
   style="fill:#cccccc" />
</svg>
