<?xml version="1.0" encoding="UTF-8" standalone="no"?>
<!-- Generator: Adobe Illustrator 16.0.2, SVG Export Plug-In . SVG Version: 6.00 Build 0)  -->

<svg
   version="1.1"
   id="svg3266"
   inkscape:version="1.1.2 (b8e25be833, 2022-02-05)"
   sodipodi:docname="visa.svg"
   x="0px"
   y="0px"
   width="300px"
   height="148px"
   viewBox="5.25 335.5 300 148"
   enable-background="new 5.25 335.5 300 148"
   xml:space="preserve"
   xmlns:inkscape="http://www.inkscape.org/namespaces/inkscape"
   xmlns:sodipodi="http://sodipodi.sourceforge.net/DTD/sodipodi-0.dtd"
   xmlns="http://www.w3.org/2000/svg"
   xmlns:svg="http://www.w3.org/2000/svg"><defs
   id="defs848">
	
	
	
	
	
</defs>
<sodipodi:namedview
   pagecolor="#ffffff"
   bordercolor="#666666"
   inkscape:cx="148.47269"
   showgrid="false"
   inkscape:zoom="3.0712719"
   inkscape:cy="56.002856"
   id="namedview3268"
   guidetolerance="10"
   borderopacity="1"
   objecttolerance="10"
   gridtolerance="10"
   inkscape:pageopacity="0"
   inkscape:pageshadow="2"
   inkscape:window-x="-8"
   inkscape:window-width="1920"
   inkscape:window-height="1009"
   inkscape:window-maximized="1"
   inkscape:window-y="-8"
   inkscape:current-layer="svg3266"
   inkscape:pagecheckerboard="1">
	</sodipodi:namedview>
<path
   fill="#FFFFFF"
   d="M305.25,471.5c0,6.627-5.373,12-12,12h-276c-6.627,0-12-5.373-12-12v-124c0-6.627,5.373-12,12-12h276  c6.627,0,12,5.373,12,12V471.5z"
   id="path838" />
<path
   id="path3256"
   fill="#005198"
   d="m 124.106,440.815 10.698,-62.545 h 17.082 l -10.698,62.545 z"
   style="fill:#808080" /><path
   id="path3258"
   fill="#005198"
   d="m 203.044,379.823 c -3.364,-1.208 -8.713,-2.588 -15.27,-2.588 -16.909,0 -28.728,8.454 -28.814,20.618 -0.086,8.972 8.455,13.977 14.925,16.996 6.643,3.104 8.886,5.003 8.799,7.764 0,4.228 -5.263,6.125 -10.18,6.125 -6.816,0 -10.438,-0.95 -16.045,-3.278 l -2.243,-1.036 -2.33,13.977 c 3.968,1.813 11.301,3.278 18.979,3.364 17.943,0 29.504,-8.367 29.677,-21.395 0.087,-7.074 -4.486,-12.509 -14.321,-16.996 -5.952,-2.846 -9.576,-4.744 -9.576,-7.677 0,-2.675 3.106,-5.436 9.749,-5.436 5.607,-0.086 9.663,1.121 12.768,2.416 l 1.553,0.69 z"
   style="fill:#808080" /><path
   id="path3260"
   fill="#005198"
   d="m 246.783,378.356 h -13.2 c -4.054,0 -7.161,1.122 -8.972,5.177 l -25.278,57.369 h 17.858 c 0,0 2.934,-7.765 3.624,-9.403 1.985,0 19.324,0 21.827,0 0.517,2.157 2.07,9.403 2.07,9.403 H 260.5 Z m -21.05,40.289 c 1.381,-3.537 6.816,-17.427 6.816,-17.427 -0.173,0.173 1.379,-3.622 2.243,-5.952 l 1.122,5.35 c 0,0 3.278,14.924 3.969,18.029 z"
   style="fill:#808080" /><path
   id="path3262"
   fill="#005198"
   d="M 109.872,378.356 93.136,420.973 91.41,412.346 C 88.304,402.339 78.556,391.555 67.772,386.12 l 15.27,54.695 h 18.03 l 26.831,-62.459 z"
   style="fill:#808080" /><path
   id="path3264"
   fill="#f8a600"
   d="M 77.693,378.271 H 50.172 L 50,379.65 c 21.309,5.176 35.543,17.686 41.41,32.696 l -6.039,-28.728 c -1.035,-3.968 -3.969,-5.175 -7.678,-5.347 z"
   style="fill:#cccccc" />
</svg>
